<svg xmlns="http://www.w3.org/2000/svg" xmlns:xlink="http://www.w3.org/1999/xhtml">
    <symbol id="password-eye-show" viewBox="0 0 24 24">
        <path d="M21.9196 11.6C19.8996 6.91 16.0996 4 11.9996 4C7.89958 4 4.09958 6.91 2.07958 11.6C2.02452 11.7262 1.99609 11.8623 1.99609 12C1.99609 12.1377 2.02452 12.2738 2.07958 12.4C4.09958 17.09 7.89958 20 11.9996 20C16.0996 20 19.8996 17.09 21.9196 12.4C21.9746 12.2738 22.0031 12.1377 22.0031 12C22.0031 11.8623 21.9746 11.7262 21.9196 11.6ZM11.9996 18C8.82958 18 5.82958 15.71 4.09958 12C5.82958 8.29 8.82958 6 11.9996 6C15.1696 6 18.1696 8.29 19.8996 12C18.1696 15.71 15.1696 18 11.9996 18ZM11.9996 8C11.2085 8 10.4351 8.2346 9.7773 8.67412C9.1195 9.11365 8.60681 9.73836 8.30406 10.4693C8.00131 11.2002 7.9221 12.0044 8.07644 12.7804C8.23078 13.5563 8.61174 14.269 9.17115 14.8284C9.73056 15.3878 10.4433 15.7688 11.2192 15.9231C11.9951 16.0775 12.7994 15.9983 13.5303 15.6955C14.2612 15.3928 14.8859 14.8801 15.3255 14.2223C15.765 13.5645 15.9996 12.7911 15.9996 12C15.9996 10.9391 15.5782 9.92172 14.828 9.17157C14.0779 8.42143 13.0604 8 11.9996 8ZM11.9996 14C11.604 14 11.2173 13.8827 10.8884 13.6629C10.5595 13.4432 10.3032 13.1308 10.1518 12.7654C10.0004 12.3999 9.96084 11.9978 10.038 11.6098C10.1152 11.2219 10.3057 10.8655 10.5854 10.5858C10.8651 10.3061 11.2214 10.1156 11.6094 10.0384C11.9974 9.96126 12.3995 10.0009 12.7649 10.1522C13.1304 10.3036 13.4428 10.56 13.6625 10.8889C13.8823 11.2178 13.9996 11.6044 13.9996 12C13.9996 12.5304 13.7889 13.0391 13.4138 13.4142C13.0387 13.7893 12.53 14 11.9996 14Z" fill="#667C9E"/>
    </symbol>
    <symbol id="password-eye-hide" viewBox="0 0 24 24">
        <path d="M10.9399 6.08019C11.2907 6.02642 11.6451 5.99967 11.9999 6.00019C15.1799 6.00019 18.1699 8.29018 19.9099 12.0002C19.6438 12.5648 19.3433 13.1125 19.0099 13.6402C18.9041 13.804 18.8485 13.9952 18.8499 14.1902C18.8522 14.4084 18.9257 14.6199 19.0594 14.7925C19.1931 14.965 19.3795 15.089 19.5903 15.1457C19.8011 15.2024 20.0246 15.1885 20.2267 15.1063C20.4289 15.024 20.5986 14.8779 20.7099 14.6902C21.1759 13.9581 21.5806 13.1888 21.9199 12.3902C21.9736 12.2654 22.0013 12.131 22.0013 11.9952C22.0013 11.8594 21.9736 11.725 21.9199 11.6002C19.8999 6.91019 16.0999 4.00019 11.9999 4.00019C11.5306 3.99782 11.062 4.03798 10.5999 4.12019C10.4686 4.14251 10.343 4.19048 10.2302 4.26136C10.1174 4.33224 10.0197 4.42464 9.94263 4.53329C9.86555 4.64193 9.81063 4.76469 9.78101 4.89456C9.75138 5.02443 9.74762 5.15886 9.76994 5.29019C9.79227 5.42151 9.84024 5.54715 9.91112 5.65993C9.982 5.77271 10.0744 5.87043 10.183 5.9475C10.2917 6.02457 10.4144 6.07949 10.5443 6.10912C10.6742 6.13875 10.8086 6.14251 10.9399 6.12019V6.08019ZM3.70994 2.29019C3.6167 2.19695 3.50601 2.12299 3.38419 2.07253C3.26237 2.02207 3.1318 1.99609 2.99994 1.99609C2.86808 1.99609 2.73751 2.02207 2.61569 2.07253C2.49387 2.12299 2.38318 2.19695 2.28994 2.29019C2.10164 2.47849 1.99585 2.73388 1.99585 3.00019C1.99585 3.26649 2.10164 3.52188 2.28994 3.71019L5.38994 6.80019C3.97551 8.16171 2.8498 9.79417 2.07994 11.6002C2.02488 11.7264 1.99646 11.8625 1.99646 12.0002C1.99646 12.1378 2.02488 12.274 2.07994 12.4002C4.09994 17.0902 7.89994 20.0002 11.9999 20.0002C13.797 19.9878 15.5517 19.4527 17.0499 18.4602L20.2899 21.7102C20.3829 21.8039 20.4935 21.8783 20.6154 21.9291C20.7372 21.9798 20.8679 22.006 20.9999 22.006C21.132 22.006 21.2627 21.9798 21.3845 21.9291C21.5064 21.8783 21.617 21.8039 21.7099 21.7102C21.8037 21.6172 21.8781 21.5066 21.9288 21.3848C21.9796 21.2629 22.0057 21.1322 22.0057 21.0002C22.0057 20.8682 21.9796 20.7375 21.9288 20.6156C21.8781 20.4937 21.8037 20.3831 21.7099 20.2902L3.70994 2.29019ZM10.0699 11.4802L12.5199 13.9302C12.3509 13.9787 12.1758 14.0022 11.9999 14.0002C11.4695 14.0002 10.9608 13.7895 10.5857 13.4144C10.2107 13.0393 9.99994 12.5306 9.99994 12.0002C9.99789 11.8244 10.0215 11.6492 10.0699 11.4802ZM11.9999 18.0002C8.81994 18.0002 5.82994 15.7102 4.09994 12.0002C4.74603 10.5739 5.66301 9.28676 6.79994 8.21019L8.56994 10.0002C8.15419 10.759 7.99568 11.6321 8.1182 12.4886C8.24072 13.3452 8.63766 14.1388 9.24947 14.7507C9.86128 15.3625 10.655 15.7594 11.5115 15.8819C12.368 16.0044 13.2411 15.8459 13.9999 15.4302L15.5899 17.0002C14.501 17.6411 13.2634 17.9858 11.9999 18.0002Z" fill="#667C9E"/>
    </symbol>
    <symbol id="rotate-icon" viewBox="0 0 16 16">
        <path fill-rule="evenodd" clip-rule="evenodd" d="M15.3333 2.00034C15.7014 2.00034 15.9999 2.29881 15.9999 2.667V6.667C15.9999 7.03519 15.7014 7.33367 15.3333 7.33367H11.3333C10.9651 7.33367 10.6666 7.03519 10.6666 6.667C10.6666 6.29881 10.9651 6.00034 11.3333 6.00034H14.6666V2.667C14.6666 2.29881 14.9651 2.00034 15.3333 2.00034Z"/>
        <path fill-rule="evenodd" clip-rule="evenodd" d="M8.7516 2.72116C7.6067 2.55876 6.44002 2.77287 5.42739 3.33123C4.41476 3.88958 3.61103 4.76193 3.13732 5.81682C2.66361 6.8717 2.54559 8.05197 2.80103 9.17977C3.05647 10.3076 3.67154 11.3218 4.55356 12.0696C5.43557 12.8174 6.53674 13.2583 7.69113 13.3259C8.84553 13.3934 9.9906 13.0839 10.9538 12.444C11.917 11.8042 12.6461 10.8686 13.0313 9.77826C13.154 9.4311 13.5348 9.24909 13.882 9.37175C14.2292 9.4944 14.4112 9.87525 14.2885 10.2224C13.807 11.5853 12.8956 12.7548 11.6916 13.5546C10.4876 14.3545 9.05626 14.7413 7.61327 14.6569C6.17028 14.5725 4.79381 14.0214 3.69129 13.0866C2.58877 12.1518 1.81994 10.8841 1.50063 9.47431C1.18133 8.06456 1.32886 6.58922 1.921 5.27061C2.51314 3.95201 3.5178 2.86157 4.78359 2.16363C6.04938 1.46568 7.50772 1.19804 8.93885 1.40104C10.3666 1.60355 11.69 2.2635 12.7108 3.28176L15.7903 6.18166C16.0583 6.43408 16.071 6.85599 15.8186 7.12404C15.5662 7.39209 15.1443 7.40476 14.8762 7.15235L11.7895 4.24568C11.7846 4.24106 11.7798 4.23636 11.775 4.23159C10.9576 3.41366 9.89651 2.88355 8.7516 2.72116Z"/>
    </symbol>
    <symbol id="header-wiki-icon" viewBox="0 0 24 24">
        <circle cx="12" cy="12" r="12"/>
        <path d="M8.62939 6.97224C8.82584 6.79891 9.03962 6.63424 9.27073 6.47824C9.50762 6.32224 9.76184 6.18646 10.0334 6.07091C10.3049 5.95535 10.5996 5.8658 10.9174 5.80224C11.2352 5.73291 11.5789 5.69824 11.9487 5.69824C12.4514 5.69824 12.9078 5.76758 13.3181 5.90624C13.7341 6.04491 14.0894 6.24424 14.3841 6.50424C14.6787 6.75846 14.9069 7.06758 15.0687 7.43157C15.2305 7.79558 15.3114 8.20291 15.3114 8.65357C15.3114 9.09269 15.2478 9.47402 15.1207 9.79758C14.9936 10.1154 14.8347 10.3927 14.6441 10.6296C14.4534 10.8665 14.2425 11.0716 14.0114 11.2449C13.7861 11.4182 13.5723 11.5829 13.3701 11.7389C13.1678 11.8891 12.9916 12.0394 12.8414 12.1896C12.6969 12.334 12.6103 12.4987 12.5814 12.6836L12.3821 13.9489H10.9174L10.7701 12.5362C10.7354 12.2647 10.7729 12.0278 10.8827 11.8256C10.9983 11.6176 11.1485 11.4298 11.3334 11.2622C11.5241 11.0889 11.7349 10.9242 11.9661 10.7682C12.1972 10.6065 12.4138 10.4331 12.6161 10.2482C12.8183 10.0576 12.9858 9.84669 13.1187 9.61558C13.2574 9.37869 13.3267 9.09846 13.3267 8.77491C13.3267 8.56691 13.2863 8.38202 13.2054 8.22024C13.1303 8.05269 13.0234 7.91113 12.8847 7.79558C12.7461 7.67424 12.5785 7.5818 12.3821 7.51824C12.1914 7.45469 11.9834 7.42291 11.7581 7.42291C11.4287 7.42291 11.1485 7.46046 10.9174 7.53558C10.6921 7.60491 10.4985 7.6858 10.3367 7.77824C10.1807 7.86491 10.0478 7.9458 9.93806 8.02091C9.82828 8.09024 9.73006 8.12491 9.64339 8.12491C9.43539 8.12491 9.28517 8.03824 9.19273 7.86491L8.62939 6.97224ZM10.2674 17.1902C10.2674 17.0111 10.2992 16.8407 10.3627 16.6789C10.4321 16.5171 10.5245 16.3785 10.6401 16.2629C10.7556 16.1474 10.8943 16.0549 11.0561 15.9856C11.2178 15.9162 11.3912 15.8816 11.5761 15.8816C11.7609 15.8816 11.9314 15.9162 12.0874 15.9856C12.2492 16.0549 12.3878 16.1474 12.5034 16.2629C12.6247 16.3785 12.7201 16.5171 12.7894 16.6789C12.8587 16.8407 12.8934 17.0111 12.8934 17.1902C12.8934 17.3751 12.8587 17.5485 12.7894 17.7102C12.7201 17.8662 12.6247 18.002 12.5034 18.1176C12.3878 18.2331 12.2492 18.3227 12.0874 18.3862C11.9314 18.4556 11.7609 18.4902 11.5761 18.4902C11.3912 18.4902 11.2178 18.4556 11.0561 18.3862C10.8943 18.3227 10.7556 18.2331 10.6401 18.1176C10.5245 18.002 10.4321 17.8662 10.3627 17.7102C10.2992 17.5485 10.2674 17.3751 10.2674 17.1902Z" fill="currentColor"/>
    </symbol>
    <symbol id="header-notifications-icon" viewBox="0 0 24 24">
        <path fill-rule="evenodd" clip-rule="evenodd" d="M12.0001 1C10.1436 1 8.36309 1.7375 7.05033 3.05025C5.73758 4.36301 5.00008 6.14348 5.00008 8C5.00008 11.3527 4.28301 13.4346 3.62218 14.6461C3.29039 15.2544 2.9673 15.6535 2.74288 15.8904C2.6304 16.0091 2.54202 16.0878 2.4888 16.1322C2.46218 16.1544 2.44432 16.168 2.43663 16.1737L2.43377 16.1758C2.07528 16.4221 1.91664 16.8725 2.04299 17.2898C2.17068 17.7115 2.55941 18 3.00008 18H21.0001C21.4407 18 21.8295 17.7115 21.9572 17.2898C22.0835 16.8725 21.9249 16.4221 21.5664 16.1758L21.5635 16.1737C21.5558 16.168 21.538 16.1544 21.5114 16.1322C21.4581 16.0878 21.3698 16.0091 21.2573 15.8904C21.0329 15.6535 20.7098 15.2544 20.378 14.6461C19.7171 13.4346 19.0001 11.3527 19.0001 8C19.0001 6.14349 18.2626 4.36301 16.9498 3.05025C15.6371 1.7375 13.8566 1 12.0001 1Z"/>
        <path fill-rule="evenodd" clip-rule="evenodd" d="M9.76817 20.1352C10.2459 19.858 10.8578 20.0207 11.1349 20.4984C11.2228 20.6499 11.349 20.7757 11.5008 20.8632C11.6526 20.9506 11.8247 20.9966 11.9999 20.9966C12.1751 20.9966 12.3472 20.9506 12.4991 20.8632C12.6509 20.7757 12.777 20.6499 12.8649 20.4984C13.1421 20.0207 13.754 19.858 14.2317 20.1352C14.7094 20.4123 14.8721 21.0242 14.5949 21.5019C14.3312 21.9566 13.9527 22.3339 13.4973 22.5962C13.0419 22.8586 12.5255 22.9966 11.9999 22.9966C11.4744 22.9966 10.958 22.8586 10.5026 22.5962C10.0472 22.3339 9.66866 21.9566 9.40494 21.5019C9.12782 21.0242 9.29044 20.4123 9.76817 20.1352Z"/>
    </symbol>
    <symbol id="header-logout-icon" viewBox="0 0 24 24">
        <path fill-rule="evenodd" clip-rule="evenodd" d="M16.7071 6.29289C16.3166 5.90237 15.6834 5.90237 15.2929 6.29289C14.9024 6.68342 14.9024 7.31658 15.2929 7.70711L18.5858 11H9C8.44772 11 8 11.4477 8 12C8 12.5523 8.44772 13 9 13H18.5858L15.2929 16.2929C14.9024 16.6834 14.9024 17.3166 15.2929 17.7071C15.6834 18.0976 16.3166 18.0976 16.7071 17.7071L21.7065 12.7077L21.7071 12.7071C21.7093 12.7049 21.7115 12.7027 21.7136 12.7005C21.9038 12.5069 21.9992 12.2551 22 12.003M21.7136 11.2995C21.8063 11.3938 21.8764 11.502 21.9241 11.6172C21.8746 11.4979 21.8027 11.3902 21.7136 11.2995ZM16.7071 6.29289L21.7065 11.2923L16.7071 6.29289Z"/>
        <path fill-rule="evenodd" clip-rule="evenodd" d="M5 2C4.20435 2 3.44129 2.31607 2.87868 2.87868C2.31607 3.44129 2 4.20435 2 5V19C2 19.7957 2.31607 20.5587 2.87868 21.1213C3.44129 21.6839 4.20435 22 5 22H9C9.55228 22 10 21.5523 10 21V14H9C7.89543 14 7 13.1046 7 12C7 10.8954 7.89543 10 9 10H10V3C10 2.44772 9.55228 2 9 2H5Z"/>
    </symbol>
    <symbol id="header-calendar-icon" viewBox="0 0 32 33">
        <rect x="3.85" y="5.35" width="24.3" height="22.3" rx="2.15" stroke-width="1.7"/>
        <path d="M17.2637 20.6038C17.2637 21.9116 18.3485 22.9755 19.6819 22.9755H22.5233C23.8567 22.9755 24.9415 21.9116 24.9415 20.6038V17.817C24.9415 16.5093 23.8567 15.4453 22.5233 15.4453H19.6819C18.3485 15.4453 17.2637 16.5093 17.2637 17.817V20.6038ZM19.6819 17.817H22.5233L22.5248 20.6037C22.5248 20.6037 22.5244 20.6038 22.5233 20.6038H19.6819V17.817Z" fill="currentColor"/>
        <path d="M23.4414 13.7997C24.2698 13.7997 24.9414 13.1411 24.9414 12.3286C24.9414 11.5161 24.2698 10.8574 23.4414 10.8574C22.613 10.8574 21.9414 11.5161 21.9414 12.3286C21.9414 13.1411 22.613 13.7997 23.4414 13.7997Z" fill="currentColor"/>
        <path d="M18.7637 13.7997C19.5921 13.7997 20.2637 13.1411 20.2637 12.3286C20.2637 11.5161 19.5921 10.8574 18.7637 10.8574C17.9352 10.8574 17.2637 11.5161 17.2637 12.3286C17.2637 13.1411 17.9352 13.7997 18.7637 13.7997Z" fill="currentColor"/>
        <path d="M9.4082 22.9755C10.2366 22.9755 10.9082 22.3169 10.9082 21.5044C10.9082 20.6919 10.2366 20.0332 9.4082 20.0332C8.57978 20.0332 7.9082 20.6919 7.9082 21.5044C7.9082 22.3169 8.57978 22.9755 9.4082 22.9755Z" fill="currentColor"/>
        <path d="M9.4082 13.7997C10.2366 13.7997 10.9082 13.1411 10.9082 12.3286C10.9082 11.5161 10.2366 10.8574 9.4082 10.8574C8.57978 10.8574 7.9082 11.5161 7.9082 12.3286C7.9082 13.1411 8.57978 13.7997 9.4082 13.7997Z" fill="currentColor"/>
        <path d="M9.4082 18.3876C10.2366 18.3876 10.9082 17.729 10.9082 16.9165C10.9082 16.104 10.2366 15.4453 9.4082 15.4453C8.57978 15.4453 7.9082 16.104 7.9082 16.9165C7.9082 17.729 8.57978 18.3876 9.4082 18.3876Z" fill="currentColor"/>
        <path d="M14.0859 18.3876C14.9144 18.3876 15.5859 17.729 15.5859 16.9165C15.5859 16.104 14.9144 15.4453 14.0859 15.4453C13.2575 15.4453 12.5859 16.104 12.5859 16.9165C12.5859 17.729 13.2575 18.3876 14.0859 18.3876Z" fill="currentColor"/>
        <path d="M14.0859 13.7997C14.9144 13.7997 15.5859 13.1411 15.5859 12.3286C15.5859 11.5161 14.9144 10.8574 14.0859 10.8574C13.2575 10.8574 12.5859 11.5161 12.5859 12.3286C12.5859 13.1411 13.2575 13.7997 14.0859 13.7997Z" fill="currentColor"/>
        <path d="M14.0859 22.9755C14.9144 22.9755 15.5859 22.3169 15.5859 21.5044C15.5859 20.6919 14.9144 20.0332 14.0859 20.0332C13.2575 20.0332 12.5859 20.6919 12.5859 21.5044C12.5859 22.3169 13.2575 22.9755 14.0859 22.9755Z" fill="currentColor"/>
        <rect x="8.74023" y="2.44141" width="3" height="4.11681" rx="1.5" />
        <rect x="14.5" y="2.44141" width="3" height="4.11681" rx="1.5" />
        <rect x="20.2598" y="2.44141" width="3" height="4.11681" rx="1.5"/>
    </symbol>
    <symbol id="header-search-icon" viewBox="0 0 16 16">
        <path d="M14.4742 13.5276L12.0009 11.0742C12.961 9.87719 13.4259 8.35778 13.3001 6.82845C13.1743 5.29911 12.4674 3.8761 11.3246 2.85201C10.1818 1.82792 8.69012 1.28059 7.15619 1.32256C5.62227 1.36453 4.16273 1.99262 3.07767 3.07767C1.99262 4.16273 1.36453 5.62227 1.32256 7.15619C1.28059 8.69012 1.82792 10.1818 2.85201 11.3246C3.8761 12.4674 5.29911 13.1743 6.82845 13.3001C8.35778 13.4259 9.87719 12.961 11.0742 12.0009L13.5276 14.4542C13.5896 14.5167 13.6633 14.5663 13.7445 14.6002C13.8258 14.634 13.9129 14.6514 14.0009 14.6514C14.0889 14.6514 14.1761 14.634 14.2573 14.6002C14.3385 14.5663 14.4123 14.5167 14.4742 14.4542C14.5944 14.3299 14.6616 14.1638 14.6616 13.9909C14.6616 13.818 14.5944 13.6519 14.4742 13.5276ZM7.33425 12.0009C6.41127 12.0009 5.50901 11.7272 4.74158 11.2144C3.97416 10.7017 3.37602 9.97282 3.02281 9.1201C2.6696 8.26738 2.57718 7.32907 2.75725 6.42382C2.93731 5.51858 3.38177 4.68706 4.03441 4.03441C4.68706 3.38177 5.51858 2.93731 6.42382 2.75725C7.32907 2.57718 8.26738 2.6696 9.1201 3.02281C9.97282 3.37602 10.7017 3.97416 11.2144 4.74158C11.7272 5.50901 12.0009 6.41127 12.0009 7.33425C12.0009 8.57192 11.5092 9.75891 10.6341 10.6341C9.75891 11.5092 8.57192 12.0009 7.33425 12.0009Z" fill="#8496B1"/>
    </symbol>
    <symbol id="header-back-icon" viewBox="0 0 16 16">
        <path fill-rule="evenodd" clip-rule="evenodd" d="M10.4721 3.52925C10.7324 3.7896 10.7324 4.21171 10.4721 4.47206L6.94346 8.00065L10.4721 11.5292C10.7324 11.7896 10.7324 12.2117 10.4721 12.4721C10.2117 12.7324 9.7896 12.7324 9.52925 12.4721L5.52925 8.47206C5.2689 8.21171 5.2689 7.7896 5.52925 7.52925L9.52925 3.52925C9.7896 3.2689 10.2117 3.2689 10.4721 3.52925Z"/>
    </symbol>
    <symbol id="home-contracts-title" viewBox="0 0 24 24">
        <path d="M9 10H10C10.2652 10 10.5196 9.89464 10.7071 9.70711C10.8946 9.51957 11 9.26522 11 9C11 8.73478 10.8946 8.48043 10.7071 8.29289C10.5196 8.10536 10.2652 8 10 8H9C8.73478 8 8.48043 8.10536 8.29289 8.29289C8.10536 8.48043 8 8.73478 8 9C8 9.26522 8.10536 9.51957 8.29289 9.70711C8.48043 9.89464 8.73478 10 9 10ZM9 12C8.73478 12 8.48043 12.1054 8.29289 12.2929C8.10536 12.4804 8 12.7348 8 13C8 13.2652 8.10536 13.5196 8.29289 13.7071C8.48043 13.8946 8.73478 14 9 14H15C15.2652 14 15.5196 13.8946 15.7071 13.7071C15.8946 13.5196 16 13.2652 16 13C16 12.7348 15.8946 12.4804 15.7071 12.2929C15.5196 12.1054 15.2652 12 15 12H9ZM20 8.94C19.9896 8.84813 19.9695 8.75763 19.94 8.67V8.58C19.8919 8.47718 19.8278 8.38267 19.75 8.3L13.75 2.3C13.6673 2.22222 13.5728 2.15808 13.47 2.11C13.4402 2.10576 13.4099 2.10576 13.38 2.11C13.2784 2.05174 13.1662 2.01434 13.05 2H7C6.20435 2 5.44129 2.31607 4.87868 2.87868C4.31607 3.44129 4 4.20435 4 5V19C4 19.7956 4.31607 20.5587 4.87868 21.1213C5.44129 21.6839 6.20435 22 7 22H17C17.7956 22 18.5587 21.6839 19.1213 21.1213C19.6839 20.5587 20 19.7956 20 19V9C20 9 20 9 20 8.94ZM14 5.41L16.59 8H15C14.7348 8 14.4804 7.89464 14.2929 7.70711C14.1054 7.51957 14 7.26522 14 7V5.41ZM18 19C18 19.2652 17.8946 19.5196 17.7071 19.7071C17.5196 19.8946 17.2652 20 17 20H7C6.73478 20 6.48043 19.8946 6.29289 19.7071C6.10536 19.5196 6 19.2652 6 19V5C6 4.73478 6.10536 4.48043 6.29289 4.29289C6.48043 4.10536 6.73478 4 7 4H12V7C12 7.79565 12.3161 8.55871 12.8787 9.12132C13.4413 9.68393 14.2044 10 15 10H18V19ZM15 16H9C8.73478 16 8.48043 16.1054 8.29289 16.2929C8.10536 16.4804 8 16.7348 8 17C8 17.2652 8.10536 17.5196 8.29289 17.7071C8.48043 17.8946 8.73478 18 9 18H15C15.2652 18 15.5196 17.8946 15.7071 17.7071C15.8946 17.5196 16 17.2652 16 17C16 16.7348 15.8946 16.4804 15.7071 16.2929C15.5196 16.1054 15.2652 16 15 16Z" fill="#8496B1"/>
    </symbol>
    <symbol id="home-manager-title" viewBox="0 0 24 24">
        <path d="M19.4097 13C19.1897 13 18.9597 12.93 18.7397 12.88C18.2945 12.7805 17.8568 12.6501 17.4297 12.49C16.9658 12.3212 16.4558 12.33 15.998 12.5146C15.5402 12.6992 15.1668 13.0466 14.9497 13.49L14.7297 13.95C13.7585 13.3992 12.8613 12.7271 12.0597 11.95C11.2825 11.1484 10.6105 10.2512 10.0597 9.28L10.5197 9.07C10.963 8.85292 11.3105 8.47953 11.4951 8.02169C11.6797 7.56385 11.6885 7.05391 11.5197 6.59C11.3609 6.15903 11.2306 5.71808 11.1297 5.27C11.0797 5.05 11.0397 4.82 11.0097 4.6C10.8882 3.89562 10.5193 3.25774 9.96931 2.80124C9.4193 2.34474 8.72438 2.09961 8.00968 2.11H4.99968C4.57693 2.10945 4.15883 2.19825 3.7728 2.37058C3.38677 2.54292 3.04152 2.7949 2.75968 3.11C2.472 3.43365 2.2578 3.81575 2.13179 4.23004C2.00577 4.64432 1.97094 5.08098 2.02968 5.51C2.57327 9.67214 4.47489 13.5387 7.43968 16.51C10.411 19.4748 14.2775 21.3764 18.4397 21.92C18.5695 21.9299 18.6999 21.9299 18.8297 21.92C19.5671 21.9211 20.2791 21.6505 20.8297 21.16C21.1448 20.8782 21.3968 20.5329 21.5691 20.1469C21.7414 19.7609 21.8302 19.3428 21.8297 18.92V15.92C21.8243 15.229 21.5805 14.5611 21.1396 14.0291C20.6987 13.4971 20.0876 13.1336 19.4097 13ZM19.8997 19C19.8994 19.1395 19.8698 19.2775 19.813 19.4049C19.7562 19.5324 19.6733 19.6465 19.5697 19.74C19.4601 19.8399 19.3297 19.9141 19.1878 19.9573C19.046 20.0006 18.8963 20.0117 18.7497 19.99C15.018 19.5026 11.5499 17.802 8.87968 15.15C6.20716 12.4775 4.49171 8.99737 3.99968 5.25C3.97796 5.10333 3.98912 4.95367 4.03236 4.81185C4.0756 4.67003 4.14983 4.5396 4.24968 4.43C4.3443 4.32515 4.46006 4.24154 4.58933 4.18466C4.7186 4.12778 4.85846 4.09892 4.99968 4.1H7.99968C8.23085 4.09435 8.45682 4.16898 8.63915 4.3112C8.82147 4.45341 8.94888 4.65442 8.99968 4.88C8.99968 5.15 9.08968 5.43 9.14968 5.7C9.26526 6.22386 9.419 6.73857 9.60968 7.24L8.20968 7.9C7.96905 8.01046 7.78204 8.21185 7.68968 8.46C7.58967 8.70346 7.58967 8.97654 7.68968 9.22C9.12888 12.3028 11.6069 14.7808 14.6897 16.22C14.9331 16.32 15.2062 16.32 15.4497 16.22C15.6978 16.1276 15.8992 15.9406 16.0097 15.7L16.6397 14.3C17.1556 14.4881 17.6834 14.6418 18.2197 14.76C18.4797 14.82 18.7597 14.87 19.0297 14.91C19.2553 14.9608 19.4563 15.0882 19.5985 15.2705C19.7407 15.4529 19.8153 15.6788 19.8097 15.91L19.8997 19ZM13.9997 2C13.7697 2 13.5297 2 13.2997 2C13.0345 2.02254 12.7891 2.14952 12.6175 2.353C12.4459 2.55647 12.3621 2.81978 12.3847 3.085C12.4072 3.35022 12.5342 3.59562 12.7377 3.76721C12.9412 3.93881 13.2045 4.02254 13.4697 4H13.9997C15.591 4 17.1171 4.63214 18.2423 5.75736C19.3675 6.88258 19.9997 8.4087 19.9997 10C19.9997 10.18 19.9997 10.35 19.9997 10.53C19.9775 10.7938 20.0609 11.0556 20.2314 11.2581C20.402 11.4606 20.6459 11.5871 20.9097 11.61H20.9897C21.24 11.611 21.4816 11.5181 21.6668 11.3496C21.8519 11.1811 21.9672 10.9493 21.9897 10.7C21.9897 10.47 21.9897 10.23 21.9897 10C21.9897 7.88 21.1482 5.84668 19.6501 4.34668C18.1519 2.84667 16.1197 2.00265 13.9997 2ZM15.9997 10C15.9997 10.2652 16.105 10.5196 16.2926 10.7071C16.4801 10.8946 16.7345 11 16.9997 11C17.2649 11 17.5193 10.8946 17.7068 10.7071C17.8943 10.5196 17.9997 10.2652 17.9997 10C17.9997 8.93913 17.5783 7.92172 16.8281 7.17157C16.078 6.42143 15.0605 6 13.9997 6C13.7345 6 13.4801 6.10536 13.2926 6.29289C13.105 6.48043 12.9997 6.73478 12.9997 7C12.9997 7.26522 13.105 7.51957 13.2926 7.70711C13.4801 7.89464 13.7345 8 13.9997 8C14.5301 8 15.0388 8.21071 15.4139 8.58579C15.789 8.96086 15.9997 9.46957 15.9997 10Z" fill="#8496B1"/>
    </symbol>
    <symbol id="home-admin-letters-title" viewBox="0 0 24 24">
        <path d="M14 11.5097H16.42C16.5516 11.5105 16.6821 11.4852 16.8039 11.4355C16.9257 11.3857 17.0366 11.3124 17.13 11.2197L21.71 6.6397C21.8037 6.54674 21.8781 6.43614 21.9289 6.31428C21.9797 6.19242 22.0058 6.06172 22.0058 5.9297C22.0058 5.79769 21.9797 5.66699 21.9289 5.54513C21.8781 5.42327 21.8037 5.31267 21.71 5.2197L19.29 2.7997C19.197 2.70598 19.0864 2.63158 18.9646 2.58081C18.8427 2.53004 18.712 2.50391 18.58 2.50391C18.448 2.50391 18.3173 2.53004 18.1954 2.58081C18.0736 2.63158 17.963 2.70598 17.87 2.7997L13.29 7.3797C13.1073 7.57134 13.0037 7.82494 13 8.0897V10.5097C13 10.7749 13.1054 11.0293 13.2929 11.2168C13.4804 11.4043 13.7348 11.5097 14 11.5097ZM15 8.5097L18.58 4.9297L19.58 5.9297L16 9.5097H15V8.5097ZM21 10.5097C20.7348 10.5097 20.4804 10.6151 20.2929 10.8026C20.1054 10.9901 20 11.2445 20 11.5097V18.5097C20 18.7749 19.8946 19.0293 19.7071 19.2168C19.5196 19.4043 19.2652 19.5097 19 19.5097H5C4.73478 19.5097 4.48043 19.4043 4.29289 19.2168C4.10536 19.0293 4 18.7749 4 18.5097V8.8997L9.88 14.7897C10.1591 15.0724 10.4915 15.2969 10.858 15.4501C11.2245 15.6033 11.6178 15.6822 12.015 15.6822C12.4122 15.6822 12.8055 15.6033 13.172 15.4501C13.5385 15.2969 13.8709 15.0724 14.15 14.7897C14.3332 14.6028 14.4359 14.3515 14.4359 14.0897C14.4359 13.828 14.3332 13.5766 14.15 13.3897C14.0569 13.2945 13.9456 13.2188 13.8229 13.1671C13.7001 13.1154 13.5682 13.0888 13.435 13.0888C13.3018 13.0888 13.1699 13.1154 13.0471 13.1671C12.9244 13.2188 12.8131 13.2945 12.72 13.3897C12.5331 13.5729 12.2818 13.6756 12.02 13.6756C11.7582 13.6756 11.5069 13.5729 11.32 13.3897L5.41 7.4897H10C10.2652 7.4897 10.5196 7.38435 10.7071 7.19681C10.8946 7.00928 11 6.75492 11 6.4897C11 6.22449 10.8946 5.97013 10.7071 5.7826C10.5196 5.59506 10.2652 5.4897 10 5.4897H5C4.20435 5.4897 3.44129 5.80577 2.87868 6.36838C2.31607 6.93099 2 7.69405 2 8.4897V18.4897C2 19.2854 2.31607 20.0484 2.87868 20.611C3.44129 21.1736 4.20435 21.4897 5 21.4897H19C19.7956 21.4897 20.5587 21.1736 21.1213 20.611C21.6839 20.0484 22 19.2854 22 18.4897V11.4897C22 11.2245 21.8946 10.9701 21.7071 10.7826C21.5196 10.5951 21.2652 10.4897 21 10.4897V10.5097Z" fill="#8496B1"/>
    </symbol>
    <symbol id="more-vertical-icon" viewBox="0 0 24 24">
        <path fill-rule="evenodd" clip-rule="evenodd" d="M11.502 4C10.6735 4 10.002 4.67157 10.002 5.5C10.002 6.32843 10.6735 7 11.502 7C12.3304 7 13.002 6.32843 13.002 5.5C13.002 4.67157 12.3304 4 11.502 4ZM11.502 11C10.6735 11 10.002 11.6716 10.002 12.5C10.002 13.3284 10.6735 14 11.502 14C12.3304 14 13.002 13.3284 13.002 12.5C13.002 11.6716 12.3304 11 11.502 11ZM11.502 18C10.6735 18 10.002 18.6716 10.002 19.5C10.002 20.3284 10.6735 21 11.502 21C12.3304 21 13.002 20.3284 13.002 19.5C13.002 18.6716 12.3304 18 11.502 18Z" fill="#667C9E"/>
    </symbol>
    <symbol id="sidebar-home-icon" viewBox="0 0 24 24">
        <path fill-rule="evenodd" clip-rule="evenodd" d="M3 5C3 3.89543 3.89543 3 5 3H9.18182C10.2864 3 11.1818 3.89543 11.1818 5V9.18182C11.1818 10.2864 10.2864 11.1818 9.18182 11.1818H5C3.89543 11.1818 3 10.2864 3 9.18182V5ZM12.8182 14.8182C12.8182 13.7136 13.7136 12.8182 14.8182 12.8182H19C20.1046 12.8182 21 13.7136 21 14.8182V19C21 20.1046 20.1046 21 19 21H14.8182C13.7136 21 12.8182 20.1046 12.8182 19V14.8182ZM12.8182 5C12.8182 3.89543 13.7136 3 14.8182 3H19C20.1046 3 21 3.89543 21 5V9.18182C21 10.2864 20.1046 11.1818 19 11.1818H14.8182C13.7136 11.1818 12.8182 10.2864 12.8182 9.18182V5ZM3 14.8182C3 13.7136 3.89543 12.8182 5 12.8182H9.18182C10.2864 12.8182 11.1818 13.7136 11.1818 14.8182V19C11.1818 20.1046 10.2864 21 9.18182 21H5C3.89543 21 3 20.1046 3 19V14.8182Z"/>
    </symbol>
    <symbol id="sidebar-contract-icon" viewBox="0 0 24 24">
        <path fill-rule="evenodd" clip-rule="evenodd" d="M6.4 3C5.76348 3 5.15303 3.2586 4.70294 3.71892C4.25286 4.17924 4 4.80356 4 5.45455V18.5455C4 19.1964 4.25286 19.8208 4.70294 20.2811C5.15303 20.7414 5.76348 21 6.4 21H12.907L13.2754 19.8443C13.3755 19.5305 13.5515 19.2463 13.7878 19.0169L18.4 14.5395V8.72727C18.4 8.51028 18.3157 8.30217 18.1657 8.14873L13.3657 3.23964C13.2157 3.0862 13.0122 3 12.8 3H6.4ZM12.8 3.81815V7.72724C12.8 8.27953 13.2478 8.72724 13.8 8.72724H17.6L12.8 3.81815ZM7.59995 10.6C7.10289 10.6 6.69995 11.003 6.69995 11.5C6.69995 11.9971 7.10289 12.4 7.59995 12.4H14.8C15.297 12.4 15.7 11.9971 15.7 11.5C15.7 11.003 15.297 10.6 14.8 10.6H7.59995ZM6.69995 15.1C6.69995 14.603 7.10289 14.2 7.59995 14.2H14.8C15.297 14.2 15.7 14.603 15.7 15.1C15.7 15.5971 15.297 16 14.8 16H7.59995C7.10289 16 6.69995 15.5971 6.69995 15.1ZM7.59995 7C7.10289 7 6.69995 7.40294 6.69995 7.9C6.69995 8.39706 7.10289 8.8 7.59995 8.8H9.39995C9.89701 8.8 10.3 8.39706 10.3 7.9C10.3 7.40294 9.89701 7 9.39995 7H7.59995ZM21.0876 14.728L22.3138 16.01C22.6936 16.407 22.6819 17.036 22.2877 17.4187L17.0717 22.4824C16.9672 22.5838 16.8418 22.6612 16.7042 22.7092L14.8897 23.3415C14.1113 23.6127 13.3575 22.8787 13.6079 22.0934L14.2281 20.1481C14.2781 19.9912 14.3661 19.8491 14.4843 19.7344L19.6684 14.7017C20.0668 14.315 20.7039 14.3268 21.0876 14.728Z"/>
    </symbol>
    <symbol id="sidebar-admin-letters-icon" viewBox="0 0 24 24">
        <path fill-rule="evenodd" clip-rule="evenodd" d="M6.22481 2.63904C6.62489 2.22987 7.16751 2 7.73331 2H13.4222C13.6108 2 13.7917 2.07662 13.925 2.21301L18.1917 6.57665C18.3251 6.71304 18.4 6.89802 18.4 7.09091V11.2615L13.5211 15.2256C12.8008 15.8108 11.7726 15.8237 11.0379 15.2566L5.59998 11.0592V4.18182C5.59998 3.60316 5.82474 3.04821 6.22481 2.63904ZM13.4222 6.09088V2.72725L17.6889 7.09088H14.4222C13.8699 7.09088 13.4222 6.64317 13.4222 6.09088ZM8.79998 5.40002C8.24769 5.40002 7.79998 5.84774 7.79998 6.40002C7.79998 6.95231 8.24769 7.40002 8.79998 7.40002H10.4C10.9523 7.40002 11.4 6.95231 11.4 6.40002C11.4 5.84774 10.9523 5.40002 10.4 5.40002H8.79998ZM8.79998 8.60004C8.24769 8.60004 7.79998 9.04775 7.79998 9.60004C7.79998 10.1523 8.24769 10.6 8.79998 10.6H15.2C15.7523 10.6 16.2 10.1523 16.2 9.60004C16.2 9.04775 15.7523 8.60004 15.2 8.60004H8.79998Z"/>
        <path d="M9.06302 14.9955L10.4269 16.0482C11.5289 16.8988 13.0713 16.8796 14.1517 16.0017L15.1499 15.1907L19.1621 18.8686C19.3657 19.0552 19.682 19.0414 19.8686 18.8378C20.0552 18.6343 20.0414 18.318 19.8379 18.1314L15.9344 14.5533L21.7593 9.82059C21.9142 10.1826 22 10.5813 22 11V19C22 20.1046 21.1046 21 20 21H4C2.89543 21 2 20.1046 2 19V11C2 10.555 2.0969 10.1326 2.27077 9.75275L8.25962 14.3754L4.16214 18.1314C3.95858 18.318 3.94483 18.6343 4.13142 18.8379C4.31802 19.0414 4.6343 19.0552 4.83786 18.8686L9.06302 14.9955Z"/>
        <path d="M19.4 10.1556V7.90527L21 9.00003L19.4 10.1556Z"/>
        <path d="M4.59998 7.96004V10.1556L3 9.00003L4.59998 7.96004Z"/>
    </symbol>
    <symbol id="sidebar-reports-icon" viewBox="0 0 24 24">
        <path d="M12.2929 1.29289C12.4804 1.10536 12.7348 1 13 1C14.3132 1 15.6136 1.25866 16.8268 1.7612C18.0401 2.26375 19.1425 3.00035 20.0711 3.92893C20.9997 4.85752 21.7362 5.95991 22.2388 7.17317C22.7413 8.38642 23 9.68678 23 11C23 11.5523 22.5523 12 22 12H13C12.4477 12 12 11.5523 12 11V2C12 1.73478 12.1054 1.48043 12.2929 1.29289Z"/>
        <path d="M6.24566 4.05003C7.07596 3.49096 8.11822 3 9.19492 3C9.7472 3 10.1949 3.44772 10.1949 4V12.7218C10.1949 13.2705 10.6345 13.7128 11.178 13.7175C13.7358 13.7397 18.0496 13.7638 19.9657 13.698C20.2367 13.6887 20.4999 13.7899 20.6949 13.9783C20.8899 14.1667 21 14.4263 21 14.6974C21 15.6991 20.5156 16.7463 19.9811 17.584C19.4299 18.4477 18.7201 19.252 18.0675 19.7844C16.8197 20.8023 15.3419 21.4985 13.7634 21.8118C12.1848 22.1252 10.5537 22.0462 9.01267 21.5818C7.47166 21.1173 6.06784 20.2817 4.92386 19.148C3.77989 18.0144 2.93057 16.6173 2.44995 15.079C1.96934 13.5407 1.87199 11.9079 2.16638 10.3233C2.46077 8.73866 3.13799 7.25024 4.13901 5.9882C4.64924 5.34494 5.39762 4.62104 6.24566 4.05003Z"/>
    </symbol>
    <symbol id="sidebar-choosing-ul-icon" viewBox="0 0 24 24">
        <path d="M18.3 12.44C19.7912 12.44 21 13.622 21 15.08V15.96C21 19.4297 17.6529 23 12 23C6.34712 23 3 19.4297 3 15.96V15.08C3 13.622 4.20883 12.44 5.7 12.44H18.3ZM12 1C14.7338 1 16.95 3.16694 16.95 5.84C16.95 8.51306 14.7338 10.68 12 10.68C9.26619 10.68 7.05 8.51306 7.05 5.84C7.05 3.16694 9.26619 1 12 1Z"/>
    </symbol>
    <symbol id="sidebar-profile-ul-icon" viewBox="0 0 24 24">
        <path fill-rule="evenodd" clip-rule="evenodd" d="M6.66667 3C5.95942 3 5.28115 3.28734 4.78105 3.7988C4.28095 4.31026 4 5.00396 4 5.72727V20.2727C4 20.996 4.28095 21.6897 4.78105 22.2012C5.28115 22.7127 5.95942 23 6.66667 23H17.3333C18.0406 23 18.7189 22.7127 19.219 22.2012C19.719 21.6897 20 20.996 20 20.2727V9.36364C20 9.12253 19.9064 8.8913 19.7397 8.72081L14.4063 3.26627C14.2396 3.09578 14.0135 3 13.7778 3H6.66667ZM13.7778 3.90906V8.3636C13.7778 8.91589 14.2255 9.3636 14.7778 9.3636H19.1111L13.7778 3.90906ZM7 11C7 10.4477 7.44772 10 8 10H9H10C10.5523 10 11 10.4477 11 11C11 11.5523 10.5523 12 10 12H9H8C7.44772 12 7 11.5523 7 11ZM8 14C7.44772 14 7 14.4477 7 15C7 15.5523 7.44772 16 8 16H16C16.5523 16 17 15.5523 17 15C17 14.4477 16.5523 14 16 14H8ZM8 18C7.44772 18 7 18.4477 7 19C7 19.5523 7.44772 20 8 20H16C16.5523 20 17 19.5523 17 19C17 18.4477 16.5523 18 16 18H8Z"/>
    </symbol>
    <symbol id="arrows-filter" viewBox="0 0 22 22">
        <path d="M13.5938 16.0693C13.5938 16.3455 13.8176 16.5693 14.0938 16.5693C14.3699 16.5693 14.5938 16.3455 14.5938 16.0693L13.5938 16.0693ZM14.0938 7.34267L14.4473 6.98912L14.0938 6.63556L13.7402 6.98912L14.0938 7.34267ZM15.8027 9.75873C15.998 9.95399 16.3145 9.95399 16.5098 9.75873C16.7051 9.56346 16.7051 9.24688 16.5098 9.05162L15.8027 9.75873ZM11.6777 9.05162C11.4824 9.24688 11.4824 9.56346 11.6777 9.75872C11.873 9.95399 12.1895 9.95399 12.3848 9.75872L11.6777 9.05162ZM14.5938 16.0693L14.5938 7.34267L13.5938 7.34267L13.5938 16.0693L14.5938 16.0693ZM13.7402 7.69622L15.8027 9.75873L16.5098 9.05162L14.4473 6.98912L13.7402 7.69622ZM13.7402 6.98912L11.6777 9.05162L12.3848 9.75872L14.4473 7.69622L13.7402 6.98912Z"/>
        <path d="M8.40234 7.34277C8.40234 7.06663 8.17849 6.84277 7.90234 6.84277C7.6262 6.84277 7.40234 7.06663 7.40234 7.34277L8.40234 7.34277ZM7.90234 15.8128L7.55411 16.1716L7.90234 16.5096L8.25058 16.1716L7.90234 15.8128ZM6.18808 13.4521C5.98993 13.2598 5.67338 13.2645 5.48105 13.4627C5.28873 13.6609 5.29345 13.9774 5.49161 14.1697L6.18808 13.4521ZM10.3131 14.1697C10.5112 13.9774 10.516 13.6609 10.3236 13.4627C10.1313 13.2645 9.81476 13.2598 9.61661 13.4521L10.3131 14.1697ZM7.40234 7.34277L7.40234 15.8128L8.40234 15.8128L8.40234 7.34277L7.40234 7.34277ZM8.25058 15.454L6.18808 13.4521L5.49161 14.1697L7.55411 16.1716L8.25058 15.454ZM8.25058 16.1716L10.3131 14.1697L9.61661 13.4521L7.55411 15.454L8.25058 16.1716Z"/>
    </symbol>
    <symbol id="calendar-input-icon" viewBox="0 0 24 24">
        <path fill-rule="evenodd" clip-rule="evenodd" d="M16 1C16.5523 1 17 1.44772 17 2V3H19C20.6569 3 22 4.34315 22 6V7H2V6C2 4.34315 3.34315 3 5 3H7V2C7 1.44772 7.44772 1 8 1C8.55228 1 9 1.44772 9 2V3H15V2C15 1.44772 15.4477 1 16 1ZM2 9H22V20C22 21.6569 20.6569 23 19 23H5C3.34315 23 2 21.6569 2 20V9ZM6 13C6.55228 13 7 12.5523 7 12C7 11.4477 6.55228 11 6 11C5.44772 11 5 11.4477 5 12C5 12.5523 5.44772 13 6 13ZM6 21C6.55228 21 7 20.5523 7 20C7 19.4477 6.55228 19 6 19C5.44772 19 5 19.4477 5 20C5 20.5523 5.44772 21 6 21ZM11 12C11 12.5523 10.5523 13 10 13C9.44772 13 9 12.5523 9 12C9 11.4477 9.44772 11 10 11C10.5523 11 11 11.4477 11 12ZM10 17C10.5523 17 11 16.5523 11 16C11 15.4477 10.5523 15 10 15C9.44772 15 9 15.4477 9 16C9 16.5523 9.44772 17 10 17ZM11 20C11 20.5523 10.5523 21 10 21C9.44772 21 9 20.5523 9 20C9 19.4477 9.44772 19 10 19C10.5523 19 11 19.4477 11 20ZM14 13C14.5523 13 15 12.5523 15 12C15 11.4477 14.5523 11 14 11C13.4477 11 13 11.4477 13 12C13 12.5523 13.4477 13 14 13ZM15 16C15 16.5523 14.5523 17 14 17C13.4477 17 13 16.5523 13 16C13 15.4477 13.4477 15 14 15C14.5523 15 15 15.4477 15 16ZM14 21C14.5523 21 15 20.5523 15 20C15 19.4477 14.5523 19 14 19C13.4477 19 13 19.4477 13 20C13 20.5523 13.4477 21 14 21ZM19 12C19 12.5523 18.5523 13 18 13C17.4477 13 17 12.5523 17 12C17 11.4477 17.4477 11 18 11C18.5523 11 19 11.4477 19 12ZM18 17C18.5523 17 19 16.5523 19 16C19 15.4477 18.5523 15 18 15C17.4477 15 17 15.4477 17 16C17 16.5523 17.4477 17 18 17ZM7 16C7 16.5523 6.55228 17 6 17C5.44772 17 5 16.5523 5 16C5 15.4477 5.44772 15 6 15C6.55228 15 7 15.4477 7 16Z" fill="#667C9E"/>
    </symbol>
    <symbol id="tippy-white-icon" viewBox="0 0 16 16">
            <circle cx="8.0918" cy="8" r="8" fill="currentColor"/>
            <path d="M5.84375 4.64816C5.97471 4.53261 6.11723 4.42283 6.27131 4.31883C6.42923 4.21483 6.59871 4.12431 6.77975 4.04727C6.96079 3.97024 7.15723 3.91053 7.36908 3.86816C7.58094 3.82194 7.81012 3.79883 8.05664 3.79883C8.39175 3.79883 8.69605 3.84505 8.96953 3.93749C9.24686 4.02994 9.48375 4.16283 9.68019 4.33616C9.87664 4.50564 10.0288 4.71172 10.1366 4.95438C10.2445 5.19705 10.2984 5.46861 10.2984 5.76905C10.2984 6.06179 10.256 6.31601 10.1713 6.53172C10.0866 6.74357 9.98064 6.92846 9.85353 7.08638C9.72642 7.24431 9.58582 7.38105 9.43175 7.49661C9.28153 7.61216 9.13901 7.72194 9.00419 7.82594C8.86938 7.92609 8.7519 8.02624 8.65175 8.12638C8.55545 8.22268 8.49768 8.33246 8.47842 8.45572L8.34553 9.29927H7.36908L7.27086 8.35749C7.24775 8.17646 7.27279 8.01853 7.34597 7.88372C7.42301 7.74505 7.52316 7.61987 7.64642 7.50816C7.77353 7.39261 7.91412 7.28283 8.06819 7.17883C8.22227 7.07098 8.36671 6.95542 8.50153 6.83216C8.63634 6.70505 8.74805 6.56446 8.83664 6.41038C8.92908 6.25246 8.97531 6.06564 8.97531 5.84994C8.97531 5.71127 8.94834 5.58801 8.89442 5.48016C8.84434 5.36846 8.77308 5.27409 8.68064 5.19705C8.58819 5.11616 8.47649 5.05453 8.34553 5.01216C8.21842 4.96979 8.07975 4.94861 7.92953 4.94861C7.70997 4.94861 7.52316 4.97364 7.36908 5.02372C7.21886 5.06994 7.08982 5.12387 6.98197 5.18549C6.87797 5.24327 6.78938 5.2972 6.71619 5.34727C6.64301 5.39349 6.57753 5.41661 6.51975 5.41661C6.38108 5.41661 6.28093 5.35883 6.21931 5.24327L5.84375 4.64816ZM6.93575 11.4602C6.93575 11.3408 6.95694 11.2271 6.99931 11.1193C7.04553 11.0114 7.10716 10.919 7.18419 10.8419C7.26123 10.7649 7.35368 10.7033 7.46153 10.6571C7.56938 10.6108 7.68494 10.5877 7.80819 10.5877C7.93145 10.5877 8.04508 10.6108 8.14908 10.6571C8.25694 10.7033 8.34938 10.7649 8.42642 10.8419C8.5073 10.919 8.57086 11.0114 8.61708 11.1193C8.66331 11.2271 8.68642 11.3408 8.68642 11.4602C8.68642 11.5834 8.66331 11.699 8.61708 11.8068C8.57086 11.9108 8.5073 12.0013 8.42642 12.0784C8.34938 12.1554 8.25694 12.2151 8.14908 12.2575C8.04508 12.3037 7.93145 12.3268 7.80819 12.3268C7.68494 12.3268 7.56938 12.3037 7.46153 12.2575C7.35368 12.2151 7.26123 12.1554 7.18419 12.0784C7.10716 12.0013 7.04553 11.9108 6.99931 11.8068C6.95694 11.699 6.93575 11.5834 6.93575 11.4602Z"/>
    </symbol>
    <symbol id="select-search-icon" viewBox="0 0 16 16">
        <path d="M7.33333 12.6667C10.2789 12.6667 12.6667 10.2789 12.6667 7.33333C12.6667 4.38781 10.2789 2 7.33333 2C4.38781 2 2 4.38781 2 7.33333C2 10.2789 4.38781 12.6667 7.33333 12.6667Z" stroke="#667C9E" stroke-width="2" stroke-linecap="round" stroke-linejoin="round"/>
        <path d="M13.9996 13.9996L11.0996 11.0996" stroke="#667C9E" stroke-width="2" stroke-linecap="round" stroke-linejoin="round"/>
    </symbol>
    <symbol id="table-download-report-icon" viewBox="0 0 16 16">
        <path d="M14 10V12.6667C14 13.0203 13.8595 13.3594 13.6095 13.6095C13.3594 13.8595 13.0203 14 12.6667 14H3.33333C2.97971 14 2.64057 13.8595 2.39052 13.6095C2.14048 13.3594 2 13.0203 2 12.6667V10" stroke-width="2" stroke-linecap="round" stroke-linejoin="round"/>
        <path d="M4.66602 6.66602L7.99935 9.99935L11.3327 6.66602" stroke-width="2" stroke-linecap="round" stroke-linejoin="round"/>
        <path d="M8 10V2" stroke-width="2" stroke-linecap="round" stroke-linejoin="round"/>
    </symbol>
    <symbol id="cross-small" viewBox="0 0 16 16">
        <path d="M12 4L4 12" stroke-width="2" stroke-linecap="round" stroke-linejoin="round"/>
        <path d="M4 4L12 12" stroke-width="2" stroke-linecap="round" stroke-linejoin="round"/>
    </symbol>
    <symbol id="linked-icon" viewBox="0 0 16 16">
        <path d="M5.76131 9.32727C5.41515 8.86296 5.51074 8.20539 5.97467 7.85894C6.4386 7.51249 7.09563 7.60812 7.44179 8.07244C7.55004 8.21768 7.66896 8.34666 7.79506 8.4558C7.92908 8.57207 8.07423 8.67364 8.2253 8.75619C8.37677 8.83873 8.54054 8.90658 8.71104 8.95659L8.7467 8.96771C8.89778 9.00898 9.05877 9.03677 9.2257 9.04828C9.40255 9.06058 9.57981 9.05424 9.7519 9.02964C9.93034 9.00424 10.1008 8.96099 10.2591 8.90225C10.4181 8.84312 10.5762 8.76336 10.7277 8.66573C10.8677 8.57565 11.0045 8.46413 11.1334 8.33515C11.8245 7.69385 12.5473 6.92395 13.219 6.25209C13.4443 6.01835 13.6191 5.74728 13.7345 5.45758C13.8519 5.16352 13.9126 4.84606 13.9098 4.52421C13.9074 4.20713 13.8396 3.89085 13.7159 3.5948C13.5965 3.30907 13.4181 3.04315 13.1889 2.81378L13.1445 2.76657C12.9296 2.56378 12.6778 2.40109 12.4046 2.2864L12.3634 2.26772C12.0806 2.15581 11.7805 2.0951 11.4799 2.09232C11.1584 2.08954 10.8411 2.15025 10.5473 2.26772C10.2578 2.3832 9.98703 2.55821 9.75388 2.78362L8.56312 3.96824C8.15352 4.3758 7.49095 4.3738 7.08372 3.96386C6.6765 3.55392 6.67846 2.8908 7.08806 2.48324L8.30341 1.27401C8.72848 0.862878 9.23088 0.541036 9.77649 0.323167C10.3181 0.106885 10.9026 -0.00461578 11.4966 0.000146395C12.0751 0.00570227 12.6386 0.118795 13.1568 0.327933L13.2159 0.350566C13.7246 0.56407 14.1969 0.873993 14.6057 1.26727L14.6727 1.32877C15.0914 1.74784 15.4217 2.24552 15.6501 2.79079C15.8738 3.32495 15.9951 3.90831 16.0003 4.50755C16.005 5.10203 15.8936 5.68698 15.6775 6.22907C15.4598 6.77513 15.1382 7.27795 14.7274 7.70376C14.0347 8.39706 13.2789 9.10543 12.6171 9.82016C12.3927 10.0448 12.1378 10.2495 11.8586 10.4293C11.5914 10.6011 11.2987 10.7472 10.9886 10.8627C10.6778 10.9785 10.3613 11.0603 10.0469 11.1051C9.7269 11.1512 9.40097 11.1635 9.07821 11.1405C8.77765 11.119 8.47432 11.0646 8.17415 10.9805L8.12102 10.9662C7.81412 10.8762 7.51313 10.7507 7.22525 10.5936C6.93699 10.4356 6.66817 10.2491 6.42629 10.0392C6.17609 9.82212 5.95203 9.58284 5.76131 9.32727V9.32727Z"/>
        <path d="M10.2391 6.67315C10.5852 7.13746 10.4897 7.79504 10.0257 8.14148C9.5618 8.48793 8.90477 8.3923 8.55861 7.92799C8.45036 7.78274 8.3314 7.65376 8.20531 7.54462C8.07128 7.42835 7.92617 7.32674 7.7751 7.2442C7.62363 7.16165 7.45987 7.0938 7.28936 7.0438L7.25366 7.03267C7.10259 6.9914 6.9416 6.96365 6.77466 6.95214C6.59781 6.93984 6.42056 6.94618 6.24807 6.97078C6.06964 6.99618 5.89913 7.03944 5.74092 7.09817C5.58232 7.1573 5.42452 7.23745 5.27265 7.33508C5.13268 7.42477 4.99586 7.53629 4.86699 7.66527L2.73532 9.79755C2.5319 10.0194 2.3733 10.2733 2.26584 10.5428C2.14847 10.8369 2.08781 11.1544 2.09058 11.4762C2.09336 11.7933 2.16078 12.11 2.28489 12.406C2.40385 12.6909 2.58265 12.9576 2.81144 13.1866C3.04063 13.416 3.30633 13.5946 3.59182 13.714C3.88762 13.8378 4.20365 13.9057 4.52047 13.9081C4.84204 13.9108 5.15924 13.8501 5.45306 13.7327C5.73657 13.6196 6.00186 13.4493 6.23224 13.2311L7.42613 12.0322C7.83573 11.6222 8.5003 11.6222 8.9099 12.0322C9.31951 12.4421 9.31951 13.1072 8.9099 13.5172L7.69738 14.7264C7.27192 15.1375 6.76992 15.459 6.22391 15.6772C5.68226 15.8935 5.0978 16.005 4.50381 16.0003C3.90507 15.9951 3.32216 15.8737 2.78844 15.6499C2.24363 15.4213 1.7464 15.0907 1.32767 14.6716C0.909345 14.2529 0.578265 13.7545 0.350663 13.21C0.127026 12.6763 0.00569754 12.0925 0.000146273 11.4929C-0.00461196 10.8984 0.106796 10.3134 0.322899 9.77135C0.530278 9.25148 0.830848 8.77167 1.21309 8.36014L1.28527 8.28038L3.38322 6.18027C3.60844 5.95486 3.86419 5.75009 4.14176 5.57151C4.40901 5.39967 4.70127 5.25361 5.01135 5.13773C5.32222 5.02185 5.63904 4.94012 5.95308 4.89528C6.27387 4.84924 6.59979 4.83691 6.92216 4.85993C7.22272 4.88136 7.52609 4.93574 7.82625 5.01987L7.87938 5.03417C8.18628 5.12426 8.48724 5.24965 8.77511 5.4068C9.06338 5.56474 9.33219 5.75125 9.57407 5.96119C9.82427 6.17826 10.0483 6.41758 10.2391 6.67315V6.67315Z"/>
    </symbol>
    <symbol id="attach-icon" viewBox="0 0 16 16">
        <path d="M12.0538 8.28047L7.93377 12.4071C7.39364 12.8871 6.69053 13.1426 5.96825 13.1214C5.24596 13.1001 4.5591 12.8037 4.04815 12.2928C3.5372 11.7818 3.24077 11.0949 3.21951 10.3727C3.19825 9.65037 3.45375 8.94726 3.93377 8.40713L9.2671 3.0738C9.58552 2.77133 10.0079 2.60269 10.4471 2.60269C10.8863 2.60269 11.3087 2.77133 11.6271 3.0738C11.9373 3.38819 12.1113 3.81211 12.1113 4.2538C12.1113 4.69549 11.9373 5.11941 11.6271 5.4338L7.0271 10.0271C6.98157 10.0762 6.92684 10.1157 6.86602 10.1436C6.8052 10.1715 6.73948 10.1871 6.67262 10.1896C6.60576 10.1921 6.53907 10.1813 6.47636 10.158C6.41364 10.1347 6.35613 10.0993 6.3071 10.0538C6.25807 10.0083 6.21849 9.95354 6.19062 9.89272C6.16275 9.8319 6.14713 9.76618 6.14465 9.69932C6.14217 9.63246 6.15289 9.56577 6.17619 9.50306C6.19948 9.44034 6.23491 9.38283 6.28043 9.3338L9.70043 5.92047C9.82597 5.79493 9.89649 5.62467 9.89649 5.44713C9.89649 5.2696 9.82597 5.09934 9.70043 4.9738C9.5749 4.84826 9.40463 4.77774 9.2271 4.77774C9.04956 4.77774 8.8793 4.84826 8.75377 4.9738L5.33377 8.40047C5.16264 8.57027 5.02681 8.77227 4.93412 8.99481C4.84143 9.21736 4.79371 9.45605 4.79371 9.69713C4.79371 9.93821 4.84143 10.1769 4.93412 10.3995C5.02681 10.622 5.16264 10.824 5.33377 10.9938C5.68335 11.3268 6.14764 11.5125 6.63043 11.5125C7.11323 11.5125 7.57752 11.3268 7.9271 10.9938L12.5204 6.3938C13.0504 5.8251 13.3388 5.07291 13.3251 4.29571C13.3114 3.51851 12.9966 2.77696 12.4469 2.22731C11.8973 1.67766 11.1557 1.36281 10.3785 1.3491C9.60132 1.33539 8.84913 1.62388 8.28043 2.1538L2.9471 7.48713C2.2279 8.28369 1.84378 9.32703 1.87479 10.3998C1.90579 11.4725 2.34952 12.492 3.11352 13.2456C3.87753 13.9993 4.90288 14.4292 5.97596 14.4456C7.04903 14.462 8.08706 14.0638 8.87377 13.3338L13.0004 9.2138C13.0626 9.15164 13.1119 9.07785 13.1455 8.99663C13.1792 8.91542 13.1965 8.82837 13.1965 8.74047C13.1965 8.65256 13.1792 8.56552 13.1455 8.4843C13.1119 8.40309 13.0626 8.32929 13.0004 8.26713C12.9383 8.20497 12.8645 8.15567 12.7833 8.12203C12.7021 8.08839 12.615 8.07107 12.5271 8.07107C12.4392 8.07107 12.3521 8.08839 12.2709 8.12203C12.1897 8.15567 12.1159 8.20497 12.0538 8.26713V8.28047Z"/>
    </symbol>
    <symbol id="print-icon" viewBox="0 0 16 16">
        <path d="M4.66732 6.66634C4.53546 6.66634 4.40657 6.70544 4.29694 6.7787C4.1873 6.85195 4.10186 6.95607 4.0514 7.07789C4.00094 7.1997 3.98774 7.33375 4.01346 7.46307C4.03918 7.59239 4.10268 7.71118 4.19591 7.80441C4.28915 7.89765 4.40794 7.96114 4.53726 7.98687C4.66658 8.01259 4.80062 7.99939 4.92244 7.94893C5.04426 7.89847 5.14838 7.81302 5.22163 7.70339C5.29489 7.59376 5.33398 7.46486 5.33398 7.33301C5.33398 7.1562 5.26375 6.98663 5.13872 6.8616C5.0137 6.73658 4.84413 6.66634 4.66732 6.66634ZM12.6673 3.99967H12.0007V1.99967C12.0007 1.82286 11.9304 1.65329 11.8054 1.52827C11.6804 1.40325 11.5108 1.33301 11.334 1.33301H4.66732C4.49051 1.33301 4.32094 1.40325 4.19591 1.52827C4.07089 1.65329 4.00065 1.82286 4.00065 1.99967V3.99967H3.33398C2.80355 3.99967 2.29484 4.21039 1.91977 4.58546C1.5447 4.96053 1.33398 5.46924 1.33398 5.99967V9.99967C1.33398 10.5301 1.5447 11.0388 1.91977 11.4139C2.29484 11.789 2.80355 11.9997 3.33398 11.9997H4.00065V13.9997C4.00065 14.1765 4.07089 14.3461 4.19591 14.4711C4.32094 14.5961 4.49051 14.6663 4.66732 14.6663H11.334C11.5108 14.6663 11.6804 14.5961 11.8054 14.4711C11.9304 14.3461 12.0007 14.1765 12.0007 13.9997V11.9997H12.6673C13.1978 11.9997 13.7065 11.789 14.0815 11.4139C14.4566 11.0388 14.6673 10.5301 14.6673 9.99967V5.99967C14.6673 5.46924 14.4566 4.96053 14.0815 4.58546C13.7065 4.21039 13.1978 3.99967 12.6673 3.99967ZM5.33398 2.66634H10.6673V3.99967H5.33398V2.66634ZM10.6673 13.333H5.33398V10.6663H10.6673V13.333ZM13.334 9.99967C13.334 10.1765 13.2637 10.3461 13.1387 10.4711C13.0137 10.5961 12.8441 10.6663 12.6673 10.6663H12.0007V9.99967C12.0007 9.82286 11.9304 9.65329 11.8054 9.52827C11.6804 9.40325 11.5108 9.33301 11.334 9.33301H4.66732C4.49051 9.33301 4.32094 9.40325 4.19591 9.52827C4.07089 9.65329 4.00065 9.82286 4.00065 9.99967V10.6663H3.33398C3.15717 10.6663 2.9876 10.5961 2.86258 10.4711C2.73756 10.3461 2.66732 10.1765 2.66732 9.99967V5.99967C2.66732 5.82286 2.73756 5.65329 2.86258 5.52827C2.9876 5.40325 3.15717 5.33301 3.33398 5.33301H12.6673C12.8441 5.33301 13.0137 5.40325 13.1387 5.52827C13.2637 5.65329 13.334 5.82286 13.334 5.99967V9.99967Z"/>
    </symbol>
    <symbol id="tile-delete-cross" viewBox="0 0 16 16">
        <path d="M12 4L4 12" stroke="#667C9E" stroke-linecap="round" stroke-linejoin="round"/>
        <path d="M4 4L12 12" stroke="#667C9E" stroke-linecap="round" stroke-linejoin="round"/>
    </symbol>
    <symbol id="download-file-icon" viewBox="0 0 16 16">
        <path fill-rule="evenodd" clip-rule="evenodd" d="M8.00016 1.33301C8.36835 1.33301 8.66683 1.61016 8.66683 1.95206V8.3902L10.8621 6.19494C11.1224 5.93459 11.5446 5.93459 11.8049 6.19494C12.0653 6.45529 12.0653 6.8774 11.8049 7.13775L8.47157 10.4711C8.21122 10.7314 7.78911 10.7314 7.52876 10.4711L4.19542 7.13775C3.93508 6.8774 3.93508 6.45529 4.19542 6.19494C4.45577 5.93459 4.87788 5.93459 5.13823 6.19494L7.3335 8.3902V1.95206C7.3335 1.61016 7.63197 1.33301 8.00016 1.33301ZM2.66683 9.99967C2.66683 9.63148 2.36835 9.33301 2.00016 9.33301C1.63197 9.33301 1.3335 9.63148 1.3335 9.99967V12.6663C1.3335 13.1968 1.54421 13.7055 1.91928 14.0806C2.29436 14.4556 2.80306 14.6663 3.3335 14.6663H12.6668C13.1973 14.6663 13.706 14.4556 14.081 14.0806C14.4561 13.7055 14.6668 13.1968 14.6668 12.6663V9.99967C14.6668 9.63148 14.3684 9.33301 14.0002 9.33301C13.632 9.33301 13.3335 9.63148 13.3335 9.99967V12.6663C13.3335 12.8432 13.2633 13.0127 13.1382 13.1377C13.0132 13.2628 12.8436 13.333 12.6668 13.333H3.3335C3.15669 13.333 2.98712 13.2628 2.86209 13.1377C2.73707 13.0127 2.66683 12.8432 2.66683 12.6663V9.99967Z" stroke-width="0.5" stroke-linecap="round" stroke-linejoin="round"/>
    </symbol>
    <symbol id="download-file-big-icon" viewBox="0 0 24 24">
        <path fill-rule="evenodd" clip-rule="evenodd" d="M12 2C12.5523 2 13 2.41574 13 2.92857V12.5858L16.2929 9.29289C16.6834 8.90237 17.3166 8.90237 17.7071 9.29289C18.0976 9.68342 18.0976 10.3166 17.7071 10.7071L12.7071 15.7071C12.3166 16.0976 11.6834 16.0976 11.2929 15.7071L6.29289 10.7071C5.90237 10.3166 5.90237 9.68342 6.29289 9.29289C6.68342 8.90237 7.31658 8.90237 7.70711 9.29289L11 12.5858V2.92857C11 2.41574 11.4477 2 12 2ZM4 15C4 14.4477 3.55228 14 3 14C2.44772 14 2 14.4477 2 15V19C2 19.7957 2.31607 20.5587 2.87868 21.1213C3.44129 21.6839 4.20435 22 5 22H19C19.7957 22 20.5587 21.6839 21.1213 21.1213C21.6839 20.5587 22 19.7957 22 19V15C22 14.4477 21.5523 14 21 14C20.4477 14 20 14.4477 20 15V19C20 19.2652 19.8946 19.5196 19.7071 19.7071C19.5196 19.8946 19.2652 20 19 20H5C4.73478 20 4.48043 19.8946 4.29289 19.7071C4.10536 19.5196 4 19.2652 4 19V15Z"/>
    </symbol>
    <symbol id="action-more-icon" viewBox="0 0 24 24">
        <path d="M11.5 4C10.6716 4 10 4.67157 10 5.5C10 6.32843 10.6716 7 11.5 7C12.3284 7 13 6.32843 13 5.5C13 4.67157 12.3284 4 11.5 4Z" fill="#8496B1"/>
        <path d="M11.5 11C10.6716 11 10 11.6716 10 12.5C10 13.3284 10.6716 14 11.5 14C12.3284 14 13 13.3284 13 12.5C13 11.6716 12.3284 11 11.5 11Z" fill="#8496B1"/>
        <path d="M11.5 18C10.6716 18 10 18.6716 10 19.5C10 20.3284 10.6716 21 11.5 21C12.3284 21 13 20.3284 13 19.5C13 18.6716 12.3284 18 11.5 18Z" fill="#8496B1"/>
    </symbol>
    <symbol id="add-file-icon" viewBox="0 0 24 24">
        <path d="M13 20H6C5.73478 20 5.48043 19.8946 5.29289 19.7071C5.10536 19.5196 5 19.2652 5 19V5C5 4.73478 5.10536 4.48043 5.29289 4.29289C5.48043 4.10536 5.73478 4 6 4H11V7C11 7.79565 11.3161 8.55871 11.8787 9.12132C12.4413 9.68393 13.2044 10 14 10H17V12C17 12.2652 17.1054 12.5196 17.2929 12.7071C17.4804 12.8946 17.7348 13 18 13C18.2652 13 18.5196 12.8946 18.7071 12.7071C18.8946 12.5196 19 12.2652 19 12V9C19 9 19 9 19 8.94C18.9896 8.84813 18.9695 8.75763 18.94 8.67V8.58C18.8919 8.47718 18.8278 8.38267 18.75 8.3L12.75 2.3C12.6673 2.22222 12.5728 2.15808 12.47 2.11C12.4402 2.10576 12.4099 2.10576 12.38 2.11C12.2784 2.05174 12.1662 2.01434 12.05 2H6C5.20435 2 4.44129 2.31607 3.87868 2.87868C3.31607 3.44129 3 4.20435 3 5V19C3 19.7956 3.31607 20.5587 3.87868 21.1213C4.44129 21.6839 5.20435 22 6 22H13C13.2652 22 13.5196 21.8946 13.7071 21.7071C13.8946 21.5196 14 21.2652 14 21C14 20.7348 13.8946 20.4804 13.7071 20.2929C13.5196 20.1054 13.2652 20 13 20ZM13 5.41L15.59 8H14C13.7348 8 13.4804 7.89464 13.2929 7.70711C13.1054 7.51957 13 7.26522 13 7V5.41ZM8 8C7.73478 8 7.48043 8.10536 7.29289 8.29289C7.10536 8.48043 7 8.73478 7 9C7 9.26522 7.10536 9.51957 7.29289 9.70711C7.48043 9.89464 7.73478 10 8 10H9C9.26522 10 9.51957 9.89464 9.70711 9.70711C9.89464 9.51957 10 9.26522 10 9C10 8.73478 9.89464 8.48043 9.70711 8.29289C9.51957 8.10536 9.26522 8 9 8H8ZM14 12H8C7.73478 12 7.48043 12.1054 7.29289 12.2929C7.10536 12.4804 7 12.7348 7 13C7 13.2652 7.10536 13.5196 7.29289 13.7071C7.48043 13.8946 7.73478 14 8 14H14C14.2652 14 14.5196 13.8946 14.7071 13.7071C14.8946 13.5196 15 13.2652 15 13C15 12.7348 14.8946 12.4804 14.7071 12.2929C14.5196 12.1054 14.2652 12 14 12ZM20.71 17.29L18.71 15.29C18.6149 15.199 18.5028 15.1276 18.38 15.08C18.1365 14.98 17.8635 14.98 17.62 15.08C17.4972 15.1276 17.3851 15.199 17.29 15.29L15.29 17.29C15.1017 17.4783 14.9959 17.7337 14.9959 18C14.9959 18.2663 15.1017 18.5217 15.29 18.71C15.4783 18.8983 15.7337 19.0041 16 19.0041C16.2663 19.0041 16.5217 18.8983 16.71 18.71L17 18.41V21C17 21.2652 17.1054 21.5196 17.2929 21.7071C17.4804 21.8946 17.7348 22 18 22C18.2652 22 18.5196 21.8946 18.7071 21.7071C18.8946 21.5196 19 21.2652 19 21V18.41L19.29 18.71C19.383 18.8037 19.4936 18.8781 19.6154 18.9289C19.7373 18.9797 19.868 19.0058 20 19.0058C20.132 19.0058 20.2627 18.9797 20.3846 18.9289C20.5064 18.8781 20.617 18.8037 20.71 18.71C20.8037 18.617 20.8781 18.5064 20.9289 18.3846C20.9797 18.2627 21.0058 18.132 21.0058 18C21.0058 17.868 20.9797 17.7373 20.9289 17.6154C20.8781 17.4936 20.8037 17.383 20.71 17.29V17.29ZM12 18C12.2652 18 12.5196 17.8946 12.7071 17.7071C12.8946 17.5196 13 17.2652 13 17C13 16.7348 12.8946 16.4804 12.7071 16.2929C12.5196 16.1054 12.2652 16 12 16H8C7.73478 16 7.48043 16.1054 7.29289 16.2929C7.10536 16.4804 7 16.7348 7 17C7 17.2652 7.10536 17.5196 7.29289 17.7071C7.48043 17.8946 7.73478 18 8 18H12Z"/>
    </symbol>
    <symbol id="letter-attach-default-icon" viewBox="0 0 16 16">
        <path d="M8.66667 13.333H4C3.82319 13.333 3.65362 13.2628 3.5286 13.1377C3.40357 13.0127 3.33333 12.8432 3.33333 12.6663V3.33301C3.33333 3.1562 3.40357 2.98663 3.5286 2.8616C3.65362 2.73658 3.82319 2.66634 4 2.66634H7.33333V4.66634C7.33333 5.19677 7.54405 5.70548 7.91912 6.08055C8.29419 6.45563 8.8029 6.66634 9.33333 6.66634H11.3333V7.99967C11.3333 8.17649 11.4036 8.34606 11.5286 8.47108C11.6536 8.5961 11.8232 8.66634 12 8.66634C12.1768 8.66634 12.3464 8.5961 12.4714 8.47108C12.5964 8.34606 12.6667 8.17649 12.6667 7.99967V5.99967C12.6667 5.99967 12.6667 5.99967 12.6667 5.95967C12.6597 5.89843 12.6463 5.8381 12.6267 5.77967V5.71967C12.5946 5.65113 12.5519 5.58812 12.5 5.53301L8.5 1.53301C8.44489 1.48115 8.38188 1.4384 8.31333 1.40634C8.29343 1.40351 8.27323 1.40351 8.25333 1.40634C8.18561 1.3675 8.11082 1.34257 8.03333 1.33301H4C3.46957 1.33301 2.96086 1.54372 2.58579 1.91879C2.21071 2.29387 2 2.80257 2 3.33301V12.6663C2 13.1968 2.21071 13.7055 2.58579 14.0806C2.96086 14.4556 3.46957 14.6663 4 14.6663H8.66667C8.84348 14.6663 9.01305 14.5961 9.13807 14.4711C9.26309 14.3461 9.33333 14.1765 9.33333 13.9997C9.33333 13.8229 9.26309 13.6533 9.13807 13.5283C9.01305 13.4032 8.84348 13.333 8.66667 13.333ZM8.66667 3.60634L10.3933 5.33301H9.33333C9.15652 5.33301 8.98695 5.26277 8.86193 5.13775C8.7369 5.01272 8.66667 4.84315 8.66667 4.66634V3.60634ZM5.33333 5.33301C5.15652 5.33301 4.98695 5.40325 4.86193 5.52827C4.7369 5.65329 4.66667 5.82286 4.66667 5.99967C4.66667 6.17649 4.7369 6.34605 4.86193 6.47108C4.98695 6.5961 5.15652 6.66634 5.33333 6.66634H6C6.17681 6.66634 6.34638 6.5961 6.4714 6.47108C6.59643 6.34605 6.66667 6.17649 6.66667 5.99967C6.66667 5.82286 6.59643 5.65329 6.4714 5.52827C6.34638 5.40325 6.17681 5.33301 6 5.33301H5.33333ZM9.33333 7.99967H5.33333C5.15652 7.99967 4.98695 8.06991 4.86193 8.19494C4.7369 8.31996 4.66667 8.48953 4.66667 8.66634C4.66667 8.84315 4.7369 9.01272 4.86193 9.13775C4.98695 9.26277 5.15652 9.33301 5.33333 9.33301H9.33333C9.51014 9.33301 9.67971 9.26277 9.80474 9.13775C9.92976 9.01272 10 8.84315 10 8.66634C10 8.48953 9.92976 8.31996 9.80474 8.19494C9.67971 8.06991 9.51014 7.99967 9.33333 7.99967ZM13.8067 11.5263L12.4733 10.193C12.4099 10.1323 12.3352 10.0847 12.2533 10.053C12.091 9.98633 11.909 9.98633 11.7467 10.053C11.6648 10.0847 11.5901 10.1323 11.5267 10.193L10.1933 11.5263C10.0678 11.6519 9.99727 11.8221 9.99727 11.9997C9.99727 12.1772 10.0678 12.3475 10.1933 12.473C10.3189 12.5985 10.4891 12.6691 10.6667 12.6691C10.8442 12.6691 11.0145 12.5985 11.14 12.473L11.3333 12.273V13.9997C11.3333 14.1765 11.4036 14.3461 11.5286 14.4711C11.6536 14.5961 11.8232 14.6663 12 14.6663C12.1768 14.6663 12.3464 14.5961 12.4714 14.4711C12.5964 14.3461 12.6667 14.1765 12.6667 13.9997V12.273L12.86 12.473C12.922 12.5355 12.9957 12.5851 13.0769 12.6189C13.1582 12.6528 13.2453 12.6702 13.3333 12.6702C13.4213 12.6702 13.5085 12.6528 13.5897 12.6189C13.671 12.5851 13.7447 12.5355 13.8067 12.473C13.8692 12.411 13.9187 12.3373 13.9526 12.2561C13.9864 12.1748 14.0039 12.0877 14.0039 11.9997C14.0039 11.9117 13.9864 11.8245 13.9526 11.7433C13.9187 11.6621 13.8692 11.5883 13.8067 11.5263ZM8 11.9997C8.17681 11.9997 8.34638 11.9294 8.4714 11.8044C8.59643 11.6794 8.66667 11.5098 8.66667 11.333C8.66667 11.1562 8.59643 10.9866 8.4714 10.8616C8.34638 10.7366 8.17681 10.6663 8 10.6663H5.33333C5.15652 10.6663 4.98695 10.7366 4.86193 10.8616C4.7369 10.9866 4.66667 11.1562 4.66667 11.333C4.66667 11.5098 4.7369 11.6794 4.86193 11.8044C4.98695 11.9294 5.15652 11.9997 5.33333 11.9997H8Z" fill="#8496B1"/>
    </symbol>
     <symbol id="letter-attach-active-icon" viewBox="0 0 16 16">
        <path d="M7.6665 13.333H3.6665C3.48969 13.333 3.32012 13.2628 3.1951 13.1377C3.07008 13.0127 2.99984 12.8432 2.99984 12.6663V3.33301C2.99984 3.1562 3.07008 2.98663 3.1951 2.8616C3.32012 2.73658 3.48969 2.66634 3.6665 2.66634H6.99984V4.66634C6.99984 5.19677 7.21055 5.70548 7.58562 6.08055C7.9607 6.45563 8.4694 6.66634 8.99984 6.66634H10.9998V9.99967C10.9998 10.1765 11.0701 10.3461 11.1951 10.4711C11.3201 10.5961 11.4897 10.6663 11.6665 10.6663C11.8433 10.6663 12.0129 10.5961 12.1379 10.4711C12.2629 10.3461 12.3332 10.1765 12.3332 9.99967V5.99967C12.3332 5.99967 12.3332 5.99967 12.3332 5.95967C12.3262 5.89843 12.3128 5.8381 12.2932 5.77967V5.71967C12.2611 5.65113 12.2184 5.58812 12.1665 5.53301L8.1665 1.53301C8.11139 1.48115 8.04838 1.4384 7.97984 1.40634C7.95778 1.40248 7.93523 1.40248 7.91317 1.40634C7.84835 1.37168 7.77868 1.34696 7.7065 1.33301H3.6665C3.13607 1.33301 2.62736 1.54372 2.25229 1.91879C1.87722 2.29387 1.6665 2.80257 1.6665 3.33301V12.6663C1.6665 13.1968 1.87722 13.7055 2.25229 14.0806C2.62736 14.4556 3.13607 14.6663 3.6665 14.6663H7.6665C7.84332 14.6663 8.01288 14.5961 8.13791 14.4711C8.26293 14.3461 8.33317 14.1765 8.33317 13.9997C8.33317 13.8229 8.26293 13.6533 8.13791 13.5283C8.01288 13.4032 7.84332 13.333 7.6665 13.333ZM8.33317 3.60634L10.0598 5.33301H8.99984C8.82303 5.33301 8.65346 5.26277 8.52843 5.13775C8.40341 5.01272 8.33317 4.84315 8.33317 4.66634V3.60634ZM4.99984 9.33301H8.99984C9.17665 9.33301 9.34622 9.26277 9.47124 9.13775C9.59627 9.01272 9.6665 8.84315 9.6665 8.66634C9.6665 8.48953 9.59627 8.31996 9.47124 8.19494C9.34622 8.06991 9.17665 7.99967 8.99984 7.99967H4.99984C4.82303 7.99967 4.65346 8.06991 4.52843 8.19494C4.40341 8.31996 4.33317 8.48953 4.33317 8.66634C4.33317 8.84315 4.40341 9.01272 4.52843 9.13775C4.65346 9.26277 4.82303 9.33301 4.99984 9.33301ZM7.6665 10.6663H4.99984C4.82303 10.6663 4.65346 10.7366 4.52843 10.8616C4.40341 10.9866 4.33317 11.1562 4.33317 11.333C4.33317 11.5098 4.40341 11.6794 4.52843 11.8044C4.65346 11.9294 4.82303 11.9997 4.99984 11.9997H7.6665C7.84332 11.9997 8.01288 11.9294 8.13791 11.8044C8.26293 11.6794 8.33317 11.5098 8.33317 11.333C8.33317 11.1562 8.26293 10.9866 8.13791 10.8616C8.01288 10.7366 7.84332 10.6663 7.6665 10.6663ZM4.99984 6.66634H5.6665C5.84332 6.66634 6.01288 6.5961 6.13791 6.47108C6.26293 6.34605 6.33317 6.17649 6.33317 5.99967C6.33317 5.82286 6.26293 5.65329 6.13791 5.52827C6.01288 5.40325 5.84332 5.33301 5.6665 5.33301H4.99984C4.82303 5.33301 4.65346 5.40325 4.52843 5.52827C4.40341 5.65329 4.33317 5.82286 4.33317 5.99967C4.33317 6.17649 4.40341 6.34605 4.52843 6.47108C4.65346 6.5961 4.82303 6.66634 4.99984 6.66634ZM14.1398 10.8597C14.0779 10.7972 14.0041 10.7476 13.9229 10.7137C13.8416 10.6799 13.7545 10.6625 13.6665 10.6625C13.5785 10.6625 13.4914 10.6799 13.4101 10.7137C13.3289 10.7476 13.2551 10.7972 13.1932 10.8597L10.9998 13.0597L10.1398 12.193C10.0777 12.1308 10.0039 12.0815 9.92267 12.0479C9.84146 12.0143 9.75441 11.9969 9.6665 11.9969C9.5786 11.9969 9.49155 12.0143 9.41034 12.0479C9.32912 12.0815 9.25533 12.1308 9.19317 12.193C9.13101 12.2552 9.0817 12.329 9.04806 12.4102C9.01442 12.4914 8.99711 12.5784 8.99711 12.6663C8.99711 12.7542 9.01442 12.8413 9.04806 12.9225C9.0817 13.0037 9.13101 13.0775 9.19317 13.1397L10.5265 14.473C10.5885 14.5355 10.6622 14.5851 10.7435 14.6189C10.8247 14.6528 10.9118 14.6702 10.9998 14.6702C11.0878 14.6702 11.175 14.6528 11.2562 14.6189C11.3375 14.5851 11.4112 14.5355 11.4732 14.473L14.1398 11.8063C14.2023 11.7444 14.2519 11.6706 14.2858 11.5894C14.3196 11.5082 14.337 11.421 14.337 11.333C14.337 11.245 14.3196 11.1579 14.2858 11.0766C14.2519 10.9954 14.2023 10.9217 14.1398 10.8597Z" fill="#157EFB"/>
     </symbol>
     <symbol id="table-arrow-prev-screen" viewBox="0 0 24 24" fill="none">
        <path d="M11 7L6 12L11 17" stroke="#506586" stroke-width="2" stroke-linecap="round" stroke-linejoin="round"/>
        <path d="M18 7L13 12L18 17" stroke="#506586" stroke-width="2" stroke-linecap="round" stroke-linejoin="round"/>
     </symbol>
     <symbol id="table-arrow-prev-step" viewBox="0 0 24 24" fill="none">
        <path d="M15 6L9 12L15 18" stroke="#506586" stroke-width="2" stroke-linecap="round" stroke-linejoin="round"/>
     </symbol>
     <symbol id="table-arrow-next-step" viewBox="0 0 24 24" fill="none">
        <path d="M9 18L15 12L9 6" stroke="#506586" stroke-width="2" stroke-linecap="round" stroke-linejoin="round"/>
     </symbol>
     <symbol id="table-arrow-next-screen" viewBox="0 0 24 24" fill="none">
        <path d="M13 17L18 12L13 7" stroke="#506586" stroke-width="2" stroke-linecap="round" stroke-linejoin="round"/>
        <path d="M6 17L11 12L6 7" stroke="#506586" stroke-width="2" stroke-linecap="round" stroke-linejoin="round"/>
     </symbol>
    <symbol id="letter-edit-contract-icon" viewBox="0 0 22 22" fill="none">
        <path d="M1.5 3C1.5 2.17157 2.17157 1.5 3 1.5H15C15.8284 1.5 16.5 2.17157 16.5 3V17C16.5 17.8284 15.8284 18.5 15 18.5H3C2.17157 18.5 1.5 17.8284 1.5 17V3Z" stroke="#8496B1"/>
        <path fill-rule="evenodd" clip-rule="evenodd" d="M5 3C3.89543 3 3 3.89543 3 5V19C3 20.1046 3.89543 21 5 21H16C17.1046 21 18 20.1046 18 19V5C18 3.89543 17.1046 3 16 3H5ZM5.5 7C5.22386 7 5 7.22386 5 7.5C5 7.77614 5.22386 8 5.5 8H15.5C15.7761 8 16 7.77614 16 7.5C16 7.22386 15.7761 7 15.5 7H5.5ZM5 10.5C5 10.7761 5.22386 11 5.5 11H15.5C15.7761 11 16 10.7761 16 10.5C16 10.2239 15.7761 10 15.5 10H5.5C5.22386 10 5 10.2239 5 10.5ZM5.5 14C5.22386 14 5 13.7761 5 13.5C5 13.2239 5.22386 13 5.5 13H12.5C12.7761 13 13 13.2239 13 13.5C13 13.7761 12.7761 14 12.5 14H5.5Z" fill="#8496B1"/>
    </symbol>
    <symbol id="input-correct-field-icon" viewBox="0 0 16 16">
        <path fill-rule="evenodd" clip-rule="evenodd" d="M8.00008 15.3327C12.0502 15.3327 15.3334 12.0494 15.3334 7.99935C15.3334 3.94926 12.0502 0.666016 8.00008 0.666016C3.94999 0.666016 0.666748 3.94926 0.666748 7.99935C0.666748 12.0494 3.94999 15.3327 8.00008 15.3327ZM11.4916 6.59423C11.7281 6.35343 11.7246 5.96651 11.4838 5.73002C11.2431 5.49353 10.8561 5.49701 10.6196 5.73781L6.85425 9.57166L5.38052 8.07114C5.14403 7.83034 4.75711 7.82686 4.51632 8.06335C4.27552 8.29985 4.27204 8.68677 4.50853 8.92756L6.41825 10.872C6.53316 10.989 6.69026 11.0549 6.85425 11.0549C7.01823 11.0549 7.17534 10.989 7.29024 10.872L11.4916 6.59423Z"/>
    </symbol>
    <symbol id="popup-close-button" viewBox="0 0 16 16" fill="none">
        <path d="M12 4L4 12" stroke-width="2" stroke-linecap="round" stroke-linejoin="round"/>
        <path d="M4 4L12 12" stroke-width="2" stroke-linecap="round" stroke-linejoin="round"/>
    </symbol>
    <symbol id="popup-close-form" viewBox="0 0 24 24" fill="none">
        <path d="M18 6L6 18" stroke-width="2" stroke-linecap="round" stroke-linejoin="round"/>
        <path d="M6 6L18 18" stroke-width="2" stroke-linecap="round" stroke-linejoin="round"/>
    </symbol>
    <symbol id="tippy-dark-icon" viewBox="0 0 16 16">
        <circle cx="8" cy="8" r="8" fill="currentColor"/>
        <path d="M5.75293 4.64816C5.88389 4.53261 6.02641 4.42283 6.18049 4.31883C6.33841 4.21483 6.50789 4.12431 6.68893 4.04727C6.86997 3.97024 7.06641 3.91053 7.27826 3.86816C7.49011 3.82194 7.7193 3.79883 7.96582 3.79883C8.30093 3.79883 8.60523 3.84505 8.87871 3.93749C9.15604 4.02994 9.39293 4.16283 9.58937 4.33616C9.78582 4.50564 9.93797 4.71172 10.0458 4.95438C10.1537 5.19705 10.2076 5.46861 10.2076 5.76905C10.2076 6.06179 10.1652 6.31601 10.0805 6.53172C9.99574 6.74357 9.88982 6.92846 9.76271 7.08638C9.6356 7.24431 9.495 7.38105 9.34093 7.49661C9.19071 7.61216 9.04819 7.72194 8.91337 7.82594C8.77856 7.92609 8.66108 8.02624 8.56093 8.12638C8.46463 8.22268 8.40686 8.33246 8.3876 8.45572L8.25471 9.29927H7.27826L7.18004 8.35749C7.15693 8.17646 7.18197 8.01853 7.25515 7.88372C7.33219 7.74505 7.43234 7.61987 7.5556 7.50816C7.68271 7.39261 7.8233 7.28283 7.97737 7.17883C8.13145 7.07098 8.27589 6.95542 8.41071 6.83216C8.54552 6.70505 8.65723 6.56446 8.74582 6.41038C8.83826 6.25246 8.88448 6.06564 8.88448 5.84994C8.88448 5.71127 8.85752 5.58801 8.8036 5.48016C8.75352 5.36846 8.68226 5.27409 8.58982 5.19705C8.49737 5.11616 8.38567 5.05453 8.25471 5.01216C8.1276 4.96979 7.98893 4.94861 7.83871 4.94861C7.61915 4.94861 7.43234 4.97364 7.27826 5.02372C7.12804 5.06994 6.999 5.12387 6.89115 5.18549C6.78715 5.24327 6.69856 5.2972 6.62537 5.34727C6.55219 5.39349 6.48671 5.41661 6.42893 5.41661C6.29026 5.41661 6.19011 5.35883 6.12848 5.24327L5.75293 4.64816ZM6.84493 11.4602C6.84493 11.3408 6.86611 11.2271 6.90849 11.1193C6.95471 11.0114 7.01634 10.919 7.09337 10.8419C7.17041 10.7649 7.26286 10.7033 7.37071 10.6571C7.47856 10.6108 7.59411 10.5877 7.71737 10.5877C7.84063 10.5877 7.95426 10.6108 8.05826 10.6571C8.16611 10.7033 8.25856 10.7649 8.3356 10.8419C8.41648 10.919 8.48004 11.0114 8.52626 11.1193C8.57248 11.2271 8.5956 11.3408 8.5956 11.4602C8.5956 11.5834 8.57248 11.699 8.52626 11.8068C8.48004 11.9108 8.41648 12.0013 8.3356 12.0784C8.25856 12.1554 8.16611 12.2151 8.05826 12.2575C7.95426 12.3037 7.84063 12.3268 7.71737 12.3268C7.59411 12.3268 7.47856 12.3037 7.37071 12.2575C7.26286 12.2151 7.17041 12.1554 7.09337 12.0784C7.01634 12.0013 6.95471 11.9108 6.90849 11.8068C6.86611 11.699 6.84493 11.5834 6.84493 11.4602Z"/>
    </symbol>
    <symbol id="file-delete-icon" viewBox="0 0 16 16" fill="none">
        <path d="M12 4L4 12" stroke-linecap="round" stroke-linejoin="round"/>
        <path d="M4 4L12 12" stroke-linecap="round" stroke-linejoin="round"/>
    </symbol>
</svg>