<?xml version="1.0" standalone="no"?>
  <!DOCTYPE svg PUBLIC "-//W3C//DTD SVG 1.1//EN" "http://www.w3.org/Graphics/SVG/1.1/DTD/svg11.dtd" >
  <svg>
  <metadata>
  Created by font-carrier
  </metadata>
  <defs>
  <font id="Exo2.0-Thin" horiz-adv-x="2543" vert-adv-y="2543" >
    <font-face
      
      font-family="Exo 2.0 Thin"
      
      font-weight="400"
      
      font-stretch="normal"
      
      units-per-em="2048"
      
      ascent="2028"
      
      descent="-430"
      
    />
      <missing-glyph />

      

      
      <glyph glyph-name="uni21" unicode="&#x21;" d="M285 725L281 416L238 416L233 725L233 1423L285 1423L285 725M250 176L270 176Q295 176 295 152L295 25Q295 0 270 0L250 0Q225 0 225 25L225 152Q225 176 250 176Z"  horiz-adv-x="518" vert-adv-y="2048"  />

      
      <glyph glyph-name="uni22" unicode="&#x22;" d="M229 987L180 987L180 1413L229 1413L229 987M489 987L440 987L440 1413L489 1413L489 987Z"  horiz-adv-x="669" vert-adv-y="2048"  />

      
      <glyph glyph-name="uni23" unicode="&#x23;" d="M1012 963L932 512L1157 512L1149 467L926 467L844 0L793 0L874 467L412 467L330 0L279 0L360 467L123 467L131 512L367 512L446 963L209 963L217 1008L455 1008L524 1413L575 1413L506 1008L969 1008L1038 1413L1090 1413L1020 1008L1243 1008L1235 963L1012 963M961 963L498 963L418 512L881 512L961 963Z"  horiz-adv-x="1366" vert-adv-y="2048"  />

      
      <glyph glyph-name="uni24" unicode="&#x24;" d="M604 733L729 717Q885 698 949.50 614.50Q1014 531 1014 346Q1014 283 1007 233.50Q1000 184 985 146.50Q970 109 951 81.50Q932 54 902 35.50Q872 17 841.50 5.50Q811-6 767-12.50Q723-19 682-21Q641-23 584-23L563-23L549-276L506-276L520-23Q336-19 166 0L172 39Q355 25 522 25L557 690L416 711Q268 728 204.50 813.50Q141 899 141 1073Q141 1137 147 1186.50Q153 1236 167.50 1273.50Q182 1311 199.50 1338Q217 1365 246.50 1383.50Q276 1402 305.50 1412.50Q335 1423 379.50 1428.50Q424 1434 465.50 1435.50Q507 1437 567 1436L598 1436L608 1647L651 1647L641 1434Q814 1427 950 1411L944 1372Q672 1388 637 1389L604 733M594 1389L567 1389Q499 1389 462.50 1387.50Q426 1386 379 1380.50Q332 1375 309 1362Q286 1349 259 1327Q232 1305 220.50 1270.50Q209 1236 201 1187.50Q193 1139 193 1073Q193 918 243.50 847.50Q294 777 416 760L561 739L594 1389M565 25L586 25Q660 26 709 30.50Q758 35 804 47.50Q850 60 877 81.50Q904 103 925 138.50Q946 174 954.50 224.50Q963 275 963 346Q963 458 939.50 524Q916 590 866 623Q816 656 729 668L600 686L565 25Z"  horiz-adv-x="1144" vert-adv-y="2048"  />

      
      <glyph glyph-name="uni25" unicode="&#x25;" d="M194.50 1339Q194.50 1339 229.25 1388.50Q264 1438 432 1438Q600 1438 669.50 1339Q739 1240 739 1020Q739 800 669.50 701Q600 602 432 602Q264 602 194.50 701Q125 800 125 1020Q125 1240 194.50 1339M434 0L385 0L1368 1413L1417 1413L434 0M634 1310.50Q634 1310.50 605 1354.75Q576 1399 432 1399Q288 1399 230 1310.50Q172 1222 172 1020Q172 818 230 729.50Q288 641 432 641Q576 641 634 729.50Q692 818 692 1020Q692 1222 634 1310.50M1138.50 722Q1138.50 722 1173.25 771.50Q1208 821 1376 821Q1544 821 1613.50 722Q1683 623 1683 403Q1683 183 1613.50 84.50Q1544-14 1376-14Q1208-14 1138.50 84.50Q1069 183 1069 403Q1069 623 1138.50 722M1578 693.50Q1578 693.50 1549 737.75Q1520 782 1376 782Q1232 782 1174 693.50Q1116 605 1116 403Q1116 202 1173.50 113.50Q1231 25 1376 25Q1521 25 1578.50 113.50Q1636 202 1636 403Q1636 605 1578 693.50Z"  horiz-adv-x="1808" vert-adv-y="2048"  />

      
      <glyph glyph-name="uni26" unicode="&#x26;" d="M1481 33L1487 0Q1404-12 1313-12Q1200-12 1143.50 41Q1087 94 1087 195L1087 197Q988 80 867 32Q746-16 571-16Q347-16 255.50 65Q164 146 164 356Q164 529 227.50 622.50Q291 716 444 729L444 737Q315 747 260 828.50Q205 910 205 1067Q205 1137 216 1190.50Q227 1244 245.50 1282.50Q264 1321 298.50 1347.50Q333 1374 371.50 1390.50Q410 1407 469.50 1415.50Q529 1424 587.50 1427Q646 1430 731 1430Q903 1430 1057 1413L1049 1376Q991 1382 729 1382Q658 1382 607 1380Q556 1378 507 1372Q458 1366 425 1355.50Q392 1345 362 1328Q332 1311 314 1288Q296 1265 282.50 1232.50Q269 1200 263.50 1159Q258 1118 258 1065Q258 970 276 910.50Q294 851 339 816Q384 781 449 767.50Q514 754 618 754L1087 754L1100 1073L1137 1073L1137 754L1425 754L1419 711L1137 711L1137 197Q1137 116 1179 74.50Q1221 33 1300 33L1481 33M1087 711L618 711Q505 711 432 694.50Q359 678 309 637Q259 596 238 528Q217 460 217 356Q217 171 294 101Q371 31 567 31Q752 31 871.50 86.50Q991 142 1087 266L1087 711Z"  horiz-adv-x="1603" vert-adv-y="2048"  />

      
      <glyph glyph-name="uni27" unicode="&#x27;" d="M229 987L180 987L180 1413L229 1413L229 987Z"  horiz-adv-x="409" vert-adv-y="2048"  />

      
      <glyph glyph-name="uni28" unicode="&#x28;" d="M627 1618L635 1581Q409 1464 302 1235.50Q195 1007 195 641Q195 280 302 51Q409-178 635-301L627-338Q377-220 259 17.50Q141 255 141 639Q141 1026 259 1263.50Q377 1501 627 1618Z"  horiz-adv-x="727" vert-adv-y="2048"  />

      
      <glyph glyph-name="uni29" unicode="&#x29;" d="M92 1581L100 1618Q350 1501 468 1263.50Q586 1026 586 639Q586 255 468 17.50Q350-220 100-338L92-301Q318-178 425 51Q532 280 532 641Q532 1007 425 1235.50Q318 1464 92 1581Z"  horiz-adv-x="727" vert-adv-y="2048"  />

      
      <glyph glyph-name="uni2a" unicode="&#x2a;" d="M479 1100L672 836L635 809L463 1065L293 811L254 838L446 1100L440 1413L489 1413L479 1100M414 1122L412 1104L403 1087L147 1167L164 1212L414 1122M782 1163L522 1087L514 1104L514 1122L766 1208L782 1163Z"  horiz-adv-x="927" vert-adv-y="2048"  />

      
      <glyph glyph-name="uni2b" unicode="&#x2b;" d="M993 586L588 586L588 203L545 203L545 586L139 586L139 631L543 631L543 1014L590 1014L590 631L993 631L993 586Z"  horiz-adv-x="1132" vert-adv-y="2048"  />

      
      <glyph glyph-name="uni2c" unicode="&#x2c;" d="M205 176L223 176Q248 176 248 152L248 20Q244-125 211-240L186-229Q195-106 195 0Q188 0 183.50 6Q179 12 182 20L182 152Q179 176 205 176Z"  horiz-adv-x="425" vert-adv-y="2048"  />

      
      <glyph glyph-name="uni2d" unicode="&#x2d;" d="M813 492L176 492L176 537L813 537L813 492Z"  horiz-adv-x="989" vert-adv-y="2048"  />

      
      <glyph glyph-name="uni2e" unicode="&#x2e;" d="M201 176L221 176Q246 176 246 152L246 25Q246 0 221 0L201 0Q176 0 176 25L176 152Q176 176 201 176Z"  horiz-adv-x="421" vert-adv-y="2048"  />

      
      <glyph glyph-name="uni2f" unicode="&#x2f;" d="M129-121L78-121L883 1413L934 1413L129-121Z"  horiz-adv-x="1011" vert-adv-y="2048"  />

      
      <glyph glyph-name="uni30" unicode="&#x30;" d="M257 1264.50Q257 1264.50 306.50 1351.25Q356 1438 598 1438Q840 1438 939 1264.50Q1038 1091 1038 707Q1038 323 939 149Q840-25 598-25Q356-25 257 149Q158 323 158 707Q158 1091 257 1264.50M898 1229Q898 1229 854.50 1310Q811 1391 598 1391Q385 1391 298 1229Q211 1067 211 707Q211 347 298 185Q385 23 598 23Q811 23 898 185Q985 347 985 707Q985 1067 898 1229Z"  horiz-adv-x="1196" vert-adv-y="2048"  />

      
      <glyph glyph-name="uni31" unicode="&#x31;" d="M514 0L463 0L463 1266Q463 1314 469 1360L86 1231L76 1264L463 1413L514 1413L514 0Z"  horiz-adv-x="774" vert-adv-y="2048"  />

      
      <glyph glyph-name="uni32" unicode="&#x32;" d="M152 1346L139 1382Q278 1416 363.50 1427Q449 1438 541 1438Q626 1438 685 1432Q744 1426 798 1408Q852 1390 883.50 1359Q915 1328 933.50 1277.50Q952 1227 952 1155Q952 1018 886.50 895Q821 772 668 594L193 45L438 45L1016 45L1016 0L127 0L127 29Q127 44 137 57L629 625Q775 795 838 920.50Q901 1046 897 1171Q895 1229 876.50 1270Q858 1311 830.50 1334.50Q803 1358 756.50 1371Q710 1384 664.50 1387.50Q619 1391 551 1391Q364 1391 152 1346Z"  horiz-adv-x="1140" vert-adv-y="2048"  />

      
      <glyph glyph-name="uni33" unicode="&#x33;" d="M160 1366L145 1403Q341 1438 506 1438Q742 1438 835 1367.50Q928 1297 928 1112Q928 802 705 756L705 748Q777 737 828 705.50Q879 674 908.50 625.50Q938 577 951.50 520.50Q965 464 967 393Q972 178 874.50 76.50Q777-25 545-25Q384-25 125 10L137 47Q371 23 541 23Q740 23 827.50 108Q915 193 915 393Q915 448 907 493Q899 538 876 583Q853 628 815 658.50Q777 689 713.50 708.50Q650 728 565 729L301 729L301 766L565 772Q647 774 707 797.50Q767 821 799 854Q831 887 850 935.50Q869 984 874 1023Q879 1062 879 1110Q875 1273 795 1332Q715 1391 508 1391Q352 1391 160 1366Z"  horiz-adv-x="1130" vert-adv-y="2048"  />

      
      <glyph glyph-name="uni34" unicode="&#x34;" d="M1106 410L938 403L938 0L887 0L887 401L215 401Q152 401 121 452.50Q90 504 121 561L578 1413L631 1413L168 547Q148 510 167 478Q186 446 227 446L887 446L887 907L901 1147L938 1147L938 446L1106 446L1106 410Z"  horiz-adv-x="1218" vert-adv-y="2048"  />

      
      <glyph glyph-name="uni35" unicode="&#x35;" d="M891 1368L258 1368L233 825L346 825Q429 824 489.50 820.50Q550 817 611 808.50Q672 800 714 786.50Q756 773 795.50 751.50Q835 730 859.50 700Q884 670 903 629Q922 588 930 535.50Q938 483 938 416Q938 363 934.50 321.50Q931 280 920 232.50Q909 185 890.50 149.50Q872 114 839.50 79.50Q807 45 762 23.50Q717 2 652-11.50Q587-25 506-25Q340-25 133 33L145 70Q347 20 502 20Q599 20 669 39.50Q739 59 781 91.50Q823 124 847.50 176.50Q872 229 880.50 284.50Q889 340 889 416Q889 490 876.50 544.50Q864 599 843.50 638.50Q823 678 779.50 703.50Q736 729 692.50 744.50Q649 760 571.50 768Q494 776 424 778Q354 780 240 780L211 780Q199 780 191 788.50Q183 797 184 809L213 1413L897 1413L891 1368Z"  horiz-adv-x="1077" vert-adv-y="2048"  />

      
      <glyph glyph-name="uni36" unicode="&#x36;" d="M928 1413L911 1376Q827 1391 684 1391Q607 1391 552 1383.50Q497 1376 446.50 1358Q396 1340 362 1306Q328 1272 300 1221Q272 1170 256 1095.50Q240 1021 230.50 924Q221 827 219 698Q312 814 403.50 858.50Q495 903 635 903Q853 903 935.50 798.50Q1018 694 1018 422Q1018 330 1009.50 267Q1001 204 975.50 145Q950 86 904.50 51Q859 16 783.50-4.50Q708-25 600-25Q519-25 458-13.50Q397-2 350.50 20Q304 42 272.50 81Q241 120 219.50 167.50Q198 215 186.50 286Q175 357 170.50 434Q166 511 166 618Q166 772 175.50 888.50Q185 1005 202.50 1093Q220 1181 252 1241Q284 1301 322 1340Q360 1379 417.50 1400.50Q475 1422 536.50 1430Q598 1438 684 1438Q830 1438 928 1413M602 20Q696 20 762 38.50Q828 57 867.50 88.50Q907 120 929.50 174Q952 228 959.50 286Q967 344 967 428Q967 549 952.50 626.50Q938 704 899.50 758Q861 812 796.50 835Q732 858 631 858Q508 858 415.50 814.50Q323 771 219 651L219 612Q219 515 222.50 446.50Q226 378 235.50 311.50Q245 245 262.50 202Q280 159 308 121.50Q336 84 377 63.50Q418 43 473.50 31.50Q529 20 602 20Z"  horiz-adv-x="1155" vert-adv-y="2048"  />

      
      <glyph glyph-name="uni37" unicode="&#x37;" d="M98 1413L870 1413Q920 1413 934 1394Q948 1375 932 1329L469 0L418 0L866 1290Q870 1303 879.50 1328.50Q889 1354 893 1368L102 1368L98 1413Z"  horiz-adv-x="1034" vert-adv-y="2048"  />

      
      <glyph glyph-name="uni38" unicode="&#x38;" d="M406 729L406 737Q300 749 251.50 828Q203 907 203 1061Q203 1160 222 1226.50Q241 1293 289 1340Q337 1387 419.50 1408.50Q502 1430 627 1430Q753 1431 835.50 1410Q918 1389 965 1341Q1012 1293 1030.50 1227Q1049 1161 1049 1061Q1049 907 1000.50 828Q952 749 846 737L846 729Q972 716 1024.50 626.50Q1077 537 1077 352Q1077 268 1065 210.50Q1053 153 1024 108Q995 63 943 37.50Q891 12 814.50-1.50Q738-15 627-16Q448-17 349.50 20.50Q251 58 212.50 135.50Q174 213 174 352Q174 536 227 626Q280 716 406 729M627 1382Q513 1382 441.50 1366Q370 1350 328 1310Q286 1270 270 1212Q254 1154 254 1061Q254 993 260.50 946.50Q267 900 285 865Q303 830 328 809.50Q353 789 398.50 776.50Q444 764 496.50 760Q549 756 629 756Q710 756 764 760Q818 764 861.50 777.50Q905 791 929 811Q953 831 969.50 867Q986 903 991.50 948Q997 993 997 1061Q997 1155 982 1212.50Q967 1270 926 1310Q885 1350 813.50 1366Q742 1382 627 1382M629 711Q541 710 484.50 705.50Q428 701 379 686Q330 671 303.50 647.50Q277 624 257.50 582.50Q238 541 231.50 486.50Q225 432 225 352Q225 262 242.50 204Q260 146 305.50 106Q351 66 428.50 49.50Q506 33 627 33Q750 33 827 49.50Q904 66 948.50 106.50Q993 147 1009.50 204Q1026 261 1026 352Q1026 433 1019.50 488Q1013 543 993.50 584.50Q974 626 947.50 649.50Q921 673 873 687.50Q825 702 769.50 706.50Q714 711 629 711Z"  horiz-adv-x="1251" vert-adv-y="2048"  />

      
      <glyph glyph-name="uni39" unicode="&#x39;" d="M209 0L225 37Q343 23 465 23Q524 23 569 27Q614 31 658 41Q702 51 734 68.50Q766 86 796 112.50Q826 139 846.50 177.50Q867 216 883.50 267Q900 318 910 384Q920 450 925 532Q930 614 930 715Q837 599 745.50 554.50Q654 510 516 510Q311 510 224 624Q137 738 137 971Q137 1086 155.50 1167.50Q174 1249 220 1312.50Q266 1376 348.50 1407Q431 1438 553 1438Q629 1438 686 1430.50Q743 1423 788 1402Q833 1381 864 1355.50Q895 1330 917.50 1283Q940 1236 952.50 1188.50Q965 1141 972 1063Q979 985 981 911Q983 837 983 725Q983 562 971 444Q959 326 930 242.50Q901 159 862.50 107Q824 55 762 25.50Q700-4 631.50-14.50Q563-25 465-25Q315-25 209 0M520 555Q642 555 734 599Q826 643 930 762Q930 841 929 894.50Q928 948 924.50 1008Q921 1068 915.50 1106.50Q910 1145 899.50 1187Q889 1229 874.50 1254.50Q860 1280 839 1306Q818 1332 791 1346Q764 1360 728.50 1372Q693 1384 650 1388.50Q607 1393 553 1393Q444 1393 371 1364.50Q298 1336 258.50 1278Q219 1220 203.50 1146Q188 1072 188 967Q188 760 261.50 657.50Q335 555 520 555Z"  horiz-adv-x="1157" vert-adv-y="2048"  />

      
      <glyph glyph-name="uni3a" unicode="&#x3a;" d="M201 881L221 881Q246 881 246 856L246 729Q246 705 221 705L201 705Q176 705 176 729L176 856Q176 881 201 881M201 176L221 176Q246 176 246 152L246 25Q246 0 221 0L201 0Q176 0 176 25L176 152Q176 176 201 176Z"  horiz-adv-x="421" vert-adv-y="2048"  />

      
      <glyph glyph-name="uni3b" unicode="&#x3b;" d="M201 881L221 881Q246 881 246 856L246 729Q246 705 221 705L201 705Q176 705 176 729L176 856Q176 881 201 881M205 176L223 176Q248 176 248 152L248 20Q244-125 211-240L186-229Q195-106 195 0Q188 0 183.50 6Q179 12 182 20L182 152Q179 176 205 176Z"  horiz-adv-x="425" vert-adv-y="2048"  />

      
      <glyph glyph-name="uni3c" unicode="&#x3c;" d="M938 956L182 604L938 264L938 219L133 582L133 627L938 1001L938 956Z"  horiz-adv-x="1107" vert-adv-y="2048"  />

      
      <glyph glyph-name="uni3d" unicode="&#x3d;" d="M1030 788L176 788L176 834L1030 834L1030 788M1030 354L176 354L176 399L1030 399L1030 354Z"  horiz-adv-x="1206" vert-adv-y="2048"  />

      
      <glyph glyph-name="uni3e" unicode="&#x3e;" d="M975 627L975 582L170 219L170 264L926 604L170 956L170 1001L975 627Z"  horiz-adv-x="1107" vert-adv-y="2048"  />

      
      <glyph glyph-name="uni3f" unicode="&#x3f;" d="M113 1384L102 1421Q121 1424 171.50 1432Q222 1440 243 1443Q264 1446 309 1450.50Q354 1455 403.50 1456.50Q453 1458 518 1458Q920 1458 920 1141Q920 1078 898.50 1022Q877 966 842.50 923Q808 880 766.50 838.50Q725 797 683.50 754Q642 711 607.50 664Q573 617 551.50 553Q530 489 530 416L481 416Q481 497 502.50 565.50Q524 634 558 683Q592 732 633.50 776Q675 820 716 859.50Q757 899 791 939Q825 979 846.50 1030.50Q868 1082 868 1141Q868 1281 783 1347Q698 1413 518 1413Q480 1413 445.50 1412.50Q411 1412 387.50 1411.50Q364 1411 333.50 1408.50Q303 1406 290.50 1405.50Q278 1405 246 1401Q214 1397 206.50 1396Q199 1395 160 1390Q121 1385 113 1384M494 176L514 176Q539 176 539 152L539 25Q539 0 514 0L494 0Q469 0 469 25L469 152Q469 176 494 176Z"  horiz-adv-x="1038" vert-adv-y="2048"  />

      
      <glyph glyph-name="uni40" unicode="&#x40;" d="M690 1161L977 1161Q1245 1161 1245 922L1245 264L1210 264L1200 430Q1127 366 991 310Q855 254 727 254Q607 254 540 310.50Q473 367 473 469L473 580Q473 676 534.50 728Q596 780 707 780L1200 780L1200 922Q1200 1119 975 1116L692 1116Q626 1116 583 1115Q540 1114 493.50 1108.50Q447 1103 419.50 1095Q392 1087 362.50 1070Q333 1053 317.50 1032.50Q302 1012 286 978Q270 944 263.50 905.50Q257 867 251 810Q245 753 243.50 691Q242 629 242 543Q242 453 243.50 390Q245 327 251.50 267Q258 207 264.50 168Q271 129 288.50 93Q306 57 322.50 36.50Q339 16 371.50-2.50Q404-21 434.50-29Q465-37 517-43Q569-49 617.50-50Q666-51 741-51L1235-51L1235-90Q989-96 743-96Q644-98 576.50-95Q509-92 448-79.50Q387-67 350.50-49.50Q314-32 282.50 5.50Q251 43 236 85Q221 127 210 199Q199 271 196 348Q193 425 193 541Q193 652 195.50 726Q198 800 208 869Q218 938 231.50 978.50Q245 1019 273.50 1055.50Q302 1092 335 1109Q368 1126 423.50 1139.50Q479 1153 539.50 1156.50Q600 1160 690 1161M1200 745L707 737Q617 734 569.50 694Q522 654 522 580L522 471Q522 388 573.50 344.50Q625 301 725 299Q838 298 973.50 349Q1109 400 1200 473L1200 745Z"  horiz-adv-x="1419" vert-adv-y="2048"  />

      
      <glyph glyph-name="uni41" unicode="&#x41;" d="M954 516L281 516L94 0L39 0L547 1395Q553 1413 573 1413L662 1413Q682 1413 688 1395L1196 0L1141 0L954 516M938 561L688 1253L647 1368L588 1368L547 1253L297 561L938 561Z"  horiz-adv-x="1234" vert-adv-y="2048"  />

      
      <glyph glyph-name="uni42" unicode="&#x42;" d="M823 737L823 729Q975 716 1039.50 622.50Q1104 529 1104 352Q1104 242 1082 171.50Q1060 101 1006 59Q952 17 873 0.50Q794-16 670-16Q377-16 211 0L211 1413Q365 1430 608 1430Q738 1430 821 1413.50Q904 1397 960 1354.50Q1016 1312 1039.50 1241.50Q1063 1171 1063 1061Q1063 907 1005.50 828Q948 749 823 737M262 754L649 754Q752 755 817.50 768Q883 781 928 816Q973 851 991.50 909.50Q1010 968 1010 1061Q1010 1160 989.50 1222Q969 1284 918.50 1320Q868 1356 796 1369Q724 1382 608 1382Q384 1382 262 1378L262 754M262 711L262 35Q406 31 670 31Q780 31 848.50 44Q917 57 965 93Q1013 129 1032 191Q1051 253 1051 352Q1051 458 1030.50 526Q1010 594 960 635Q910 676 837 692.50Q764 709 649 711L262 711Z"  horiz-adv-x="1253" vert-adv-y="2048"  />

      
      <glyph glyph-name="uni43" unicode="&#x43;" d="M1051 49L1063 12Q902-25 678-25Q482-25 369.50 46.50Q257 118 206.50 275.50Q156 433 156 707Q156 871 173.50 990Q191 1109 228 1196.50Q265 1284 327 1336.50Q389 1389 474.50 1413.50Q560 1438 678 1438Q886 1438 1034 1403L1022 1366Q862 1391 678 1391Q501 1391 400.50 1325Q300 1259 254.50 1112Q209 965 209 707Q209 449 254.50 302Q300 155 400.50 89Q501 23 678 23Q898 23 1051 49Z"  horiz-adv-x="1148" vert-adv-y="2048"  />

      
      <glyph glyph-name="uni44" unicode="&#x44;" d="M211 0L211 1413Q467 1432 680 1432Q872 1432 983 1360.50Q1094 1289 1144 1133Q1194 977 1194 707Q1194 437 1144 281Q1094 125 983 53.50Q872-18 680-18Q458-18 211 0M262 1376L262 35Q631 29 680 29Q852 29 951.50 94.50Q1051 160 1096 306.50Q1141 453 1141 707Q1141 961 1096 1107Q1051 1253 952 1318.50Q853 1384 680 1384Q512 1384 262 1376Z"  horiz-adv-x="1349" vert-adv-y="2048"  />

      
      <glyph glyph-name="uni45" unicode="&#x45;" d="M1006 45L1010 8Q809 0 408 0Q317 0 258 59Q199 118 199 209L199 1204Q199 1295 258 1354Q317 1413 408 1413Q809 1413 1010 1405L1006 1368L418 1368Q344 1368 297 1321Q250 1274 250 1200L250 778L922 778L922 735L250 735L250 213Q250 140 297 92.50Q344 45 418 45L1006 45Z"  horiz-adv-x="1128" vert-adv-y="2048"  />

      
      <glyph glyph-name="uni46" unicode="&#x46;" d="M997 1368L424 1368Q350 1368 303 1321Q256 1274 256 1200L256 770L913 770L913 727L256 727L256 0L205 0L205 1204Q205 1295 264 1354Q323 1413 414 1413Q804 1413 1001 1405L997 1368Z"  horiz-adv-x="1085" vert-adv-y="2048"  />

      
      <glyph glyph-name="uni47" unicode="&#x47;" d="M1108 819L1108 0L1073 0L1061 182Q868-25 623-25Q373-25 264.50 147.50Q156 320 156 707Q156 912 183 1049Q210 1186 273.50 1274Q337 1362 436 1400Q535 1438 684 1438Q916 1438 1085 1403L1073 1366Q894 1391 684 1391Q505 1391 402.50 1325Q300 1259 254.50 1112Q209 965 209 707Q209 344 305.50 183.50Q402 23 627 23Q676 23 720 30.50Q764 38 805.50 56.50Q847 75 875.50 89Q904 103 943.50 134Q983 165 1000 179Q1017 193 1057 229L1057 819L1108 819Z"  horiz-adv-x="1273" vert-adv-y="2048"  />

      
      <glyph glyph-name="uni48" unicode="&#x48;" d="M1135 1413L1135 0L1083 0L1083 735L262 735L262 0L211 0L211 1413L262 1413L262 780L1083 780L1083 1413L1135 1413Z"  horiz-adv-x="1345" vert-adv-y="2048"  />

      
      <glyph glyph-name="uni49" unicode="&#x49;" d="M262 0L211 0L211 1413L262 1413L262 0Z"  horiz-adv-x="473" vert-adv-y="2048"  />

      
      <glyph glyph-name="uni4a" unicode="&#x4a;" d="M459 1413L459 236Q459-15 209-12Q152-12 78 0L84 33L203 33Q408 33 408 238L408 1413L459 1413Z"  horiz-adv-x="663" vert-adv-y="2048"  />

      
      <glyph glyph-name="uni4b" unicode="&#x4b;" d="M489 715L256 715Q260 652 260 539L260 0L211 0L211 1413L260 1413L260 930Q260 882 256 760L489 760L987 1413L1049 1413L575 788Q555 759 530 739L530 735Q567 698 575 688L1083 0L1022 0L489 715Z"  horiz-adv-x="1150" vert-adv-y="2048"  />

      
      <glyph glyph-name="uni4c" unicode="&#x4c;" d="M256 1413L256 213Q256 140 303 92.50Q350 45 424 45L981 45L981 8Q793 0 414 0Q323 0 264 59Q205 118 205 209L205 1413L256 1413Z"  horiz-adv-x="1038" vert-adv-y="2048"  />

      
      <glyph glyph-name="uni4d" unicode="&#x4d;" d="M1391 1413L1477 1413Q1490 1413 1498.50 1404.50Q1507 1396 1507 1382L1569 0L1518 0L1456 1368L1407 1368L944 141Q938 123 918 123L831 123Q811 123 805 141L342 1368L293 1368L231 0L180 0L242 1382Q242 1396 250.50 1404.50Q259 1413 272 1413L358 1413Q379 1413 385 1395L776 360Q788 329 811.50 264Q835 199 848 168L901 168L975 365L1364 1395Q1370 1413 1391 1413Z"  horiz-adv-x="1748" vert-adv-y="2048"  />

      
      <glyph glyph-name="uni4e" unicode="&#x4e;" d="M1198 1413L1198 31Q1198 0 1167 0L1081 0Q1056 0 1044 23L389 1229Q376 1253 351 1299Q326 1345 313 1368L262 1368L262 1227L262 0L211 0L211 1382Q211 1413 242 1413L322 1413Q347 1413 358 1391L999 211L1090 45L1147 45L1147 229L1147 1413L1198 1413Z"  horiz-adv-x="1409" vert-adv-y="2048"  />

      
      <glyph glyph-name="uni4f" unicode="&#x4f;" d="M474.50 1413.50Q474.50 1413.50 517.25 1425.75Q560 1438 678 1438Q796 1438 881.50 1413.50Q967 1389 1029 1336.50Q1091 1284 1128 1196.50Q1165 1109 1182.50 990Q1200 871 1200 707Q1200 433 1149.50 275.50Q1099 118 986.50 46.50Q874-25 678-25Q482-25 369.50 46.50Q257 118 206.50 275.50Q156 433 156 707Q156 871 173.50 990Q191 1109 228 1196.50Q265 1284 327 1336.50Q389 1389 474.50 1413.50M955.50 1325Q955.50 1325 905.25 1358Q855 1391 678 1391Q501 1391 400.50 1325Q300 1259 254.50 1112Q209 965 209 707Q209 449 254.50 302Q300 155 400.50 89Q501 23 678 23Q855 23 955.50 89Q1056 155 1101.50 302Q1147 449 1147 707Q1147 965 1101.50 1112Q1056 1259 955.50 1325Z"  horiz-adv-x="1355" vert-adv-y="2048"  />

      
      <glyph glyph-name="uni50" unicode="&#x50;" d="M211 0L211 1413Q385 1430 664 1430Q780 1430 854.50 1411Q929 1392 979 1343.50Q1029 1295 1050 1216Q1071 1137 1071 1014Q1071 890 1050 810.50Q1029 731 979 683Q929 635 854.50 616.50Q780 598 664 598Q402 598 262 606L262 0L211 0M262 645L664 645Q766 647 830 663Q894 679 938 721Q982 763 1000 833Q1018 903 1018 1014Q1018 1125 1000 1195.50Q982 1266 938 1308Q894 1350 829.50 1366Q765 1382 664 1382Q402 1382 262 1378L262 645Z"  horiz-adv-x="1189" vert-adv-y="2048"  />

      
      <glyph glyph-name="uni51" unicode="&#x51;" d="M474.50 1413.50Q474.50 1413.50 517.25 1425.75Q560 1438 678 1438Q796 1438 881.50 1413.50Q967 1389 1029 1336.50Q1091 1284 1128 1196.50Q1165 1109 1182.50 990Q1200 871 1200 707Q1200 433 1149.50 275.50Q1099 118 986.50 46.50Q874-25 678-25Q482-25 369.50 46.50Q257 118 206.50 275.50Q156 433 156 707Q156 871 173.50 990Q191 1109 228 1196.50Q265 1284 327 1336.50Q389 1389 474.50 1413.50M955.50 1325Q955.50 1325 905.25 1358Q855 1391 678 1391Q501 1391 400.50 1325Q300 1259 254.50 1112Q209 965 209 707Q209 449 254.50 302Q300 155 400.50 89Q501 23 678 23Q855 23 955.50 89Q1056 155 1101.50 302Q1147 449 1147 707Q1147 965 1101.50 1112Q1056 1259 955.50 1325M586-133L610-104Q794-234 1069-279L1055-330Q778-291 586-133Z"  horiz-adv-x="1355" vert-adv-y="2048"  />

      
      <glyph glyph-name="uni52" unicode="&#x52;" d="M1122 0L1065 0L913 446Q879 546 822.50 590.50Q766 635 682 635Q402 635 262 643L262 0L211 0L211 1413Q385 1430 664 1430Q780 1430 854.50 1412Q929 1394 979 1348Q1029 1302 1050 1226.50Q1071 1151 1071 1032Q1071 844 1010 760Q949 676 811 655L811 647Q910 615 967 453L1122 0M262 682L664 682Q765 684 829.50 700Q894 716 938 756Q982 796 1000 862Q1018 928 1018 1032Q1018 1138 1000 1205Q982 1272 938 1311.50Q894 1351 829.50 1366.50Q765 1382 664 1382Q402 1382 262 1378L262 682Z"  horiz-adv-x="1243" vert-adv-y="2048"  />

      
      <glyph glyph-name="uni53" unicode="&#x53;" d="M723 668L410 711Q262 728 198.50 813.50Q135 899 135 1073Q135 1137 141 1186.50Q147 1236 161.50 1273.50Q176 1311 193.50 1338Q211 1365 240.50 1383.50Q270 1402 299.50 1412.50Q329 1423 373.50 1428.50Q418 1434 459.50 1435.50Q501 1437 561 1436Q750 1433 944 1411L938 1372Q677 1389 561 1389Q514 1389 486.50 1388.50Q459 1388 422 1386Q385 1384 364 1379.50Q343 1375 316 1367Q289 1359 274.50 1347Q260 1335 242.50 1317.50Q225 1300 217 1277.50Q209 1255 200.50 1224.50Q192 1194 189 1156.50Q186 1119 186 1073Q186 918 237 847.50Q288 777 410 760L723 717Q879 698 943.50 614.50Q1008 531 1008 346Q1008 283 1001 233.50Q994 184 979 146.50Q964 109 945 81.50Q926 54 896 35.50Q866 17 835.50 5.50Q805-6 761-12.50Q717-19 676-21Q635-23 578-23Q360-23 160 0L166 39Q379 22 580 25Q654 26 703 30.50Q752 35 798 47.50Q844 60 870.50 81.50Q897 103 918 138.50Q939 174 947.50 224.50Q956 275 956 346Q956 511 904 581Q852 651 723 668Z"  horiz-adv-x="1134" vert-adv-y="2048"  />

      
      <glyph glyph-name="uni54" unicode="&#x54;" d="M1100 1368L602 1368L602 0L551 0L551 1368L55 1368L55 1413L1100 1413L1100 1368Z"  horiz-adv-x="1155" vert-adv-y="2048"  />

      
      <glyph glyph-name="uni55" unicode="&#x55;" d="M1165 1413L1165 522Q1165 226 1056 100.50Q947-25 684-25Q420-25 310.50 100.50Q201 226 201 522L201 1413L252 1413L252 522Q252 247 349.50 135Q447 23 684 23Q919 23 1016.50 135Q1114 247 1114 522L1114 1413L1165 1413Z"  horiz-adv-x="1366" vert-adv-y="2048"  />

      
      <glyph glyph-name="uni56" unicode="&#x56;" d="M1159 1413L676 18Q669 0 649 0L563 0Q544 0 537 18L53 1413L109 1413L526 197Q565 87 578 45L635 45Q662 130 686 199L1104 1413L1159 1413Z"  horiz-adv-x="1212" vert-adv-y="2048"  />

      
      <glyph glyph-name="uni57" unicode="&#x57;" d="M1837 1413L1462 20Q1455 0 1434 0L1348 0Q1326 0 1319 23L1018 1210L977 1368L928 1368L887 1210L586 23Q579 0 557 0L471 0Q449 0 442 20L68 1413L121 1413L449 186L485 45L543 45L578 184L885 1391Q891 1413 913 1413L991 1413Q1014 1413 1020 1391L1327 186Q1333 162 1344.50 115Q1356 68 1362 45L1419 45L1456 184L1784 1413L1837 1413Z"  horiz-adv-x="1904" vert-adv-y="2048"  />

      
      <glyph glyph-name="uni58" unicode="&#x58;" d="M639 717L575 717L139 0L78 0L526 737L104 1413L166 1413L573 762L641 762L1049 1413L1110 1413L688 737L1137 0L1075 0L639 717Z"  horiz-adv-x="1214" vert-adv-y="2048"  />

      
      <glyph glyph-name="uni59" unicode="&#x59;" d="M580 526L580 0L528 0L528 526L45 1413L102 1413L471 731Q539 610 549 592L559 592Q632 724 635 729L1004 1413L1061 1413L580 526Z"  horiz-adv-x="1107" vert-adv-y="2048"  />

      
      <glyph glyph-name="uni5a" unicode="&#x5a;" d="M1038 47L1038 0L106 0L106 47L969 1366L113 1366L113 1413L1028 1413L1028 1366L166 47L1038 47Z"  horiz-adv-x="1142" vert-adv-y="2048"  />

      
      <glyph glyph-name="uni5b" unicode="&#x5b;" d="M537 1528L291 1528Q280 1528 273 1521Q266 1514 266 1503L266-268Q266-278 273-285.50Q280-293 291-293L537-293L537-338L281-338Q253-338 235-320Q217-302 217-274L217 1509Q217 1537 235 1555Q253 1573 281 1573L537 1573L537 1528Z"  horiz-adv-x="638" vert-adv-y="2048"  />

      
      <glyph glyph-name="uni5c" unicode="&#x5c;" d="M934-121L883-121L78 1413L129 1413L934-121Z"  horiz-adv-x="1011" vert-adv-y="2048"  />

      
      <glyph glyph-name="uni5d" unicode="&#x5d;" d="M102 1573L358 1573Q386 1573 404 1555Q422 1537 422 1509L422-274Q422-302 404-320Q386-338 358-338L102-338L102-293L348-293Q358-293 365.50-285.50Q373-278 373-268L373 1503Q373 1514 365.50 1521Q358 1528 348 1528L102 1528L102 1573Z"  horiz-adv-x="638" vert-adv-y="2048"  />

      
      <glyph glyph-name="uni5e" unicode="&#x5e;" d="M741 774L717 750L410 1122L393 1122L88 750L61 774L383 1178L420 1178L741 774Z"  horiz-adv-x="802" vert-adv-y="2048"  />

      
      <glyph glyph-name="uni5f" unicode="&#x5f;" d="M1044-45L162-45L162 0L1044 0L1044-45Z"  horiz-adv-x="1206" vert-adv-y="2048"  />

      
      <glyph glyph-name="uni60" unicode="&#x60;" d="M444 1153L416 1126L102 1415L139 1450L444 1153Z"  horiz-adv-x="567" vert-adv-y="2048"  />

      
      <glyph glyph-name="uni61" unicode="&#x61;" d="M180 928L174 965Q191 967 250 976Q309 985 339.50 988.50Q370 992 424 997.50Q478 1003 531 1005.50Q584 1008 643 1008Q915 1008 915 733L915 0L879 0L868 190Q796 116 658.50 52Q521-12 391-12Q269-12 202 52.50Q135 117 135 236L135 362Q135 472 197 533Q259 594 371 594L866 594L866 733Q866 961 641 961Q446 961 180 928M186 362L186 236Q186 40 391 37Q504 34 641 94.50Q778 155 866 240L866 553L371 545Q280 544 233 497Q186 450 186 362Z"  horiz-adv-x="1101" vert-adv-y="2048"  />

      
      <glyph glyph-name="uni62" unicode="&#x62;" d="M238 1434L238 989Q238 854 231 799Q347 902 446.50 955Q546 1008 643 1008Q836 1008 917.50 890Q999 772 999 492Q999 212 908 93.50Q817-25 602-25Q426-25 188 39L188 1434L238 1434M238 756L238 74Q422 23 602 23Q789 23 868.50 129.50Q948 236 948 492Q948 749 878 855Q808 961 643 961Q551 961 460.50 913Q370 865 238 756Z"  horiz-adv-x="1142" vert-adv-y="2048"  />

      
      <glyph glyph-name="uni63" unicode="&#x63;" d="M881 47L889 10Q732-25 592-25Q345-25 243 91.50Q141 208 141 492Q141 775 243 891.50Q345 1008 590 1008Q755 1008 866 973L854 936Q754 961 598 961Q445 961 359.50 919Q274 877 233.50 775.50Q193 674 193 492Q193 310 233.50 208.50Q274 107 359.50 65Q445 23 598 23Q761 23 881 47Z"  horiz-adv-x="978" vert-adv-y="2048"  />

      
      <glyph glyph-name="uni64" unicode="&#x64;" d="M954 1434L954 0L918 0L909 172Q797 72 699 23.50Q601-25 502-25Q309-25 227 93.50Q145 212 145 492Q145 772 226.50 890Q308 1008 502 1008Q674 1008 911 905Q905 959 905 1096L905 1434L954 1434M905 219L905 862Q774 915 684 938Q594 961 502 961Q337 961 267 855Q197 749 197 492Q197 235 267 129Q337 23 502 23Q597 23 688 68.50Q779 114 905 219Z"  horiz-adv-x="1148" vert-adv-y="2048"  />

      
      <glyph glyph-name="uni65" unicode="&#x65;" d="M739 465L193 465Q199 222 291 122.50Q383 23 586 23Q755 23 920 49L928 12Q880-3 771-14Q662-25 580-25Q346-25 243.50 95.50Q141 216 141 496Q141 777 237.50 892.50Q334 1008 563 1008Q944 1008 950 729Q953 594 904.50 529.50Q856 465 739 465M193 510L739 510Q827 510 864.50 563.50Q902 617 899 725Q896 847 813.50 904Q731 961 565 961Q362 961 278 859Q194 757 193 510Z"  horiz-adv-x="1079" vert-adv-y="2048"  />

      
      <glyph glyph-name="uni66" unicode="&#x66;" d="M748 1417L522 1417Q399 1417 349 1366.50Q299 1316 299 1190L299 983L664 983L664 938L299 938L299 0L250 0L250 938L72 938L72 973L250 983L250 1190Q250 1329 309 1395.50Q368 1462 506 1462Q655 1462 748 1454L748 1417Z"  horiz-adv-x="724" vert-adv-y="2048"  />

      
      <glyph glyph-name="uni67" unicode="&#x67;" d="M1051 946L840 940Q940 867 940 702Q940 547 849 474Q758 401 551 401Q389 401 299 444Q264 406 248.50 365Q233 324 239 286.50Q245 249 282 219.50Q319 190 385 178L780 109Q905 87 949 28.50Q993-30 993-152Q993-308 894.50-371Q796-434 561-434Q316-434 216.50-371Q117-308 117-152Q117-41 143.50 21.50Q170 84 250 127L299 154Q229 182 203 239.50Q177 297 196.50 358Q216 419 268 463Q158 532 158 702Q158 857 250.50 932.50Q343 1008 551 1008Q667 1008 750 983L1057 983L1051 946M813 507.50Q813 507.50 852 538.25Q891 569 891 702Q891 835 813 899Q735 963 551 963Q367 963 287 899Q207 835 207 702Q207 569 287 507.50Q367 446 551 446Q735 446 813 507.50M352 139L283 96Q212 55 189 2Q166-51 166-152Q166-282 255-334.50Q344-387 561-387Q770-387 857-334.50Q944-282 944-152Q944-49 908-1Q872 47 766 66L358 137L352 139Z"  horiz-adv-x="1116" vert-adv-y="2048"  />

      
      <glyph glyph-name="uni68" unicode="&#x68;" d="M246 1434L246 993Q246 872 236 803Q510 1008 715 1008Q845 1008 912 939.50Q979 871 979 739L979 0L930 0L930 733Q930 850 874.50 905.50Q819 961 705 961Q600 961 496.50 914Q393 867 242 760L242 0L193 0L193 1434L246 1434Z"  horiz-adv-x="1165" vert-adv-y="2048"  />

      
      <glyph glyph-name="uni69" unicode="&#x69;" d="M215 1391L236 1391Q260 1391 260 1366L260 1239Q260 1214 236 1214L215 1214Q190 1214 190 1239L190 1366Q190 1391 215 1391M250 0L201 0L201 983L250 983L250 0Z"  horiz-adv-x="450" vert-adv-y="2048"  />

      
      <glyph glyph-name="uni6a" unicode="&#x6a;" d="M215 1391L236 1391Q260 1391 260 1366L260 1239Q260 1214 236 1214L215 1214Q190 1214 190 1239L190 1366Q190 1391 215 1391M250 983L250-94Q250-279 115-430L88-410Q145-336 173-262Q201-188 201-94L201 983L250 983Z"  horiz-adv-x="450" vert-adv-y="2048"  />

      
      <glyph glyph-name="uni6b" unicode="&#x6b;" d="M408 541L238 541Q242 478 242 362L242 0L193 0L193 1434L246 1434L246 754Q246 665 238 586L408 586L803 983L868 983L498 604Q469 575 451 563L451 559Q486 524 498 508L901 0L838 0L408 541Z"  horiz-adv-x="968" vert-adv-y="2048"  />

      
      <glyph glyph-name="uni6c" unicode="&#x6c;" d="M244 1434L244 197Q244 118 287 75.50Q330 33 408 33L526 33L532 0Q492-12 401-12Q306-12 250.50 42.50Q195 97 195 195L195 1434L244 1434Z"  horiz-adv-x="552" vert-adv-y="2048"  />

      
      <glyph glyph-name="uni6d" unicode="&#x6d;" d="M231 983L238 803Q472 1008 676 1008Q783 1008 847 956.50Q911 905 926 805Q1158 1008 1362 1008Q1485 1008 1550.50 939.50Q1616 871 1616 739L1616 0L1567 0L1567 733Q1567 961 1352 961Q1256 961 1162.50 914Q1069 867 930 760L930 739L930 0L881 0L881 733Q881 961 666 961Q570 961 476.50 914Q383 867 244 760L244 0L195 0L195 983L231 983Z"  horiz-adv-x="1802" vert-adv-y="2048"  />

      
      <glyph glyph-name="uni6e" unicode="&#x6e;" d="M231 983L238 803Q496 1008 717 1008Q847 1008 914 939.50Q981 871 981 739L981 0L932 0L932 733Q932 850 876.50 905.50Q821 961 707 961Q602 961 498.50 914Q395 867 244 760L244 0L195 0L195 983L231 983Z"  horiz-adv-x="1167" vert-adv-y="2048"  />

      
      <glyph glyph-name="uni6f" unicode="&#x6f;" d="M239 892.50Q239 892.50 287 950.25Q335 1008 573 1008Q811 1008 907.50 892Q1004 776 1004 492Q1004 208 907.50 91.50Q811-25 573-25Q336-25 239.50 91Q143 207 143 492Q143 777 239 892.50M868 858.50Q868 858.50 826 909.75Q784 961 573 961Q362 961 278.50 858.50Q195 756 195 492Q195 228 278.50 125.50Q362 23 573 23Q784 23 868 125.50Q952 228 952 492Q952 756 868 858.50Z"  horiz-adv-x="1146" vert-adv-y="2048"  />

      
      <glyph glyph-name="uni70" unicode="&#x70;" d="M231 983L240 805Q351 908 449 958Q547 1008 647 1008Q841 1008 922.50 890Q1004 772 1004 492Q1004 212 922 93.50Q840-25 647-25Q464-25 238 84Q244 31 244-104L244-430L195-430L195 983L231 983M244 762L244 121Q374 69 464 46Q554 23 647 23Q812 23 882 129Q952 235 952 492Q952 749 882 855Q812 961 647 961Q552 961 461 915Q370 869 244 762Z"  horiz-adv-x="1148" vert-adv-y="2048"  />

      
      <glyph glyph-name="uni71" unicode="&#x71;" d="M905-430L905-20Q905 123 911 170Q783 68 685.50 21.50Q588-25 479-25Q302-25 222.50 99Q143 223 143 492Q143 774 235 891Q327 1008 549 1008Q716 1008 954 944L954-430L905-430M905 213L905 909Q710 961 557 961Q357 961 276 857.50Q195 754 195 489Q195 239 263 131Q331 23 487 23Q589 23 680 67Q771 111 905 213Z"  horiz-adv-x="1144" vert-adv-y="2048"  />

      
      <glyph glyph-name="uni72" unicode="&#x72;" d="M737 1008L727 961L692 961Q593 961 493.50 913.50Q394 866 244 760L244 0L195 0L195 983L231 983L238 803Q499 1008 698 1008L737 1008Z"  horiz-adv-x="784" vert-adv-y="2048"  />

      
      <glyph glyph-name="uni73" unicode="&#x73;" d="M672 453L340 494Q233 506 180 565.50Q127 625 127 748Q127 794 132.50 830.50Q138 867 149.50 894Q161 921 178 940.50Q195 960 218 972.50Q241 985 269 993Q297 1001 331 1004Q365 1007 404.50 1008Q444 1009 489 1008Q682 1005 870 983L864 946Q646 960 489 963Q434 964 389.50 963Q345 962 310.50 956Q276 950 250.50 936.50Q225 923 208.50 899Q192 875 184 838Q176 801 176 748Q176 644 216.50 597.50Q257 551 340 541L672 500Q895 472 895 250Q895 176 877.50 125.50Q860 75 831.50 46Q803 17 750 1.50Q697-14 644.50-18.50Q592-23 508-23Q324-23 152 0L158 37Q337 20 510 23Q591 24 640.50 29Q690 34 733.50 47.50Q777 61 799.50 86Q822 111 834 151Q846 191 846 250Q846 350 800 396.50Q754 443 672 453Z"  horiz-adv-x="1021" vert-adv-y="2048"  />

      
      <glyph glyph-name="uni74" unicode="&#x74;" d="M297 938L297 197Q297 116 339.50 74.50Q382 33 461 33L641 33L647 0Q564-12 473-12Q248-12 248 195L248 938L70 938L70 973L248 983L248 1292L297 1292L297 983L662 983L662 938L297 938Z"  horiz-adv-x="710" vert-adv-y="2048"  />

      
      <glyph glyph-name="uni75" unicode="&#x75;" d="M952 983L952 0L915 0L909 180Q663-25 451-25Q321-25 253.50 43.50Q186 112 186 244L186 983L236 983L236 250Q236 134 291 78.50Q346 23 461 23Q562 23 660.50 70Q759 117 903 223L903 983L952 983Z"  horiz-adv-x="1146" vert-adv-y="2048"  />

      
      <glyph glyph-name="uni76" unicode="&#x76;" d="M977 983L573 16Q563 0 547 0L492 0Q475 0 465 16L61 983L115 983L428 231Q441 201 467 138Q493 75 506 45L532 45L612 233L924 983L977 983Z"  horiz-adv-x="1038" vert-adv-y="2048"  />

      
      <glyph glyph-name="uni77" unicode="&#x77;" d="M1593 983L1251 18Q1245 0 1225 0L1171 0Q1152 0 1145 18L889 791Q881 815 865.50 864Q850 913 842 938L821 938L772 791L518 18Q511 0 492 0L438 0Q418 0 412 18L70 983L123 983L406 176Q414 155 428.50 111Q443 67 451 45L479 45L522 178L780 965Q787 983 807 983L856 983Q876 983 883 965L1141 178L1184 45L1212 45Q1220 68 1234.50 111.50Q1249 155 1257 178L1540 983L1593 983Z"  horiz-adv-x="1662" vert-adv-y="2048"  />

      
      <glyph glyph-name="uni78" unicode="&#x78;" d="M541 492L494 492L135 0L74 0L446 512L100 983L162 983L489 537L545 537L872 983L934 983L588 512L961 0L899 0L541 492Z"  horiz-adv-x="1034" vert-adv-y="2048"  />

      
      <glyph glyph-name="uni79" unicode="&#x79;" d="M977 983L524-96Q494-165 468.50-211Q443-257 406-303Q369-349 320-380Q271-411 207-430L195-401Q308-357 371-279Q434-201 481-78L512 0L492 0Q475 0 465 16L61 983L115 983L461 152L506 45L532 45L578 156L924 983L977 983Z"  horiz-adv-x="1036" vert-adv-y="2048"  />

      
      <glyph glyph-name="uni7a" unicode="&#x7a;" d="M913 45L913 0L109 0L109 45L844 938L115 938L115 983L907 983L907 938L172 45L913 45Z"  horiz-adv-x="1021" vert-adv-y="2048"  />

      
      <glyph glyph-name="uni7b" unicode="&#x7b;" d="M508 1573L508 1536Q390 1536 343.50 1482.50Q297 1429 297 1315L297 895Q297 811 282.50 768.50Q268 726 237.50 707Q207 688 141 672Q211 648 242.50 627Q274 606 289.50 567.50Q305 529 305 457L305-80Q305-193 351.50-247Q398-301 516-301L516-338Q376-338 316-277.50Q256-217 256-80L256 477Q256 519 249.50 544.50Q243 570 225 586.50Q207 603 186 613Q165 623 127 637Q119 639 115 641L115 702Q193 726 210 737Q241 759 246 822Q248 843 248 874L248 1315Q248 1452 308 1512.50Q368 1573 508 1573Z"  horiz-adv-x="610" vert-adv-y="2048"  />

      
      <glyph glyph-name="uni7c" unicode="&#x7c;" d="M262-346L217-346L217 1599L262 1599L262-346Z"  horiz-adv-x="479" vert-adv-y="2048"  />

      
      <glyph glyph-name="uni7d" unicode="&#x7d;" d="M102 1536L102 1573Q242 1573 302 1512.50Q362 1452 362 1315L362 874Q362 780 382.50 755Q403 730 480 707Q490 704 496 702L496 641Q416 611 396 596Q356 566 354 488Q354 483 354 477L354-80Q354-217 294-277.50Q234-338 94-338L94-301Q212-301 258.50-247Q305-193 305-80L305 457Q305 529 320.50 567.50Q336 606 367.50 627Q399 648 469 672Q403 688 372.50 707Q342 726 327.50 768.50Q313 811 313 895L313 1315Q313 1429 266.50 1482.50Q220 1536 102 1536Z"  horiz-adv-x="610" vert-adv-y="2048"  />

      
      <glyph glyph-name="uni7e" unicode="&#x7e;" d="M213 494L178 494Q175 586 217 634Q259 682 332 676Q391 673 449 651.50Q507 630 547 606.50Q587 583 645 561.50Q703 540 762 537Q825 533 853 563.50Q881 594 881 666L915 666Q918 578 876.50 532Q835 486 762 492Q692 495 629.50 516.50Q567 538 528.50 561.50Q490 585 437.50 606.50Q385 628 332 631Q270 637 241.50 603.50Q213 570 213 494Z"  horiz-adv-x="1091" vert-adv-y="2048"  />

      
      <glyph glyph-name="unia1" unicode="&#xa1;" d="M229 983L250 983Q274 983 274 958L274 831Q274 807 250 807L229 807Q205 807 205 831L205 958Q205 983 229 983M264 258L264-420L213-420L213 258L217 567L260 567L264 258Z"  horiz-adv-x="477" vert-adv-y="2048"  />

      
      <glyph glyph-name="unia2" unicode="&#xa2;" d="M881 272L889 236Q732 201 592 201L553 201L539 0L496 0L510 205Q311 222 226 339.50Q141 457 141 717Q141 998 241.50 1114.50Q342 1231 582 1233L594 1413L637 1413L625 1233Q766 1229 866 1198L854 1161Q773 1182 621 1186L557 248L598 248Q761 248 881 272M514 252L578 1186Q434 1184 352 1140.50Q270 1097 231.50 996Q193 895 193 717Q193 474 265.50 370.50Q338 267 514 252Z"  horiz-adv-x="1032" vert-adv-y="2048"  />

      
      <glyph glyph-name="unia3" unicode="&#xa3;" d="M1026 45L1026 0L147 0L147 45Q250 110 285.50 220Q321 330 313 498L303 723L133 723L133 764L301 764L287 1079Q284 1147 292 1200.50Q300 1254 315 1291.50Q330 1329 357 1355.50Q384 1382 412.50 1397.50Q441 1413 483 1422Q525 1431 563.50 1433.50Q602 1436 655 1436Q784 1436 975 1415L969 1378Q804 1391 608 1391Q451 1391 390.50 1319.50Q330 1248 336 1085L350 764L864 764L860 723L352 723L362 498Q369 329 339.50 218.50Q310 108 213 45L336 45L1026 45Z"  horiz-adv-x="1146" vert-adv-y="2048"  />

      
      <glyph glyph-name="unia4" unicode="&#xa4;" d="M1030 276L874 432Q766 332 614 332Q464 332 352 430L201 276L170 305L324 459Q223 575 223 721Q223 871 324 983L172 1135L201 1165L352 1014Q464 1112 614 1112Q762 1112 877 1012L1030 1165L1059 1135L905 983Q1004 869 1004 721Q1004 573 903 461L1061 305L1030 276M614 373Q707 372 787 418.50Q867 465 914 545.50Q961 626 961 721Q961 866 859 968.50Q757 1071 614 1071Q469 1071 367.50 968.50Q266 866 266 721Q266 576 368 474Q470 372 614 373Z"  horiz-adv-x="1232" vert-adv-y="2048"  />

      
      <glyph glyph-name="unia5" unicode="&#xa5;" d="M664 627L1047 627L1047 586L641 586L641 401L1047 401L1047 360L641 360L641 0L590 0L590 360L195 360L195 401L590 401L590 586L195 586L195 627L567 627L106 1413L164 1413L526 793L610 651L621 651Q637 677 667 729.50Q697 782 702 791L1065 1413L1122 1413L664 627Z"  horiz-adv-x="1232" vert-adv-y="2048"  />

      
      <glyph glyph-name="unia6" unicode="&#xa6;" d="M264 780L219 780L219 1599L264 1599L264 780M264-346L219-346L219 473L264 473L264-346Z"  horiz-adv-x="483" vert-adv-y="2048"  />

      
      <glyph glyph-name="unia7" unicode="&#xa7;" d="M758 686L365 911Q246 979 199 1047Q152 1115 152 1214Q152 1272 169 1313Q186 1354 214.50 1378.50Q243 1403 291 1416.50Q339 1430 390 1434.50Q441 1439 514 1438Q754 1435 956 1413L950 1376Q690 1391 514 1393Q461 1394 428 1392.50Q395 1391 354.50 1386Q314 1381 290.50 1369.50Q267 1358 244.50 1338.50Q222 1319 212.50 1288Q203 1257 203 1214Q203 1127 244.50 1069.50Q286 1012 365 967L758 743Q883 672 919 568.50Q955 465 936 291L891 291Q909 439 878 537Q847 635 758 686M176 852L221 852Q203 703 232 609.50Q261 516 354 463L750 240Q865 175 913 104.50Q961 34 961-66Q961-113 950.50-149.50Q940-186 924.50-210.50Q909-235 880.50-251.50Q852-268 826-276.50Q800-285 757-289.50Q714-294 682-295Q650-296 598-295Q412-292 156-270L162-233Q464-248 598-250Q636-250 670.50-250Q705-250 736.50-246.50Q768-243 794.50-237Q821-231 842-217.50Q863-204 878-184.50Q893-165 901-135Q909-105 909-66Q909 95 748 184L356 406Q231 476 194.50 578.50Q158 681 176 852Z"  horiz-adv-x="1112" vert-adv-y="2048"  />

      
      <glyph glyph-name="unia8" unicode="&#xa8;" d="M217 1378L238 1378Q258 1378 258 1356L258 1241Q258 1219 238 1219L217 1219Q197 1219 197 1241L197 1356Q197 1378 217 1378M580 1378L600 1378Q621 1378 621 1356L621 1241Q621 1219 600 1219L580 1219Q559 1219 559 1241L559 1356Q559 1378 580 1378Z"  horiz-adv-x="817" vert-adv-y="2048"  />

      
      <glyph glyph-name="unia9" unicode="&#xa9;" d="M879 1438Q1029 1438 1164 1383Q1299 1328 1397 1232Q1495 1136 1552.50 999.50Q1610 863 1610 707Q1610 551 1552.50 414Q1495 277 1397 181.50Q1299 86 1164 30.50Q1029-25 879-25Q730-25 595 30.50Q460 86 361.50 181.50Q263 277 205 414Q147 551 147 707Q147 914 245.50 1082.50Q344 1251 511.50 1344.50Q679 1438 879 1438M879 1395Q739 1395 612.50 1343Q486 1291 393 1200.50Q300 1110 245 981.50Q190 853 190 707Q190 513 283.50 354Q377 195 534.50 106.50Q692 18 879 18Q1019 18 1146 70.50Q1273 123 1365.50 213.50Q1458 304 1512.50 432.50Q1567 561 1567 707Q1567 901 1474.50 1059.50Q1382 1218 1224.50 1306.50Q1067 1395 879 1395M1176 295L1184 262Q1061 238 889 238Q668 238 578.50 345Q489 452 489 713Q489 974 578.50 1081Q668 1188 889 1188Q1050 1188 1161 1163L1151 1133Q1045 1145 889 1145Q692 1145 613.50 1049.50Q535 954 535 713Q535 472 613.50 375.50Q692 279 889 279Q1067 279 1176 295Z"  horiz-adv-x="1757" vert-adv-y="2048"  />

      
      <glyph glyph-name="uniaa" unicode="&#xaa;" d="M197 1167L190 1200Q202 1202 245 1207.50Q288 1213 310 1215.50Q332 1218 371 1222Q410 1226 448.50 1227.50Q487 1229 528 1229Q727 1229 727 1040L727 553L692 553L684 682Q631 631 535 588Q439 545 346 545Q258 545 210 588.50Q162 632 162 713L162 797Q162 871 206.50 911.50Q251 952 334 952L682 952L682 1040Q682 1188 524 1188Q375 1188 197 1167M209 797L209 715Q209 589 352 586Q432 585 526 623Q620 661 682 717L682 920L338 913Q209 910 209 797Z"  horiz-adv-x="909" vert-adv-y="2048"  />

      
      <glyph glyph-name="uniab" unicode="&#xab;" d="M463 909L160 514L465 115L440 94L104 506L104 522L438 930L463 909M786 909L483 514L788 115L764 94L428 506L428 522L762 930L786 909Z"  horiz-adv-x="925" vert-adv-y="2048"  />

      
      <glyph glyph-name="uniac" unicode="&#xac;" d="M1030 629L1030 264L983 264L983 584L176 584L176 629L1030 629Z"  horiz-adv-x="1214" vert-adv-y="2048"  />

      
      <glyph glyph-name="uniad" unicode="&#xad;" d="M813 492L176 492L176 537L813 537L813 492Z"  horiz-adv-x="989" vert-adv-y="2048"  />

      
      <glyph glyph-name="uniae" unicode="&#xae;" d="M596 1436Q785 1436 918 1303Q1051 1170 1051 981Q1051 791 918 657.50Q785 524 596 524Q406 524 272.50 657Q139 790 139 981Q139 1170 272.50 1303Q406 1436 596 1436M596 557Q768 557 891 681Q1014 805 1014 981Q1014 1155 891 1279Q768 1403 596 1403Q423 1403 299.50 1279.50Q176 1156 176 981Q176 865 232.50 767.50Q289 670 385.50 613.50Q482 557 596 557M696 956L696 952Q722 948 743 926.50Q764 905 776 872L852 688L811 688L737 868Q705 944 627 944Q574 944 506.50 945Q439 946 426 946L426 688L389 688L389 1268Q463 1274 618 1274Q734 1274 780.50 1239Q827 1204 827 1110Q827 1036 796.50 1000.50Q766 965 696 956M426 973L618 973Q714 975 752.50 1003.50Q791 1032 791 1108Q791 1187 753 1214Q715 1241 618 1241Q465 1241 426 1239L426 973Z"  horiz-adv-x="1189" vert-adv-y="2048"  />

      
      <glyph glyph-name="uniaf" unicode="&#xaf;" d="M676 1280L143 1280L143 1327L676 1327L676 1280Z"  horiz-adv-x="819" vert-adv-y="2048"  />

      
      <glyph glyph-name="unib0" unicode="&#xb0;" d="M393 1438Q496 1438 570.50 1363.50Q645 1289 645 1186Q645 1082 570.50 1007Q496 932 393 932Q289 932 214 1007Q139 1082 139 1186Q139 1289 214 1363.50Q289 1438 393 1438M393 1397Q304 1397 242 1335.50Q180 1274 180 1186Q180 1100 242.50 1036.50Q305 973 393 973Q480 973 542 1036.50Q604 1100 604 1186Q604 1274 542.50 1335.50Q481 1397 393 1397Z"  horiz-adv-x="784" vert-adv-y="2048"  />

      
      <glyph glyph-name="unib1" unicode="&#xb1;" d="M1040 733L1040 688L635 688L635 387L592 387L592 688L186 688L186 733L590 733L590 1034L637 1034L637 733L1040 733M186 238L1040 238L1040 193L186 193L186 238Z"  horiz-adv-x="1226" vert-adv-y="2048"  />

      
      <glyph glyph-name="unib2" unicode="&#xb2;" d="M166 1534L158 1567Q303 1599 430 1599Q575 1599 641 1564.50Q707 1530 707 1427Q707 1346 664 1274Q621 1202 518 1096L205 776L369 776L750 776L750 737L150 737L150 762Q150 772 158 784L481 1114Q578 1215 620 1289Q662 1363 659 1434Q658 1468 646 1491.50Q634 1515 616.50 1528.50Q599 1542 568.50 1549.50Q538 1557 508 1559Q478 1561 434 1561Q303 1561 166 1534Z"  horiz-adv-x="903" vert-adv-y="2048"  />

      
      <glyph glyph-name="unib3" unicode="&#xb3;" d="M172 1546L164 1579Q287 1599 408 1599Q570 1599 633 1557Q696 1515 696 1405Q696 1216 543 1190L543 1186Q716 1162 719 973Q722 844 656 783.50Q590 723 432 723Q330 723 150 743L158 776Q298 762 428 762Q559 762 616.50 810.50Q674 859 674 975Q674 1016 664.50 1048Q655 1080 631 1108.50Q607 1137 559.50 1152.50Q512 1168 444 1169L268 1169L268 1200L444 1204Q511 1205 556 1224Q601 1243 620.50 1275Q640 1307 646.50 1335Q653 1363 653 1399Q652 1493 599 1527Q546 1561 408 1561Q290 1561 172 1546Z"  horiz-adv-x="868" vert-adv-y="2048"  />

      
      <glyph glyph-name="unib4" unicode="&#xb4;" d="M465 1415L152 1126L123 1153L428 1450L465 1415Z"  horiz-adv-x="567" vert-adv-y="2048"  />

      
      <glyph glyph-name="unib6" unicode="&#xb6;" d="M586-430L586 412Q331 435 221 553Q111 671 111 922Q111 1205 251 1321.50Q391 1438 723 1438Q888 1438 999 1403L999 0L948 0L948 1372Q796 1391 637 1391L637-430L586-430Z"  horiz-adv-x="1222" vert-adv-y="2048"  />

      
      <glyph glyph-name="unib7" unicode="&#xb7;" d="M201 614L221 614Q246 614 246 590L246 463Q246 438 221 438L201 438Q176 438 176 463L176 590Q176 614 201 614Z"  horiz-adv-x="421" vert-adv-y="2048"  />

      
      <glyph glyph-name="unib8" unicode="&#xb8;" d="M205-129L211-100Q374-91 371-233Q369-339 291-402.50Q213-466 86-449L94-418Q199-422 262.50-367.50Q326-313 326-233Q326-176 299.50-153.50Q273-131 205-129Z"  horiz-adv-x="448" vert-adv-y="2048"  />

      
      <glyph glyph-name="unib9" unicode="&#xb9;" d="M399 737L356 737L356 1481Q356 1522 360 1542L106 1466L98 1495L356 1585L399 1585L399 737Z"  horiz-adv-x="585" vert-adv-y="2048"  />

      
      <glyph glyph-name="uniba" unicode="&#xba;" d="M459 1229Q629 1229 697.50 1151.50Q766 1074 766 883Q766 692 697.50 614.50Q629 537 459 537Q290 537 222 614.50Q154 692 154 883Q154 1074 222 1151.50Q290 1229 459 1229M660 1123Q660 1123 631.50 1156.50Q603 1190 459 1190Q315 1190 258 1123Q201 1056 201 883Q201 711 258 644.50Q315 578 459 578Q603 578 660 644.50Q717 711 717 883Q717 1056 660 1123Z"  horiz-adv-x="919" vert-adv-y="2048"  />

      
      <glyph glyph-name="unibb" unicode="&#xbb;" d="M498 522L498 506L162 94L137 115L442 514L139 909L164 930L498 522M821 522L821 506L485 94L461 115L766 514L463 909L487 930L821 522Z"  horiz-adv-x="925" vert-adv-y="2048"  />

      
      <glyph glyph-name="unibc" unicode="&#xbc;" d="M369 565L369 1309Q369 1350 373 1370L119 1294L111 1323L369 1413L412 1413L412 565L369 565M1290 1413L307 0L258 0L1241 1413L1290 1413M1614 242L1522 238L1522 0L1479 0L1479 236L1012 236Q969 236 947.50 267.50Q926 299 946 334L1249 848L1296 848L991 332Q979 310 991.50 291Q1004 272 1032 272L1479 272L1479 545L1489 688L1522 688L1522 272L1614 272L1614 242Z"  horiz-adv-x="1720" vert-adv-y="2048"  />

      
      <glyph glyph-name="unibd" unicode="&#xbd;" d="M412 565L369 565L369 1309Q369 1350 373 1370L119 1294L111 1323L369 1413L412 1413L412 565M307 0L258 0L1241 1413L1290 1413L307 0M1079 797L1071 829Q1220 862 1343 862Q1488 862 1554 827.50Q1620 793 1620 690Q1620 609 1577 536Q1534 463 1432 358L1118 39L1200 40Q1282 40 1282 39L1663 39L1663 0L1063 0L1063 25Q1063 35 1071 47L1395 377Q1492 479 1534 552Q1576 625 1573 696Q1572 730 1560 753.50Q1548 777 1530.50 790.50Q1513 804 1482.50 811.50Q1452 819 1422 821Q1392 823 1348 823Q1211 823 1079 797Z"  horiz-adv-x="1783" vert-adv-y="2048"  />

      
      <glyph glyph-name="unibe" unicode="&#xbe;" d="M532 1014L532 1010Q706 986 709 797Q712 668 646 607.50Q580 547 422 547Q319 547 139 567L147 600Q287 586 418 586Q549 586 606.50 634.50Q664 683 664 799Q664 840 654.50 872Q645 904 621 932.50Q597 961 549.50 976.50Q502 992 434 993L258 993L258 1024L434 1028Q501 1029 546 1048Q591 1067 610.50 1099Q630 1131 636.50 1159Q643 1187 643 1223Q642 1317 589 1350.50Q536 1384 397 1384Q272 1384 162 1370L154 1403Q277 1423 397 1423Q559 1423 622.50 1381Q686 1339 686 1229Q686 1040 532 1014M1503 1413L520 0L471 0L1454 1413L1503 1413M1796 242L1683 236L1683 0L1640 0L1640 236L1194 236Q1151 236 1129.50 267.50Q1108 299 1128 334L1432 848L1479 848L1174 332Q1162 310 1174.50 291Q1187 272 1214 272L1640 272L1640 545L1651 688L1683 688L1683 272L1796 272L1796 242Z"  horiz-adv-x="1904" vert-adv-y="2048"  />

      
      <glyph glyph-name="unibf" unicode="&#xbf;" d="M520 1004L541 1004Q565 1004 565 979L565 852Q565 827 541 827L520 827Q496 827 496 852L496 979Q496 1004 520 1004M504 588L553 588Q553 507 531.50 438.50Q510 370 476 321Q442 272 401 228Q360 184 318.50 144.50Q277 105 243 65Q209 25 187.50-26.50Q166-78 166-137Q166-277 251-343.50Q336-410 516-410Q554-410 588.50-409.50Q623-409 646-408.50Q669-408 700.50-405.50Q732-403 744-402.50Q756-402 789.50-398Q823-394 828.50-393.50Q834-393 875-387.50Q916-382 922-381L932-418Q913-421 862.50-429Q812-437 791-440Q770-443 725-447.50Q680-452 630.50-453.50Q581-455 516-455Q115-455 115-137Q115-74 136.50-18Q158 38 192.50 81Q227 124 268.50 165.50Q310 207 351 250Q392 293 426.50 340Q461 387 482.50 451Q504 515 504 588Z"  horiz-adv-x="1032" vert-adv-y="2048"  />

      
      <glyph glyph-name="unic0" unicode="&#xc0;" d="M670 1507L356 1796L393 1831L698 1534L670 1507M954 516L281 516L94 0L39 0L547 1395Q553 1413 573 1413L662 1413Q682 1413 688 1395L1196 0L1141 0L954 516M938 561L688 1253L647 1368L588 1368L547 1253L297 561L938 561Z"  horiz-adv-x="1234" vert-adv-y="2048"  />

      
      <glyph glyph-name="unic1" unicode="&#xc1;" d="M549 1507L520 1534L825 1831L862 1796L549 1507M954 516L281 516L94 0L39 0L547 1395Q553 1413 573 1413L662 1413Q682 1413 688 1395L1196 0L1141 0L954 516M938 561L688 1253L647 1368L588 1368L547 1253L297 561L938 561Z"  horiz-adv-x="1234" vert-adv-y="2048"  />

      
      <glyph glyph-name="unic2" unicode="&#xc2;" d="M344 1538L319 1563L598 1802L635 1802L913 1563L891 1538L625 1747L608 1747L344 1538M954 516L281 516L94 0L39 0L547 1395Q553 1413 573 1413L662 1413Q682 1413 688 1395L1196 0L1141 0L954 516M938 561L688 1253L647 1368L588 1368L547 1253L297 561L938 561Z"  horiz-adv-x="1234" vert-adv-y="2048"  />

      
      <glyph glyph-name="unic3" unicode="&#xc3;" d="M356 1591L322 1591Q319 1684 360.50 1732Q402 1780 475 1774Q515 1771 553.50 1749.50Q592 1728 618.50 1704Q645 1680 683.50 1658.50Q722 1637 762 1634Q825 1630 853 1660.50Q881 1691 881 1763L915 1763Q918 1675 876.50 1629Q835 1583 762 1589Q716 1592 674 1613.50Q632 1635 605.50 1659Q579 1683 544 1704.50Q509 1726 475 1729Q413 1735 384.50 1701Q356 1667 356 1591M954 516L281 516L94 0L39 0L547 1395Q553 1413 573 1413L662 1413Q682 1413 688 1395L1196 0L1141 0L954 516M938 561L688 1253L647 1368L588 1368L547 1253L297 561L938 561Z"  horiz-adv-x="1234" vert-adv-y="2048"  />

      
      <glyph glyph-name="unic4" unicode="&#xc4;" d="M446 1593L426 1593Q406 1593 406 1616L406 1731Q406 1753 426 1753L446 1753Q467 1753 467 1731L467 1616Q467 1593 446 1593M809 1593L788 1593Q768 1593 768 1616L768 1731Q768 1753 788 1753L809 1753Q829 1753 829 1731L829 1616Q829 1593 809 1593M954 516L281 516L94 0L39 0L547 1395Q553 1413 573 1413L662 1413Q682 1413 688 1395L1196 0L1141 0L954 516M938 561L688 1253L647 1368L588 1368L547 1253L297 561L938 561Z"  horiz-adv-x="1234" vert-adv-y="2048"  />

      
      <glyph glyph-name="unic5" unicode="&#xc5;" d="M757.50 1529.50Q757.50 1529.50 728.75 1501.25Q700 1473 618 1473Q536 1473 479 1529Q422 1585 422 1667Q422 1747 479.50 1804.50Q537 1862 618 1862Q699 1862 757 1804.50Q815 1747 815 1667Q815 1586 757.50 1529.50M618 1823Q552 1823 508.50 1778Q465 1733 465 1667Q465 1600 508.50 1555.50Q552 1511 618 1511Q683 1511 727.50 1555.50Q772 1600 772 1667Q772 1733 727.50 1778Q683 1823 618 1823M954 516L281 516L94 0L39 0L547 1395Q553 1413 573 1413L662 1413Q682 1413 688 1395L1196 0L1141 0L954 516M938 561L688 1253L647 1368L588 1368L547 1253L297 561L938 561Z"  horiz-adv-x="1234" vert-adv-y="2048"  />

      
      <glyph glyph-name="unic6" unicode="&#xc6;" d="M1735 1368L1184 1368Q1108 1368 1062 1322Q1016 1276 1016 1200L1016 778L1647 778L1647 735L1016 735L1016 213Q1016 140 1063 92.50Q1110 45 1184 45L1735 45L1735 8Q1547 0 1174 0Q1083 0 1024 59Q965 118 965 209L965 557L451 557L84 0L23 0L840 1239Q909 1344 986.50 1378.50Q1064 1413 1178 1413Q1535 1413 1735 1405L1735 1368M965 602L965 1202Q965 1250 990 1297.50Q1015 1345 1049 1360L1036 1360Q956 1328 881 1212L479 602L965 602Z"  horiz-adv-x="1855" vert-adv-y="2048"  />

      
      <glyph glyph-name="unic7" unicode="&#xc7;" d="M1051 49L1063 12Q902-25 678-25Q482-25 369.50 46.50Q257 118 206.50 275.50Q156 433 156 707Q156 871 173.50 990Q191 1109 228 1196.50Q265 1284 327 1336.50Q389 1389 474.50 1413.50Q560 1438 678 1438Q886 1438 1034 1403L1022 1366Q862 1391 678 1391Q501 1391 400.50 1325Q300 1259 254.50 1112Q209 965 209 707Q209 449 254.50 302Q300 155 400.50 89Q501 23 678 23Q898 23 1051 49M612-154L618-125Q781-116 778-258Q776-364 698.50-427Q621-490 494-473L502-442Q607-446 670-392Q733-338 733-258Q733-201 706.50-178.50Q680-156 612-154Z"  horiz-adv-x="1148" vert-adv-y="2048"  />

      
      <glyph glyph-name="unic8" unicode="&#xc8;" d="M686 1559L373 1847L410 1882L715 1585L686 1559M1006 45L1010 8Q809 0 408 0Q317 0 258 59Q199 118 199 209L199 1204Q199 1295 258 1354Q317 1413 408 1413Q809 1413 1010 1405L1006 1368L418 1368Q344 1368 297 1321Q250 1274 250 1200L250 778L922 778L922 735L250 735L250 213Q250 140 297 92.50Q344 45 418 45L1006 45Z"  horiz-adv-x="1128" vert-adv-y="2048"  />

      
      <glyph glyph-name="unic9" unicode="&#xc9;" d="M565 1559L537 1585L842 1882L879 1847L565 1559M1006 45L1010 8Q809 0 408 0Q317 0 258 59Q199 118 199 209L199 1204Q199 1295 258 1354Q317 1413 408 1413Q809 1413 1010 1405L1006 1368L418 1368Q344 1368 297 1321Q250 1274 250 1200L250 778L922 778L922 735L250 735L250 213Q250 140 297 92.50Q344 45 418 45L1006 45Z"  horiz-adv-x="1128" vert-adv-y="2048"  />

      
      <glyph glyph-name="unica" unicode="&#xca;" d="M360 1589L336 1614L614 1853L651 1853L930 1614L907 1589L641 1798L625 1798L360 1589M1006 45L1010 8Q809 0 408 0Q317 0 258 59Q199 118 199 209L199 1204Q199 1295 258 1354Q317 1413 408 1413Q809 1413 1010 1405L1006 1368L418 1368Q344 1368 297 1321Q250 1274 250 1200L250 778L922 778L922 735L250 735L250 213Q250 140 297 92.50Q344 45 418 45L1006 45Z"  horiz-adv-x="1128" vert-adv-y="2048"  />

      
      <glyph glyph-name="unicb" unicode="&#xcb;" d="M463 1645L442 1645Q422 1645 422 1667L422 1782Q422 1804 442 1804L463 1804Q483 1804 483 1782L483 1667Q483 1645 463 1645M825 1645L805 1645Q784 1645 784 1667L784 1782Q784 1804 805 1804L825 1804Q846 1804 846 1782L846 1667Q846 1645 825 1645M1006 45L1010 8Q809 0 408 0Q317 0 258 59Q199 118 199 209L199 1204Q199 1295 258 1354Q317 1413 408 1413Q809 1413 1010 1405L1006 1368L418 1368Q344 1368 297 1321Q250 1274 250 1200L250 778L922 778L922 735L250 735L250 213Q250 140 297 92.50Q344 45 418 45L1006 45Z"  horiz-adv-x="1128" vert-adv-y="2048"  />

      
      <glyph glyph-name="unicc" unicode="&#xcc;" d="M315 1534L287 1507L-27 1796L10 1831L315 1534M262 0L211 0L211 1413L262 1413L262 0Z"  horiz-adv-x="473" vert-adv-y="2048"  />

      
      <glyph glyph-name="unicd" unicode="&#xcd;" d="M479 1796L166 1507L137 1534L442 1831L479 1796M262 0L211 0L211 1413L262 1413L262 0Z"  horiz-adv-x="473" vert-adv-y="2048"  />

      
      <glyph glyph-name="unice" unicode="&#xce;" d="M530 1563L508 1538L242 1747L225 1747L-39 1538L-63 1563L215 1802L252 1802L530 1563M262 0L211 0L211 1413L262 1413L262 0Z"  horiz-adv-x="473" vert-adv-y="2048"  />

      
      <glyph glyph-name="unicf" unicode="&#xcf;" d="M43 1753L63 1753Q84 1753 84 1731L84 1616Q84 1593 63 1593L43 1593Q23 1593 23 1616L23 1731Q23 1753 43 1753M406 1753L426 1753Q446 1753 446 1731L446 1616Q446 1593 426 1593L406 1593Q385 1593 385 1616L385 1731Q385 1753 406 1753M262 0L211 0L211 1413L262 1413L262 0Z"  horiz-adv-x="473" vert-adv-y="2048"  />

      
      <glyph glyph-name="unid0" unicode="&#xd0;" d="M217 780L217 1413Q474 1432 686 1432Q878 1432 989 1360.50Q1100 1289 1150 1133Q1200 977 1200 707Q1200 437 1150 281Q1100 125 989 53.50Q878-18 686-18Q464-18 217 0L217 739L53 739L53 780L217 780M268 739L268 35Q637 29 686 29Q858 29 957.50 94.50Q1057 160 1102 306.50Q1147 453 1147 707Q1147 961 1102 1107Q1057 1253 958 1318.50Q859 1384 686 1384Q518 1384 268 1376L268 780L643 780L643 739L268 739Z"  horiz-adv-x="1355" vert-adv-y="2048"  />

      
      <glyph glyph-name="unid1" unicode="&#xd1;" d="M471 1591L436 1591Q433 1683 475 1731.50Q517 1780 590 1774Q630 1771 668.50 1749.50Q707 1728 733.50 1704Q760 1680 798.50 1658.50Q837 1637 877 1634Q940 1630 967.50 1660.50Q995 1691 995 1763L1030 1763Q1033 1675 991.50 1629Q950 1583 877 1589Q831 1592 789 1613.50Q747 1635 720.50 1659Q694 1683 659 1704.50Q624 1726 590 1729Q528 1735 499.50 1701Q471 1667 471 1591M1198 1413L1198 31Q1198 0 1167 0L1081 0Q1056 0 1044 23L389 1229Q376 1253 351 1299Q326 1345 313 1368L262 1368L262 1227L262 0L211 0L211 1382Q211 1413 242 1413L322 1413Q347 1413 358 1391L999 211L1090 45L1147 45L1147 229L1147 1413L1198 1413Z"  horiz-adv-x="1409" vert-adv-y="2048"  />

      
      <glyph glyph-name="unid2" unicode="&#xd2;" d="M760 1534L731 1507L418 1796L455 1831L760 1534M474.50 1413.50Q474.50 1413.50 517.25 1425.75Q560 1438 678 1438Q796 1438 881.50 1413.50Q967 1389 1029 1336.50Q1091 1284 1128 1196.50Q1165 1109 1182.50 990Q1200 871 1200 707Q1200 433 1149.50 275.50Q1099 118 986.50 46.50Q874-25 678-25Q482-25 369.50 46.50Q257 118 206.50 275.50Q156 433 156 707Q156 871 173.50 990Q191 1109 228 1196.50Q265 1284 327 1336.50Q389 1389 474.50 1413.50M955.50 1325Q955.50 1325 905.25 1358Q855 1391 678 1391Q501 1391 400.50 1325Q300 1259 254.50 1112Q209 965 209 707Q209 449 254.50 302Q300 155 400.50 89Q501 23 678 23Q855 23 955.50 89Q1056 155 1101.50 302Q1147 449 1147 707Q1147 965 1101.50 1112Q1056 1259 955.50 1325Z"  horiz-adv-x="1355" vert-adv-y="2048"  />

      
      <glyph glyph-name="unid3" unicode="&#xd3;" d="M924 1796L610 1507L582 1534L887 1831L924 1796M474.50 1413.50Q474.50 1413.50 517.25 1425.75Q560 1438 678 1438Q796 1438 881.50 1413.50Q967 1389 1029 1336.50Q1091 1284 1128 1196.50Q1165 1109 1182.50 990Q1200 871 1200 707Q1200 433 1149.50 275.50Q1099 118 986.50 46.50Q874-25 678-25Q482-25 369.50 46.50Q257 118 206.50 275.50Q156 433 156 707Q156 871 173.50 990Q191 1109 228 1196.50Q265 1284 327 1336.50Q389 1389 474.50 1413.50M955.50 1325Q955.50 1325 905.25 1358Q855 1391 678 1391Q501 1391 400.50 1325Q300 1259 254.50 1112Q209 965 209 707Q209 449 254.50 302Q300 155 400.50 89Q501 23 678 23Q855 23 955.50 89Q1056 155 1101.50 302Q1147 449 1147 707Q1147 965 1101.50 1112Q1056 1259 955.50 1325Z"  horiz-adv-x="1355" vert-adv-y="2048"  />

      
      <glyph glyph-name="unid4" unicode="&#xd4;" d="M975 1563L952 1538L686 1747L670 1747L406 1538L381 1563L659 1802L696 1802L975 1563M474.50 1413.50Q474.50 1413.50 517.25 1425.75Q560 1438 678 1438Q796 1438 881.50 1413.50Q967 1389 1029 1336.50Q1091 1284 1128 1196.50Q1165 1109 1182.50 990Q1200 871 1200 707Q1200 433 1149.50 275.50Q1099 118 986.50 46.50Q874-25 678-25Q482-25 369.50 46.50Q257 118 206.50 275.50Q156 433 156 707Q156 871 173.50 990Q191 1109 228 1196.50Q265 1284 327 1336.50Q389 1389 474.50 1413.50M955.50 1325Q955.50 1325 905.25 1358Q855 1391 678 1391Q501 1391 400.50 1325Q300 1259 254.50 1112Q209 965 209 707Q209 449 254.50 302Q300 155 400.50 89Q501 23 678 23Q855 23 955.50 89Q1056 155 1101.50 302Q1147 449 1147 707Q1147 965 1101.50 1112Q1056 1259 955.50 1325Z"  horiz-adv-x="1355" vert-adv-y="2048"  />

      
      <glyph glyph-name="unid5" unicode="&#xd5;" d="M418 1591L383 1591Q380 1683 422 1731.50Q464 1780 537 1774Q577 1771 615.50 1749.50Q654 1728 680 1704Q706 1680 744.50 1658.50Q783 1637 823 1634Q886 1630 914 1660.50Q942 1691 942 1763L977 1763Q980 1675 938 1629Q896 1583 823 1589Q777 1592 735 1613.50Q693 1635 667 1659Q641 1683 606 1704.50Q571 1726 537 1729Q475 1735 446.50 1701Q418 1667 418 1591M474.50 1413.50Q474.50 1413.50 517.25 1425.75Q560 1438 678 1438Q796 1438 881.50 1413.50Q967 1389 1029 1336.50Q1091 1284 1128 1196.50Q1165 1109 1182.50 990Q1200 871 1200 707Q1200 433 1149.50 275.50Q1099 118 986.50 46.50Q874-25 678-25Q482-25 369.50 46.50Q257 118 206.50 275.50Q156 433 156 707Q156 871 173.50 990Q191 1109 228 1196.50Q265 1284 327 1336.50Q389 1389 474.50 1413.50M955.50 1325Q955.50 1325 905.25 1358Q855 1391 678 1391Q501 1391 400.50 1325Q300 1259 254.50 1112Q209 965 209 707Q209 449 254.50 302Q300 155 400.50 89Q501 23 678 23Q855 23 955.50 89Q1056 155 1101.50 302Q1147 449 1147 707Q1147 965 1101.50 1112Q1056 1259 955.50 1325Z"  horiz-adv-x="1355" vert-adv-y="2048"  />

      
      <glyph glyph-name="unid6" unicode="&#xd6;" d="M487 1753L508 1753Q528 1753 528 1731L528 1616Q528 1593 508 1593L487 1593Q467 1593 467 1616L467 1731Q467 1753 487 1753M850 1753L870 1753Q891 1753 891 1731L891 1616Q891 1593 870 1593L850 1593Q829 1593 829 1616L829 1731Q829 1753 850 1753M474.50 1413.50Q474.50 1413.50 517.25 1425.75Q560 1438 678 1438Q796 1438 881.50 1413.50Q967 1389 1029 1336.50Q1091 1284 1128 1196.50Q1165 1109 1182.50 990Q1200 871 1200 707Q1200 433 1149.50 275.50Q1099 118 986.50 46.50Q874-25 678-25Q482-25 369.50 46.50Q257 118 206.50 275.50Q156 433 156 707Q156 871 173.50 990Q191 1109 228 1196.50Q265 1284 327 1336.50Q389 1389 474.50 1413.50M955.50 1325Q955.50 1325 905.25 1358Q855 1391 678 1391Q501 1391 400.50 1325Q300 1259 254.50 1112Q209 965 209 707Q209 449 254.50 302Q300 155 400.50 89Q501 23 678 23Q855 23 955.50 89Q1056 155 1101.50 302Q1147 449 1147 707Q1147 965 1101.50 1112Q1056 1259 955.50 1325Z"  horiz-adv-x="1355" vert-adv-y="2048"  />

      
      <glyph glyph-name="unid7" unicode="&#xd7;" d="M133 285L162 250L879 895L850 928L133 285Z"  horiz-adv-x="999" vert-adv-y="2048"  />

      
      <glyph glyph-name="unid8" unicode="&#xd8;" d="M1057 1497L993 1362Q1104 1290 1152 1133Q1200 976 1200 707Q1200 433 1149.50 275.50Q1099 118 986.50 46.50Q874-25 678-25Q485-25 375 43L305-104L262-84L334 72Q240 149 198 302.50Q156 456 156 707Q156 871 173.50 990Q191 1109 228 1196.50Q265 1284 327 1336.50Q389 1389 474.50 1413.50Q560 1438 678 1438Q845 1438 952 1386L1014 1518L1057 1497M358 121L930 1339Q832 1391 678 1391Q501 1391 400.50 1325Q300 1259 254.50 1112Q209 965 209 707Q209 478 244.50 336.50Q280 195 358 121M971 1315L397 90Q497 23 678 23Q855 23 955.50 89Q1056 155 1101.50 302Q1147 449 1147 707Q1147 954 1106 1100Q1065 1246 971 1315Z"  horiz-adv-x="1355" vert-adv-y="2048"  />

      
      <glyph glyph-name="unid9" unicode="&#xd9;" d="M766 1534L737 1507L424 1796L461 1831L766 1534M1165 1413L1165 522Q1165 226 1056 100.50Q947-25 684-25Q420-25 310.50 100.50Q201 226 201 522L201 1413L252 1413L252 522Q252 247 349.50 135Q447 23 684 23Q919 23 1016.50 135Q1114 247 1114 522L1114 1413L1165 1413Z"  horiz-adv-x="1366" vert-adv-y="2048"  />

      
      <glyph glyph-name="unida" unicode="&#xda;" d="M930 1796L616 1507L588 1534L893 1831L930 1796M1165 1413L1165 522Q1165 226 1056 100.50Q947-25 684-25Q420-25 310.50 100.50Q201 226 201 522L201 1413L252 1413L252 522Q252 247 349.50 135Q447 23 684 23Q919 23 1016.50 135Q1114 247 1114 522L1114 1413L1165 1413Z"  horiz-adv-x="1366" vert-adv-y="2048"  />

      
      <glyph glyph-name="unidb" unicode="&#xdb;" d="M981 1563L958 1538L692 1747L676 1747L412 1538L387 1563L666 1802L702 1802L981 1563M1165 1413L1165 522Q1165 226 1056 100.50Q947-25 684-25Q420-25 310.50 100.50Q201 226 201 522L201 1413L252 1413L252 522Q252 247 349.50 135Q447 23 684 23Q919 23 1016.50 135Q1114 247 1114 522L1114 1413L1165 1413Z"  horiz-adv-x="1366" vert-adv-y="2048"  />

      
      <glyph glyph-name="unidc" unicode="&#xdc;" d="M494 1753L514 1753Q535 1753 535 1731L535 1616Q535 1593 514 1593L494 1593Q473 1593 473 1616L473 1731Q473 1753 494 1753M856 1753L877 1753Q897 1753 897 1731L897 1616Q897 1593 877 1593L856 1593Q836 1593 836 1616L836 1731Q836 1753 856 1753M1165 1413L1165 522Q1165 226 1056 100.50Q947-25 684-25Q420-25 310.50 100.50Q201 226 201 522L201 1413L252 1413L252 522Q252 247 349.50 135Q447 23 684 23Q919 23 1016.50 135Q1114 247 1114 522L1114 1413L1165 1413Z"  horiz-adv-x="1366" vert-adv-y="2048"  />

      
      <glyph glyph-name="unidd" unicode="&#xdd;" d="M485 1507L457 1534L762 1831L799 1796L485 1507M580 526L580 0L528 0L528 526L45 1413L102 1413L471 731Q539 610 549 592L559 592Q632 724 635 729L1004 1413L1061 1413L580 526Z"  horiz-adv-x="1107" vert-adv-y="2048"  />

      
      <glyph glyph-name="unide" unicode="&#xde;" d="M262 1413L262 1124Q417 1137 664 1137Q780 1137 854.50 1118Q929 1099 979 1050.50Q1029 1002 1050 923Q1071 844 1071 721Q1071 597 1050 517.50Q1029 438 979 390Q929 342 854.50 323.50Q780 305 664 305Q402 305 262 313L262 0L211 0L211 1413L262 1413M262 352L664 352Q766 354 830 370Q894 386 938 428Q982 470 1000 540Q1018 610 1018 721Q1018 832 1000 902.50Q982 973 938 1015Q894 1057 829.50 1073.50Q765 1090 664 1090Q437 1090 262 1085L262 352Z"  horiz-adv-x="1193" vert-adv-y="2048"  />

      
      <glyph glyph-name="unidf" unicode="&#xdf;" d="M758 582L1030 500Q1131 470 1180 415Q1229 360 1229 250Q1229 177 1212.50 126Q1196 75 1170 46Q1144 17 1099 1.50Q1054-14 1011-18.50Q968-23 903-23Q727-23 565 0L569 37Q740 20 903 23Q964 24 1002 28.50Q1040 33 1077.50 46.50Q1115 60 1134.50 84.50Q1154 109 1166 149.50Q1178 190 1178 250Q1178 302 1166.50 338Q1155 374 1131.50 396Q1108 418 1084.50 430Q1061 442 1024 453L754 535Q663 562 618 609.50Q573 657 573 748Q573 778 577 802Q581 826 591 846Q601 866 610.50 880.50Q620 895 640.50 909Q661 923 675.50 931.50Q690 940 719.50 951.50Q749 963 768 969Q787 975 825.50 987.50Q864 1000 887 1008Q984 1041 1018.50 1086Q1053 1131 1053 1231Q1053 1283 1027.50 1319.50Q1002 1356 950.50 1376Q899 1396 832.50 1404.50Q766 1413 674 1413Q564 1413 496.50 1399.50Q429 1386 383 1349Q337 1312 319 1249.50Q301 1187 301 1087L301 0L252 0L252 938L74 938L74 973L252 983L252 1087Q252 1160 263.50 1216.50Q275 1273 293 1312Q311 1351 343 1378.50Q375 1406 406.50 1421Q438 1436 486 1444.50Q534 1453 574.50 1455.50Q615 1458 674 1458Q777 1458 851.50 1447.50Q926 1437 983.50 1411.50Q1041 1386 1069.50 1341Q1098 1296 1098 1231Q1098 1167 1086 1123.50Q1074 1080 1046 1050Q1018 1020 982.50 1001Q947 982 889 963Q866 955 827 943Q788 931 771 925.50Q754 920 726.50 909.50Q699 899 688 890.50Q677 882 660.50 867.50Q644 853 638.50 837Q633 821 628 798.50Q623 776 623 748Q623 675 657 639Q691 603 758 582Z"  horiz-adv-x="1333" vert-adv-y="2048"  />

      
      <glyph glyph-name="unie0" unicode="&#xe0;" d="M598 1135L285 1423L322 1458L627 1161L598 1135M180 928L174 965Q191 967 250 976Q309 985 339.50 988.50Q370 992 424 997.50Q478 1003 531 1005.50Q584 1008 643 1008Q915 1008 915 733L915 0L879 0L868 190Q796 116 658.50 52Q521-12 391-12Q269-12 202 52.50Q135 117 135 236L135 362Q135 472 197 533Q259 594 371 594L866 594L866 733Q866 961 641 961Q446 961 180 928M186 362L186 236Q186 40 391 37Q504 34 641 94.50Q778 155 866 240L866 553L371 545Q280 544 233 497Q186 450 186 362Z"  horiz-adv-x="1101" vert-adv-y="2048"  />

      
      <glyph glyph-name="unie1" unicode="&#xe1;" d="M477 1135L449 1161L754 1458L791 1423L477 1135M180 928L174 965Q191 967 250 976Q309 985 339.50 988.50Q370 992 424 997.50Q478 1003 531 1005.50Q584 1008 643 1008Q915 1008 915 733L915 0L879 0L868 190Q796 116 658.50 52Q521-12 391-12Q269-12 202 52.50Q135 117 135 236L135 362Q135 472 197 533Q259 594 371 594L866 594L866 733Q866 961 641 961Q446 961 180 928M186 362L186 236Q186 40 391 37Q504 34 641 94.50Q778 155 866 240L866 553L371 545Q280 544 233 497Q186 450 186 362Z"  horiz-adv-x="1101" vert-adv-y="2048"  />

      
      <glyph glyph-name="unie2" unicode="&#xe2;" d="M272 1165L248 1190L526 1430L563 1430L842 1190L819 1165L553 1374L537 1374L272 1165M180 928L174 965Q191 967 250 976Q309 985 339.50 988.50Q370 992 424 997.50Q478 1003 531 1005.50Q584 1008 643 1008Q915 1008 915 733L915 0L879 0L868 190Q796 116 658.50 52Q521-12 391-12Q269-12 202 52.50Q135 117 135 236L135 362Q135 472 197 533Q259 594 371 594L866 594L866 733Q866 961 641 961Q446 961 180 928M186 362L186 236Q186 40 391 37Q504 34 641 94.50Q778 155 866 240L866 553L371 545Q280 544 233 497Q186 450 186 362Z"  horiz-adv-x="1101" vert-adv-y="2048"  />

      
      <glyph glyph-name="unie3" unicode="&#xe3;" d="M285 1219L250 1219Q247 1311 288.50 1359Q330 1407 403 1401Q443 1398 481.50 1376.50Q520 1355 546.50 1331.50Q573 1308 611.50 1286.50Q650 1265 690 1262Q753 1258 781 1288.50Q809 1319 809 1391L844 1391Q847 1303 805 1257Q763 1211 690 1217Q644 1220 602 1241.50Q560 1263 533.50 1286.50Q507 1310 472 1331.50Q437 1353 403 1356Q341 1362 313 1328.50Q285 1295 285 1219M180 928L174 965Q191 967 250 976Q309 985 339.50 988.50Q370 992 424 997.50Q478 1003 531 1005.50Q584 1008 643 1008Q915 1008 915 733L915 0L879 0L868 190Q796 116 658.50 52Q521-12 391-12Q269-12 202 52.50Q135 117 135 236L135 362Q135 472 197 533Q259 594 371 594L866 594L866 733Q866 961 641 961Q446 961 180 928M186 362L186 236Q186 40 391 37Q504 34 641 94.50Q778 155 866 240L866 553L371 545Q280 544 233 497Q186 450 186 362Z"  horiz-adv-x="1101" vert-adv-y="2048"  />

      
      <glyph glyph-name="unie4" unicode="&#xe4;" d="M375 1221L354 1221Q334 1221 334 1243L334 1358Q334 1380 354 1380L375 1380Q395 1380 395 1358L395 1243Q395 1221 375 1221M737 1221L717 1221Q696 1221 696 1243L696 1358Q696 1380 717 1380L737 1380Q758 1380 758 1358L758 1243Q758 1221 737 1221M180 928L174 965Q191 967 250 976Q309 985 339.50 988.50Q370 992 424 997.50Q478 1003 531 1005.50Q584 1008 643 1008Q915 1008 915 733L915 0L879 0L868 190Q796 116 658.50 52Q521-12 391-12Q269-12 202 52.50Q135 117 135 236L135 362Q135 472 197 533Q259 594 371 594L866 594L866 733Q866 961 641 961Q446 961 180 928M186 362L186 236Q186 40 391 37Q504 34 641 94.50Q778 155 866 240L866 553L371 545Q280 544 233 497Q186 450 186 362Z"  horiz-adv-x="1101" vert-adv-y="2048"  />

      
      <glyph glyph-name="unie5" unicode="&#xe5;" d="M686 1156Q686 1156 657.50 1128Q629 1100 547 1100Q465 1100 407.50 1156.50Q350 1213 350 1294Q350 1374 408 1431.50Q466 1489 547 1489Q628 1489 685.50 1431.50Q743 1374 743 1294Q743 1212 686 1156M547 1450Q481 1450 437 1405Q393 1360 393 1294Q393 1227 437 1183Q481 1139 547 1139Q612 1139 656 1183Q700 1227 700 1294Q700 1360 656 1405Q612 1450 547 1450M180 928L174 965Q191 967 250 976Q309 985 339.50 988.50Q370 992 424 997.50Q478 1003 531 1005.50Q584 1008 643 1008Q915 1008 915 733L915 0L879 0L868 190Q796 116 658.50 52Q521-12 391-12Q269-12 202 52.50Q135 117 135 236L135 362Q135 472 197 533Q259 594 371 594L866 594L866 733Q866 961 641 961Q446 961 180 928M186 362L186 236Q186 40 391 37Q504 34 641 94.50Q778 155 866 240L866 553L371 545Q280 544 233 497Q186 450 186 362Z"  horiz-adv-x="1101" vert-adv-y="2048"  />

      
      <glyph glyph-name="unie6" unicode="&#xe6;" d="M1382 465L918 465Q924 222 1016 122.50Q1108 23 1311 23Q1480 23 1645 49L1653 12Q1605-3 1496-14Q1387-25 1305-25Q1143-25 1046 30Q949 85 905 207Q826 126 678.50 57Q531-12 391-12Q269-12 202 52.50Q135 117 135 236L135 362Q135 472 197 533Q259 594 371 594L866 594L866 733Q866 961 641 961Q446 961 180 928L174 965Q191 967 250 976Q309 985 339.50 988.50Q370 992 424 997.50Q478 1003 531 1005.50Q584 1008 643 1008Q879 1008 911 801Q953 910 1044.50 959Q1136 1008 1288 1008Q1669 1008 1675 729Q1678 584 1611 524.50Q1544 465 1382 465M918 510L1382 510Q1517 510 1572 558.50Q1627 607 1624 725Q1618 961 1290 961Q1087 961 1003 859Q919 757 918 510M186 362L186 236Q186 40 391 37Q509 34 652.50 96.50Q796 159 893 248Q869 337 866 459L866 553L371 545Q280 544 233 497Q186 450 186 362Z"  horiz-adv-x="1802" vert-adv-y="2048"  />

      
      <glyph glyph-name="unie7" unicode="&#xe7;" d="M881 47L889 10Q732-25 592-25Q345-25 243 91.50Q141 208 141 492Q141 775 243 891.50Q345 1008 590 1008Q755 1008 866 973L854 936Q754 961 598 961Q445 961 359.50 919Q274 877 233.50 775.50Q193 674 193 492Q193 310 233.50 208.50Q274 107 359.50 65Q445 23 598 23Q761 23 881 47M520-154L526-125Q689-116 686-258Q684-364 606-427Q528-490 401-473L410-442Q515-446 578-392Q641-338 641-258Q641-201 614.50-178.50Q588-156 520-154Z"  horiz-adv-x="978" vert-adv-y="2048"  />

      
      <glyph glyph-name="unie8" unicode="&#xe8;" d="M618 1135L305 1423L342 1458L647 1161L618 1135M739 465L193 465Q199 222 291 122.50Q383 23 586 23Q755 23 920 49L928 12Q880-3 771-14Q662-25 580-25Q346-25 243.50 95.50Q141 216 141 496Q141 777 237.50 892.50Q334 1008 563 1008Q944 1008 950 729Q953 594 904.50 529.50Q856 465 739 465M193 510L739 510Q827 510 864.50 563.50Q902 617 899 725Q896 847 813.50 904Q731 961 565 961Q362 961 278 859Q194 757 193 510Z"  horiz-adv-x="1079" vert-adv-y="2048"  />

      
      <glyph glyph-name="unie9" unicode="&#xe9;" d="M498 1135L469 1161L774 1458L811 1423L498 1135M739 465L193 465Q199 222 291 122.50Q383 23 586 23Q755 23 920 49L928 12Q880-3 771-14Q662-25 580-25Q346-25 243.50 95.50Q141 216 141 496Q141 777 237.50 892.50Q334 1008 563 1008Q944 1008 950 729Q953 594 904.50 529.50Q856 465 739 465M193 510L739 510Q827 510 864.50 563.50Q902 617 899 725Q896 847 813.50 904Q731 961 565 961Q362 961 278 859Q194 757 193 510Z"  horiz-adv-x="1079" vert-adv-y="2048"  />

      
      <glyph glyph-name="uniea" unicode="&#xea;" d="M293 1165L268 1190L547 1430L584 1430L862 1190L840 1165L573 1374L557 1374L293 1165M739 465L193 465Q199 222 291 122.50Q383 23 586 23Q755 23 920 49L928 12Q880-3 771-14Q662-25 580-25Q346-25 243.50 95.50Q141 216 141 496Q141 777 237.50 892.50Q334 1008 563 1008Q944 1008 950 729Q953 594 904.50 529.50Q856 465 739 465M193 510L739 510Q827 510 864.50 563.50Q902 617 899 725Q896 847 813.50 904Q731 961 565 961Q362 961 278 859Q194 757 193 510Z"  horiz-adv-x="1079" vert-adv-y="2048"  />

      
      <glyph glyph-name="unieb" unicode="&#xeb;" d="M395 1221L375 1221Q354 1221 354 1243L354 1358Q354 1380 375 1380L395 1380Q416 1380 416 1358L416 1243Q416 1221 395 1221M758 1221L737 1221Q717 1221 717 1243L717 1358Q717 1380 737 1380L758 1380Q778 1380 778 1358L778 1243Q778 1221 758 1221M739 465L193 465Q199 222 291 122.50Q383 23 586 23Q755 23 920 49L928 12Q880-3 771-14Q662-25 580-25Q346-25 243.50 95.50Q141 216 141 496Q141 777 237.50 892.50Q334 1008 563 1008Q944 1008 950 729Q953 594 904.50 529.50Q856 465 739 465M193 510L739 510Q827 510 864.50 563.50Q902 617 899 725Q896 847 813.50 904Q731 961 565 961Q362 961 278 859Q194 757 193 510Z"  horiz-adv-x="1079" vert-adv-y="2048"  />

      
      <glyph glyph-name="uniec" unicode="&#xec;" d="M303 1161L274 1135L-39 1423L-2 1458L303 1161M250 0L201 0L201 983L250 983L250 0Z"  horiz-adv-x="450" vert-adv-y="2048"  />

      
      <glyph glyph-name="unied" unicode="&#xed;" d="M467 1423L154 1135L125 1161L430 1458L467 1423M250 0L201 0L201 983L250 983L250 0Z"  horiz-adv-x="450" vert-adv-y="2048"  />

      
      <glyph glyph-name="uniee" unicode="&#xee;" d="M518 1190L496 1165L229 1374L213 1374L-51 1165L-76 1190L203 1430L240 1430L518 1190M250 0L201 0L201 983L250 983L250 0Z"  horiz-adv-x="450" vert-adv-y="2048"  />

      
      <glyph glyph-name="unief" unicode="&#xef;" d="M31 1380L51 1380Q72 1380 72 1358L72 1243Q72 1221 51 1221L31 1221Q10 1221 10 1243L10 1358Q10 1380 31 1380M393 1380L414 1380Q434 1380 434 1358L434 1243Q434 1221 414 1221L393 1221Q373 1221 373 1243L373 1358Q373 1380 393 1380M250 0L201 0L201 983L250 983L250 0Z"  horiz-adv-x="450" vert-adv-y="2048"  />

      
      <glyph glyph-name="unif0" unicode="&#xf0;" d="M870 1395L709 1282Q956 1071 956 571Q956 496 953.50 441Q951 386 941.50 320Q932 254 915 207.50Q898 161 868 114.50Q838 68 796 39.50Q754 11 692.50-7Q631-25 553-25Q342-25 242.50 89Q143 203 143 453Q143 675 239 794Q335 913 551 913Q721 913 893 803Q846 1106 670 1255L479 1124L457 1159L635 1282Q480 1393 238 1393L250 1430Q503 1434 674 1311L848 1430L870 1395M553 20Q619 20 670.50 34Q722 48 759 72.50Q796 97 823 137Q850 177 866 221.50Q882 266 891.50 327.50Q901 389 904 448.50Q907 508 907 586Q907 656 899 758Q800 820 718.50 844Q637 868 541 868Q462 868 402 847.50Q342 827 303 791Q264 755 239.50 701.50Q215 648 205 587Q195 526 195 451Q195 221 282 120.50Q369 20 553 20Z"  horiz-adv-x="1122" vert-adv-y="2048"  />

      
      <glyph glyph-name="unif1" unicode="&#xf1;" d="M338 1219L303 1219Q300 1311 342 1359Q384 1407 457 1401Q497 1398 535.50 1376.50Q574 1355 600 1331.50Q626 1308 664.50 1286.50Q703 1265 743 1262Q806 1258 834 1288.50Q862 1319 862 1391L897 1391Q900 1303 858 1257Q816 1211 743 1217Q697 1220 655 1241.50Q613 1263 587 1286.50Q561 1310 526 1331.50Q491 1353 457 1356Q395 1362 366.50 1328.50Q338 1295 338 1219M231 983L238 803Q496 1008 717 1008Q847 1008 914 939.50Q981 871 981 739L981 0L932 0L932 733Q932 850 876.50 905.50Q821 961 707 961Q602 961 498.50 914Q395 867 244 760L244 0L195 0L195 983L231 983Z"  horiz-adv-x="1167" vert-adv-y="2048"  />

      
      <glyph glyph-name="unif2" unicode="&#xf2;" d="M651 1161L623 1135L309 1423L346 1458L651 1161M239 892.50Q239 892.50 287 950.25Q335 1008 573 1008Q811 1008 907.50 892Q1004 776 1004 492Q1004 208 907.50 91.50Q811-25 573-25Q336-25 239.50 91Q143 207 143 492Q143 777 239 892.50M868 858.50Q868 858.50 826 909.75Q784 961 573 961Q362 961 278.50 858.50Q195 756 195 492Q195 228 278.50 125.50Q362 23 573 23Q784 23 868 125.50Q952 228 952 492Q952 756 868 858.50Z"  horiz-adv-x="1146" vert-adv-y="2048"  />

      
      <glyph glyph-name="unif3" unicode="&#xf3;" d="M815 1423L502 1135L473 1161L778 1458L815 1423M239 892.50Q239 892.50 287 950.25Q335 1008 573 1008Q811 1008 907.50 892Q1004 776 1004 492Q1004 208 907.50 91.50Q811-25 573-25Q336-25 239.50 91Q143 207 143 492Q143 777 239 892.50M868 858.50Q868 858.50 826 909.75Q784 961 573 961Q362 961 278.50 858.50Q195 756 195 492Q195 228 278.50 125.50Q362 23 573 23Q784 23 868 125.50Q952 228 952 492Q952 756 868 858.50Z"  horiz-adv-x="1146" vert-adv-y="2048"  />

      
      <glyph glyph-name="unif4" unicode="&#xf4;" d="M866 1190L844 1165L578 1374L561 1374L297 1165L272 1190L551 1430L588 1430L866 1190M239 892.50Q239 892.50 287 950.25Q335 1008 573 1008Q811 1008 907.50 892Q1004 776 1004 492Q1004 208 907.50 91.50Q811-25 573-25Q336-25 239.50 91Q143 207 143 492Q143 777 239 892.50M868 858.50Q868 858.50 826 909.75Q784 961 573 961Q362 961 278.50 858.50Q195 756 195 492Q195 228 278.50 125.50Q362 23 573 23Q784 23 868 125.50Q952 228 952 492Q952 756 868 858.50Z"  horiz-adv-x="1146" vert-adv-y="2048"  />

      
      <glyph glyph-name="unif5" unicode="&#xf5;" d="M309 1219L274 1219Q271 1311 313 1359Q355 1407 428 1401Q468 1398 506.50 1376.50Q545 1355 571.50 1331.50Q598 1308 636.50 1286.50Q675 1265 715 1262Q778 1258 806 1288.50Q834 1319 834 1391L868 1391Q871 1303 829.50 1257Q788 1211 715 1217Q669 1220 627 1241.50Q585 1263 558.50 1286.50Q532 1310 497 1331.50Q462 1353 428 1356Q366 1362 337.50 1328.50Q309 1295 309 1219M239 892.50Q239 892.50 287 950.25Q335 1008 573 1008Q811 1008 907.50 892Q1004 776 1004 492Q1004 208 907.50 91.50Q811-25 573-25Q336-25 239.50 91Q143 207 143 492Q143 777 239 892.50M868 858.50Q868 858.50 826 909.75Q784 961 573 961Q362 961 278.50 858.50Q195 756 195 492Q195 228 278.50 125.50Q362 23 573 23Q784 23 868 125.50Q952 228 952 492Q952 756 868 858.50Z"  horiz-adv-x="1146" vert-adv-y="2048"  />

      
      <glyph glyph-name="unif6" unicode="&#xf6;" d="M379 1380L399 1380Q420 1380 420 1358L420 1243Q420 1221 399 1221L379 1221Q358 1221 358 1243L358 1358Q358 1380 379 1380M741 1380L762 1380Q782 1380 782 1358L782 1243Q782 1221 762 1221L741 1221Q721 1221 721 1243L721 1358Q721 1380 741 1380M239 892.50Q239 892.50 287 950.25Q335 1008 573 1008Q811 1008 907.50 892Q1004 776 1004 492Q1004 208 907.50 91.50Q811-25 573-25Q336-25 239.50 91Q143 207 143 492Q143 777 239 892.50M868 858.50Q868 858.50 826 909.75Q784 961 573 961Q362 961 278.50 858.50Q195 756 195 492Q195 228 278.50 125.50Q362 23 573 23Q784 23 868 125.50Q952 228 952 492Q952 756 868 858.50Z"  horiz-adv-x="1146" vert-adv-y="2048"  />

      
      <glyph glyph-name="unif7" unicode="&#xf7;" d="M590 1028L610 1028Q635 1028 635 1004L635 877Q635 852 610 852L590 852Q565 852 565 877L565 1004Q565 1028 590 1028M1030 584L176 584L176 629L1030 629L1030 584M590 360L610 360Q635 360 635 336L635 209Q635 184 610 184L590 184Q565 184 565 209L565 336Q565 360 590 360Z"  horiz-adv-x="1206" vert-adv-y="2048"  />

      
      <glyph glyph-name="unif8" unicode="&#xf8;" d="M866 1085L811 967Q914 918 959 804.50Q1004 691 1004 492Q1004 208 907.50 91.50Q811-25 573-25Q450-25 362 6L301-125L262-106L324 25Q228 75 185.50 187Q143 299 143 492Q143 777 239 892.50Q335 1008 573 1008Q690 1008 770 981L827 1104L866 1085M344 70L750 938Q680 961 573 961Q362 961 278.50 858.50Q195 756 195 492Q195 317 230 216Q265 115 344 70M788 922L383 51Q454 23 573 23Q784 23 868 125.50Q952 228 952 492Q952 674 913.50 776Q875 878 788 922Z"  horiz-adv-x="1146" vert-adv-y="2048"  />

      
      <glyph glyph-name="unif9" unicode="&#xf9;" d="M625 1135L311 1423L348 1458L653 1161L625 1135M952 983L952 0L915 0L909 180Q663-25 451-25Q321-25 253.50 43.50Q186 112 186 244L186 983L236 983L236 250Q236 134 291 78.50Q346 23 461 23Q562 23 660.50 70Q759 117 903 223L903 983L952 983Z"  horiz-adv-x="1146" vert-adv-y="2048"  />

      
      <glyph glyph-name="unifa" unicode="&#xfa;" d="M504 1135L475 1161L780 1458L817 1423L504 1135M952 983L952 0L915 0L909 180Q663-25 451-25Q321-25 253.50 43.50Q186 112 186 244L186 983L236 983L236 250Q236 134 291 78.50Q346 23 461 23Q562 23 660.50 70Q759 117 903 223L903 983L952 983Z"  horiz-adv-x="1146" vert-adv-y="2048"  />

      
      <glyph glyph-name="unifb" unicode="&#xfb;" d="M299 1165L274 1190L553 1430L590 1430L868 1190L846 1165L580 1374L563 1374L299 1165M952 983L952 0L915 0L909 180Q663-25 451-25Q321-25 253.50 43.50Q186 112 186 244L186 983L236 983L236 250Q236 134 291 78.50Q346 23 461 23Q562 23 660.50 70Q759 117 903 223L903 983L952 983Z"  horiz-adv-x="1146" vert-adv-y="2048"  />

      
      <glyph glyph-name="unifc" unicode="&#xfc;" d="M401 1221L381 1221Q360 1221 360 1243L360 1358Q360 1380 381 1380L401 1380Q422 1380 422 1358L422 1243Q422 1221 401 1221M764 1221L743 1221Q723 1221 723 1243L723 1358Q723 1380 743 1380L764 1380Q784 1380 784 1358L784 1243Q784 1221 764 1221M952 983L952 0L915 0L909 180Q663-25 451-25Q321-25 253.50 43.50Q186 112 186 244L186 983L236 983L236 250Q236 134 291 78.50Q346 23 461 23Q562 23 660.50 70Q759 117 903 223L903 983L952 983Z"  horiz-adv-x="1146" vert-adv-y="2048"  />

      
      <glyph glyph-name="unifd" unicode="&#xfd;" d="M455 1135L426 1161L731 1458L768 1423L455 1135M977 983L524-96Q494-165 468.50-211Q443-257 406-303Q369-349 320-380Q271-411 207-430L195-401Q308-357 371-279Q434-201 481-78L512 0L492 0Q475 0 465 16L61 983L115 983L461 152L506 45L532 45L578 156L924 983L977 983Z"  horiz-adv-x="1036" vert-adv-y="2048"  />

      
      <glyph glyph-name="unife" unicode="&#xfe;" d="M238 825Q457 1008 647 1008Q841 1008 922.50 890Q1004 772 1004 492Q1004 212 922 93.50Q840-25 647-25Q464-25 238 84Q244 31 244-104L244-430L195-430L195 1434L244 1434L244 1016Q244 879 238 825M244 782L244 121Q374 69 464 46Q554 23 647 23Q812 23 882 129Q952 235 952 492Q952 749 882 855Q812 961 647 961Q552 961 461 919.50Q370 878 244 782Z"  horiz-adv-x="1150" vert-adv-y="2048"  />

      
      <glyph glyph-name="uniff" unicode="&#xff;" d="M352 1221L332 1221Q311 1221 311 1243L311 1358Q311 1380 332 1380L352 1380Q373 1380 373 1358L373 1243Q373 1221 352 1221M715 1221L694 1221Q674 1221 674 1243L674 1358Q674 1380 694 1380L715 1380Q735 1380 735 1358L735 1243Q735 1221 715 1221M977 983L524-96Q494-165 468.50-211Q443-257 406-303Q369-349 320-380Q271-411 207-430L195-401Q308-357 371-279Q434-201 481-78L512 0L492 0Q475 0 465 16L61 983L115 983L461 152L506 45L532 45L578 156L924 983L977 983Z"  horiz-adv-x="1036" vert-adv-y="2048"  />

      
      <glyph glyph-name="uni0100" unicode="&#x0100;" d="M885 1647L352 1647L352 1694L885 1694L885 1647M954 516L281 516L94 0L39 0L547 1395Q553 1413 573 1413L662 1413Q682 1413 688 1395L1196 0L1141 0L954 516M938 561L688 1253L647 1368L588 1368L547 1253L297 561L938 561Z"  horiz-adv-x="1234" vert-adv-y="2048"  />

      
      <glyph glyph-name="uni0101" unicode="&#x0101;" d="M813 1274L281 1274L281 1321L813 1321L813 1274M180 928L174 965Q191 967 250 976Q309 985 339.50 988.50Q370 992 424 997.50Q478 1003 531 1005.50Q584 1008 643 1008Q915 1008 915 733L915 0L879 0L868 190Q796 116 658.50 52Q521-12 391-12Q269-12 202 52.50Q135 117 135 236L135 362Q135 472 197 533Q259 594 371 594L866 594L866 733Q866 961 641 961Q446 961 180 928M186 362L186 236Q186 40 391 37Q504 34 641 94.50Q778 155 866 240L866 553L371 545Q280 544 233 497Q186 450 186 362Z"  horiz-adv-x="1101" vert-adv-y="2048"  />

      
      <glyph glyph-name="uni0102" unicode="&#x0102;" d="M858 1788L895 1780Q895 1672 820.50 1609Q746 1546 618 1546Q489 1546 413.50 1608.50Q338 1671 338 1780L375 1788Q375 1696 440 1645.50Q505 1595 618 1595Q728 1595 793 1646Q858 1697 858 1788M954 516L281 516L94 0L39 0L547 1395Q553 1413 573 1413L662 1413Q682 1413 688 1395L1196 0L1141 0L954 516M938 561L688 1253L647 1368L588 1368L547 1253L297 561L938 561Z"  horiz-adv-x="1234" vert-adv-y="2048"  />

      
      <glyph glyph-name="uni0103" unicode="&#x0103;" d="M786 1415L823 1407Q823 1299 749 1236.50Q675 1174 547 1174Q417 1174 341.50 1236.50Q266 1299 266 1407L303 1415Q303 1324 368 1273.50Q433 1223 547 1223Q657 1223 721.50 1273.50Q786 1324 786 1415M180 928L174 965Q191 967 250 976Q309 985 339.50 988.50Q370 992 424 997.50Q478 1003 531 1005.50Q584 1008 643 1008Q915 1008 915 733L915 0L879 0L868 190Q796 116 658.50 52Q521-12 391-12Q269-12 202 52.50Q135 117 135 236L135 362Q135 472 197 533Q259 594 371 594L866 594L866 733Q866 961 641 961Q446 961 180 928M186 362L186 236Q186 40 391 37Q504 34 641 94.50Q778 155 866 240L866 553L371 545Q280 544 233 497Q186 450 186 362Z"  horiz-adv-x="1101" vert-adv-y="2048"  />

      
      <glyph glyph-name="uni0104" unicode="&#x0104;" d="M1208-373L1214-397Q1163-421 1119.50-430Q1076-439 1046.50-434Q1017-429 996-413.50Q975-398 966.50-374Q958-350 959.50-319Q961-288 973-254Q1019-123 1155 0L1141 0L954 516L281 516L94 0L39 0L547 1395Q553 1413 573 1413L662 1413Q682 1413 688 1395L1196 0Q1064-132 1018-258Q984-353 1037.50-384Q1091-415 1208-373M938 561L688 1253L647 1368L588 1368L547 1253L297 561L938 561Z"  horiz-adv-x="1234" vert-adv-y="2048"  />

      
      <glyph glyph-name="uni0105" unicode="&#x0105;" d="M928-373L934-397Q883-421 839.50-430Q796-439 766.50-434Q737-429 716-413.50Q695-398 686-374Q677-350 678.50-319Q680-288 692-254Q737-124 879 4L868 190Q796 116 658.50 52Q521-12 391-12Q269-12 202 52.50Q135 117 135 236L135 362Q135 472 197 533Q259 594 371 594L866 594L866 733Q866 961 641 961Q446 961 180 928L174 965Q191 967 250 976Q309 985 339.50 988.50Q370 992 424 997.50Q478 1003 531 1005.50Q584 1008 643 1008Q915 1008 915 733L915 0Q783-132 737-258Q704-352 757.50-383.50Q811-415 928-373M186 362L186 236Q186 40 391 37Q504 34 641 94.50Q778 155 866 240L866 553L371 545Q280 544 233 497Q186 450 186 362Z"  horiz-adv-x="1101" vert-adv-y="2048"  />

      
      <glyph glyph-name="uni0106" unicode="&#x0106;" d="M903 1796L590 1507L561 1534L866 1831L903 1796M1051 49L1063 12Q902-25 678-25Q482-25 369.50 46.50Q257 118 206.50 275.50Q156 433 156 707Q156 871 173.50 990Q191 1109 228 1196.50Q265 1284 327 1336.50Q389 1389 474.50 1413.50Q560 1438 678 1438Q886 1438 1034 1403L1022 1366Q862 1391 678 1391Q501 1391 400.50 1325Q300 1259 254.50 1112Q209 965 209 707Q209 449 254.50 302Q300 155 400.50 89Q501 23 678 23Q898 23 1051 49Z"  horiz-adv-x="1148" vert-adv-y="2048"  />

      
      <glyph glyph-name="uni0107" unicode="&#x0107;" d="M803 1423L489 1135L461 1161L766 1458L803 1423M881 47L889 10Q732-25 592-25Q345-25 243 91.50Q141 208 141 492Q141 775 243 891.50Q345 1008 590 1008Q755 1008 866 973L854 936Q754 961 598 961Q445 961 359.50 919Q274 877 233.50 775.50Q193 674 193 492Q193 310 233.50 208.50Q274 107 359.50 65Q445 23 598 23Q761 23 881 47Z"  horiz-adv-x="978" vert-adv-y="2048"  />

      
      <glyph glyph-name="uni010A" unicode="&#x010A;" d="M649 1761L670 1761Q694 1761 694 1737L694 1610Q694 1585 670 1585L649 1585Q625 1585 625 1610L625 1737Q625 1761 649 1761M1051 49L1063 12Q902-25 678-25Q482-25 369.50 46.50Q257 118 206.50 275.50Q156 433 156 707Q156 871 173.50 990Q191 1109 228 1196.50Q265 1284 327 1336.50Q389 1389 474.50 1413.50Q560 1438 678 1438Q886 1438 1034 1403L1022 1366Q862 1391 678 1391Q501 1391 400.50 1325Q300 1259 254.50 1112Q209 965 209 707Q209 449 254.50 302Q300 155 400.50 89Q501 23 678 23Q898 23 1051 49Z"  horiz-adv-x="1148" vert-adv-y="2048"  />

      
      <glyph glyph-name="uni010B" unicode="&#x010B;" d="M549 1389L569 1389Q594 1389 594 1364L594 1237Q594 1212 569 1212L549 1212Q524 1212 524 1237L524 1364Q524 1389 549 1389M881 47L889 10Q732-25 592-25Q345-25 243 91.50Q141 208 141 492Q141 775 243 891.50Q345 1008 590 1008Q755 1008 866 973L854 936Q754 961 598 961Q445 961 359.50 919Q274 877 233.50 775.50Q193 674 193 492Q193 310 233.50 208.50Q274 107 359.50 65Q445 23 598 23Q761 23 881 47Z"  horiz-adv-x="978" vert-adv-y="2048"  />

      
      <glyph glyph-name="uni010C" unicode="&#x010C;" d="M961 1778L680 1538L643 1538L362 1778L389 1802L653 1593L670 1593L936 1802L961 1778M1051 49L1063 12Q902-25 678-25Q482-25 369.50 46.50Q257 118 206.50 275.50Q156 433 156 707Q156 871 173.50 990Q191 1109 228 1196.50Q265 1284 327 1336.50Q389 1389 474.50 1413.50Q560 1438 678 1438Q886 1438 1034 1403L1022 1366Q862 1391 678 1391Q501 1391 400.50 1325Q300 1259 254.50 1112Q209 965 209 707Q209 449 254.50 302Q300 155 400.50 89Q501 23 678 23Q898 23 1051 49Z"  horiz-adv-x="1148" vert-adv-y="2048"  />

      
      <glyph glyph-name="uni010D" unicode="&#x010D;" d="M860 1405L580 1165L543 1165L262 1405L289 1430L553 1221L569 1221L836 1430L860 1405M881 47L889 10Q732-25 592-25Q345-25 243 91.50Q141 208 141 492Q141 775 243 891.50Q345 1008 590 1008Q755 1008 866 973L854 936Q754 961 598 961Q445 961 359.50 919Q274 877 233.50 775.50Q193 674 193 492Q193 310 233.50 208.50Q274 107 359.50 65Q445 23 598 23Q761 23 881 47Z"  horiz-adv-x="978" vert-adv-y="2048"  />

      
      <glyph glyph-name="uni010E" unicode="&#x010E;" d="M647 1538L367 1778L393 1802L657 1593L674 1593L940 1802L965 1778L684 1538L647 1538M211 0L211 1413Q467 1432 680 1432Q872 1432 983 1360.50Q1094 1289 1144 1133Q1194 977 1194 707Q1194 437 1144 281Q1094 125 983 53.50Q872-18 680-18Q458-18 211 0M262 1376L262 35Q631 29 680 29Q852 29 951.50 94.50Q1051 160 1096 306.50Q1141 453 1141 707Q1141 961 1096 1107Q1051 1253 952 1318.50Q853 1384 680 1384Q512 1384 262 1376Z"  horiz-adv-x="1349" vert-adv-y="2048"  />

      
      <glyph glyph-name="uni010F" unicode="&#x010F;" d="M1165 1436L1180 1436Q1202 1436 1202 1415L1202 1294Q1198 1164 1169 1059L1149 1067Q1155 1181 1155 1276Q1150 1276 1146 1281.50Q1142 1287 1145 1294L1145 1415Q1142 1436 1165 1436M905 1434L954 1434L954 0L918 0L909 172Q797 72 699 23.50Q601-25 502-25Q309-25 227 93.50Q145 212 145 492Q145 772 226.50 890Q308 1008 502 1008Q674 1008 911 905Q905 959 905 1096L905 1434M905 219L905 862Q774 915 684 938Q594 961 502 961Q337 961 267 855Q197 749 197 492Q197 235 267 129Q337 23 502 23Q597 23 688 68.50Q779 114 905 219Z"  horiz-adv-x="1148" vert-adv-y="2048"  />

      
      <glyph glyph-name="uni0110" unicode="&#x0110;" d="M217 780L217 1413Q474 1432 686 1432Q878 1432 989 1360.50Q1100 1289 1150 1133Q1200 977 1200 707Q1200 437 1150 281Q1100 125 989 53.50Q878-18 686-18Q464-18 217 0L217 739L53 739L53 780L217 780M268 739L268 35Q637 29 686 29Q858 29 957.50 94.50Q1057 160 1102 306.50Q1147 453 1147 707Q1147 961 1102 1107Q1057 1253 958 1318.50Q859 1384 686 1384Q518 1384 268 1376L268 780L643 780L643 739L268 739Z"  horiz-adv-x="1355" vert-adv-y="2048"  />

      
      <glyph glyph-name="uni0111" unicode="&#x0111;" d="M1106 1208L954 1208L954 0L918 0L909 172Q797 72 699 23.50Q601-25 502-25Q309-25 227 93.50Q145 212 145 492Q145 772 226.50 890Q308 1008 502 1008Q674 1008 911 905Q905 959 905 1096L905 1208L543 1208L543 1249L905 1249L905 1434L954 1434L954 1249L1106 1249L1106 1208M905 219L905 862Q774 915 684 938Q594 961 502 961Q337 961 267 855Q197 749 197 492Q197 235 267 129Q337 23 502 23Q597 23 688 68.50Q779 114 905 219Z"  horiz-adv-x="1132" vert-adv-y="2048"  />

      
      <glyph glyph-name="uni0112" unicode="&#x0112;" d="M901 1698L369 1698L369 1745L901 1745L901 1698M1006 45L1010 8Q809 0 408 0Q317 0 258 59Q199 118 199 209L199 1204Q199 1295 258 1354Q317 1413 408 1413Q809 1413 1010 1405L1006 1368L418 1368Q344 1368 297 1321Q250 1274 250 1200L250 778L922 778L922 735L250 735L250 213Q250 140 297 92.50Q344 45 418 45L1006 45Z"  horiz-adv-x="1128" vert-adv-y="2048"  />

      
      <glyph glyph-name="uni0113" unicode="&#x0113;" d="M834 1274L301 1274L301 1321L834 1321L834 1274M739 465L193 465Q199 222 291 122.50Q383 23 586 23Q755 23 920 49L928 12Q880-3 771-14Q662-25 580-25Q346-25 243.50 95.50Q141 216 141 496Q141 777 237.50 892.50Q334 1008 563 1008Q944 1008 950 729Q953 594 904.50 529.50Q856 465 739 465M193 510L739 510Q827 510 864.50 563.50Q902 617 899 725Q896 847 813.50 904Q731 961 565 961Q362 961 278 859Q194 757 193 510Z"  horiz-adv-x="1079" vert-adv-y="2048"  />

      
      <glyph glyph-name="uni0116" unicode="&#x0116;" d="M645 1636L625 1636Q600 1636 600 1661L600 1788Q600 1812 625 1812L645 1812Q670 1812 670 1788L670 1661Q670 1636 645 1636M1006 45L1010 8Q809 0 408 0Q317 0 258 59Q199 118 199 209L199 1204Q199 1295 258 1354Q317 1413 408 1413Q809 1413 1010 1405L1006 1368L418 1368Q344 1368 297 1321Q250 1274 250 1200L250 778L922 778L922 735L250 735L250 213Q250 140 297 92.50Q344 45 418 45L1006 45Z"  horiz-adv-x="1128" vert-adv-y="2048"  />

      
      <glyph glyph-name="uni0117" unicode="&#x0117;" d="M578 1212L557 1212Q532 1212 532 1237L532 1364Q532 1389 557 1389L578 1389Q602 1389 602 1364L602 1237Q602 1212 578 1212M739 465L193 465Q199 222 291 122.50Q383 23 586 23Q755 23 920 49L928 12Q880-3 771-14Q662-25 580-25Q346-25 243.50 95.50Q141 216 141 496Q141 777 237.50 892.50Q334 1008 563 1008Q944 1008 950 729Q953 594 904.50 529.50Q856 465 739 465M193 510L739 510Q827 510 864.50 563.50Q902 617 899 725Q896 847 813.50 904Q731 961 565 961Q362 961 278 859Q194 757 193 510Z"  horiz-adv-x="1079" vert-adv-y="2048"  />

      
      <glyph glyph-name="uni0118" unicode="&#x0118;" d="M1022-365L1028-389Q977-413 933.50-422Q890-431 860.50-426Q831-421 810-405.50Q789-390 780-366Q771-342 772.50-311Q774-280 786-246Q831-120 967 6Q781 0 408 0Q317 0 258 59Q199 118 199 209L199 1204Q199 1295 258 1354Q317 1413 408 1413Q809 1413 1010 1405L1006 1368L418 1368Q344 1368 297 1321Q250 1274 250 1200L250 778L922 778L922 735L250 735L250 213Q250 140 297 92.50Q344 45 418 45L1006 45L1010 8Q876-126 831-250Q798-344 851.50-375.50Q905-407 1022-365Z"  horiz-adv-x="1128" vert-adv-y="2048"  />

      
      <glyph glyph-name="uni0119" unicode="&#x0119;" d="M920 49L928 12Q796-120 750-246Q717-340 770-371Q823-402 940-360L946-385Q895-409 851.50-418Q808-427 778.50-422Q749-417 728-401.50Q707-386 698.50-362Q690-338 691.50-307Q693-276 705-242Q746-121 872 0Q726-25 580-25Q346-25 243.50 95.50Q141 216 141 496Q141 777 237.50 892.50Q334 1008 563 1008Q944 1008 950 729Q953 594 904.50 529.50Q856 465 739 465L193 465Q199 222 291 122.50Q383 23 586 23Q755 23 920 49M193 510L739 510Q827 510 864.50 563.50Q902 617 899 725Q896 847 813.50 904Q731 961 565 961Q362 961 278 859Q194 757 193 510Z"  horiz-adv-x="1079" vert-adv-y="2048"  />

      
      <glyph glyph-name="uni011A" unicode="&#x011A;" d="M618 1589L338 1829L365 1853L629 1645L645 1645L911 1853L936 1829L655 1589L618 1589M1006 45L1010 8Q809 0 408 0Q317 0 258 59Q199 118 199 209L199 1204Q199 1295 258 1354Q317 1413 408 1413Q809 1413 1010 1405L1006 1368L418 1368Q344 1368 297 1321Q250 1274 250 1200L250 778L922 778L922 735L250 735L250 213Q250 140 297 92.50Q344 45 418 45L1006 45Z"  horiz-adv-x="1128" vert-adv-y="2048"  />

      
      <glyph glyph-name="uni011B" unicode="&#x011B;" d="M551 1165L270 1405L297 1430L561 1221L578 1221L844 1430L868 1405L588 1165L551 1165M739 465L193 465Q199 222 291 122.50Q383 23 586 23Q755 23 920 49L928 12Q880-3 771-14Q662-25 580-25Q346-25 243.50 95.50Q141 216 141 496Q141 777 237.50 892.50Q334 1008 563 1008Q944 1008 950 729Q953 594 904.50 529.50Q856 465 739 465M193 510L739 510Q827 510 864.50 563.50Q902 617 899 725Q896 847 813.50 904Q731 961 565 961Q362 961 278 859Q194 757 193 510Z"  horiz-adv-x="1079" vert-adv-y="2048"  />

      
      <glyph glyph-name="uni011E" unicode="&#x011E;" d="M903 1788L940 1780Q940 1671 866 1608.50Q792 1546 664 1546Q535 1546 459 1609Q383 1672 383 1780L420 1788Q420 1697 485 1646Q550 1595 664 1595Q774 1595 838.50 1646Q903 1697 903 1788M1108 819L1108 0L1073 0L1061 182Q868-25 623-25Q373-25 264.50 147.50Q156 320 156 707Q156 912 183 1049Q210 1186 273.50 1274Q337 1362 436 1400Q535 1438 684 1438Q916 1438 1085 1403L1073 1366Q894 1391 684 1391Q505 1391 402.50 1325Q300 1259 254.50 1112Q209 965 209 707Q209 344 305.50 183.50Q402 23 627 23Q676 23 720 30.50Q764 38 805.50 56.50Q847 75 875.50 89Q904 103 943.50 134Q983 165 1000 179Q1017 193 1057 229L1057 819L1108 819Z"  horiz-adv-x="1273" vert-adv-y="2048"  />

      
      </font>
</defs>
</svg>
